<svg width="14" height="14" viewBox="0 0 14 14" fill="none" xmlns="http://www.w3.org/2000/svg">
    <rect width="14" height="14" rx="2" fill="#EDF4FF"/>
    <path d="M9.192 6.01h.95a2.612 2.612 0 0 0-.34-1 2.451 2.451 0 0 0-.65-.73 2.85 2.85 0 0 0-.89-.44 3.67 3.67 0 0 0-1.06-.15c-.547 0-1.034.1-1.46.3-.42.193-.774.46-1.06.8-.28.34-.494.74-.64 1.2-.147.453-.22.94-.22 1.46s.066 1.007.2 1.46c.14.453.346.847.62 1.18.273.333.616.597 1.03.79.413.187.896.28 1.45.28.913 0 1.633-.25 2.16-.75.526-.5.836-1.2.93-2.1h-.95c-.02.293-.08.567-.18.82a1.922 1.922 0 0 1-1.05 1.09c-.24.1-.517.15-.83.15-.427 0-.794-.08-1.1-.24a2.217 2.217 0 0 1-.76-.64 2.88 2.88 0 0 1-.43-.95 4.686 4.686 0 0 1-.14-1.16c0-.373.046-.733.14-1.08.093-.347.236-.653.43-.92.2-.273.45-.49.75-.65.306-.16.673-.24 1.1-.24.5 0 .93.127 1.29.38.366.253.603.633.71 1.14z" fill="#5C99FF"/>
</svg>
