<svg width="14" height="14" viewBox="0 0 14 14" fill="none" xmlns="http://www.w3.org/2000/svg">
    <rect width="14" height="14" rx="2" fill="#E5E6EB"/>
    <path d="M6.402 9.89V11h1.11V9.89h-1.11zm-1.63-3.8h.85c0-.233.026-.45.08-.65.053-.2.136-.373.25-.52a1.33 1.33 0 0 1 .44-.35c.173-.087.38-.13.62-.13.36 0 .643.103.85.31.213.207.333.493.36.86.013.247-.017.457-.09.63a1.81 1.81 0 0 1-.3.48c-.12.14-.254.277-.4.41-.14.127-.277.267-.41.42-.127.153-.237.33-.33.53-.087.193-.137.43-.15.71v.47h.85v-.39c0-.173.023-.327.07-.46.053-.14.12-.267.2-.38.086-.12.18-.23.28-.33.106-.107.213-.21.32-.31.106-.107.21-.217.31-.33.106-.113.2-.237.28-.37.08-.133.143-.28.19-.44.053-.167.08-.353.08-.56 0-.32-.054-.603-.16-.85a1.646 1.646 0 0 0-.43-.62 1.812 1.812 0 0 0-.67-.39 2.445 2.445 0 0 0-.85-.14c-.347 0-.66.06-.94.18-.28.12-.517.29-.71.51a2.275 2.275 0 0 0-.45.76c-.1.293-.147.61-.14.95z" fill="#787E85"/>
</svg>
