<svg width="14" height="14" viewBox="0 0 14 14" fill="none" xmlns="http://www.w3.org/2000/svg">
    <rect width="14" height="14" rx="2" fill="#FFEFB7"/>
    <path d="M4.531 7.43c0-.36.047-.713.14-1.06.094-.353.24-.67.44-.95.2-.28.457-.503.77-.67.314-.173.687-.26 1.12-.26.434 0 .807.087 1.12.26.314.167.57.39.77.67.2.28.347.597.44.95.094.347.14.7.14 1.06 0 .36-.046.717-.14 1.07-.093.347-.24.66-.44.94-.2.28-.456.507-.77.68-.313.167-.686.25-1.12.25-.433 0-.806-.083-1.12-.25-.313-.173-.57-.4-.77-.68-.2-.28-.346-.593-.44-.94a4.173 4.173 0 0 1-.14-1.07zm-.95 0c0 .487.07.957.21 1.41.147.447.364.843.65 1.19.287.347.644.623 1.07.83.427.2.924.3 1.49.3.567 0 1.064-.1 1.49-.3a3.148 3.148 0 0 0 1.07-.83c.287-.347.5-.743.64-1.19.147-.453.22-.923.22-1.41a4.46 4.46 0 0 0-.22-1.4 3.466 3.466 0 0 0-.64-1.2A3.148 3.148 0 0 0 8.491 4c-.426-.207-.923-.31-1.49-.31-.566 0-1.063.103-1.49.31a3.148 3.148 0 0 0-1.07.83 3.602 3.602 0 0 0-.65 1.2c-.14.447-.21.913-.21 1.4z" fill="#FFCD00"/>
</svg>
