<svg width="14" height="14" viewBox="0 0 14 14" fill="none" xmlns="http://www.w3.org/2000/svg">
    <rect width="14" height="14" rx="2" fill="#FFE4E4"/>
    <path d="M8.668 5.95h.9c-.014-.393-.09-.73-.23-1.01a1.898 1.898 0 0 0-.56-.71 2.26 2.26 0 0 0-.82-.41 3.815 3.815 0 0 0-1.02-.13c-.327 0-.647.043-.96.13a2.55 2.55 0 0 0-.83.38c-.24.167-.434.383-.58.65-.147.26-.22.57-.22.93 0 .327.063.6.19.82.133.213.306.39.52.53.22.133.466.243.74.33.273.08.55.153.83.22a88 88 0 0 1 .84.18c.273.06.516.14.73.24.22.093.393.217.52.37.133.153.2.353.2.6 0 .26-.054.473-.16.64-.107.167-.247.3-.42.4-.174.093-.37.16-.59.2-.214.04-.427.06-.64.06a3.05 3.05 0 0 1-.78-.1 1.997 1.997 0 0 1-.67-.31 1.686 1.686 0 0 1-.46-.53c-.114-.22-.17-.48-.17-.78h-.9c0 .433.076.81.23 1.13.16.313.373.573.64.78.273.2.586.35.94.45a4.241 4.241 0 0 0 2.12.03c.333-.073.633-.193.9-.36.266-.173.483-.393.65-.66.173-.273.26-.6.26-.98 0-.353-.067-.647-.2-.88a1.669 1.669 0 0 0-.52-.58 2.573 2.573 0 0 0-.73-.36 8.688 8.688 0 0 0-.84-.24c-.28-.067-.557-.127-.83-.18a4.873 4.873 0 0 1-.74-.22 1.548 1.548 0 0 1-.52-.33.774.774 0 0 1-.19-.54c0-.233.043-.427.13-.58.093-.16.213-.287.36-.38.153-.093.326-.16.52-.2.193-.04.39-.06.59-.06.493 0 .896.117 1.21.35.32.227.506.597.56 1.11z" fill="#FF7272"/>
</svg>
