<svg width="14" height="14" viewBox="0 0 14 14" fill="none" xmlns="http://www.w3.org/2000/svg">
<path fill-rule="evenodd" clip-rule="evenodd" d="M7.17002 2.54684C7.06715 2.47827 6.93314 2.47827 6.83027 2.54684L2.45527 5.46351C2.37007 5.52031 2.3189 5.61593 2.3189 5.71833V11.375C2.3189 11.5442 2.45601 11.6813 2.62515 11.6813H11.3751C11.5443 11.6813 11.6814 11.5442 11.6814 11.375V5.71833C11.6814 5.61593 11.6302 5.52031 11.545 5.46351L7.17002 2.54684ZM6.1993 1.60039C6.68425 1.27708 7.31604 1.27708 7.80099 1.60039L12.176 4.51705C12.5776 4.78482 12.8189 5.23561 12.8189 5.71833V11.375C12.8189 12.1724 12.1725 12.8188 11.3751 12.8188H2.62515C1.82778 12.8188 1.1814 12.1724 1.1814 11.375V5.71833C1.1814 5.23561 1.42265 4.78482 1.8243 4.51705L6.1993 1.60039ZM4.37515 9.93129C4.37515 9.61718 4.62978 9.36254 4.9439 9.36254H9.0564C9.37051 9.36254 9.62515 9.61718 9.62515 9.93129C9.62515 10.2454 9.37051 10.5 9.0564 10.5H4.9439C4.62978 10.5 4.37515 10.2454 4.37515 9.93129Z" fill="black"/>
</svg>
