<svg width="16" height="16" viewBox="0 0 16 16" fill="none" xmlns="http://www.w3.org/2000/svg">
<path fill-rule="evenodd" clip-rule="evenodd" d="M8 2C8.27614 2 8.5 2.22386 8.5 2.5V3.52746C10.5858 3.75804 12.242 5.41419 12.4725 7.5H13.5C13.7761 7.5 14 7.72386 14 8C14 8.27614 13.7761 8.5 13.5 8.5H12.4725C12.242 10.5858 10.5858 12.242 8.5 12.4725V13.5C8.5 13.7761 8.27614 14 8 14C7.72386 14 7.5 13.7761 7.5 13.5V12.4725C5.41419 12.242 3.75804 10.5858 3.52746 8.5H2.5C2.22386 8.5 2 8.27614 2 8C2 7.72386 2.22386 7.5 2.5 7.5H3.52746C3.75804 5.41419 5.41419 3.75804 7.5 3.52746V2.5C7.5 2.22386 7.72386 2 8 2ZM4.53544 8.5H5.5C5.77614 8.5 6 8.27614 6 8C6 7.72386 5.77614 7.5 5.5 7.5H4.53544C4.7547 5.96715 5.96715 4.7547 7.5 4.53544V5.5C7.5 5.77614 7.72386 6 8 6C8.27614 6 8.5 5.77614 8.5 5.5V4.53544C10.0328 4.7547 11.2453 5.96715 11.4646 7.5H10.5C10.2239 7.5 10 7.72386 10 8C10 8.27614 10.2239 8.5 10.5 8.5H11.4646C11.2453 10.0328 10.0328 11.2453 8.5 11.4646V10.5C8.5 10.2239 8.27614 10 8 10C7.72386 10 7.5 10.2239 7.5 10.5V11.4646C5.96715 11.2453 4.7547 10.0328 4.53544 8.5Z" fill="#1D2129"/>
</svg>
