<svg width="16" height="16" viewBox="0 0 16 16" fill="none" xmlns="http://www.w3.org/2000/svg">
<mask id="path-1-inside-1_12757_47884" fill="white">
<path fill-rule="evenodd" clip-rule="evenodd" d="M2.54404 5.5C2.46929 5.66287 2.40161 5.82967 2.34141 6C2.12031 6.62556 2 7.29873 2 8C2 8.70127 2.12031 9.37444 2.34141 10C2.40161 10.1703 2.46929 10.3371 2.54404 10.5C3.49205 12.5655 5.57851 14 8 14C10.4215 14 12.5079 12.5655 13.456 10.5C13.5307 10.3371 13.5984 10.1703 13.6586 10C13.8797 9.37444 14 8.70127 14 8C14 7.29873 13.8797 6.62556 13.6586 6C13.5984 5.82967 13.5307 5.66287 13.456 5.5C12.5079 3.43447 10.4215 2 8 2C5.57851 2 3.49205 3.43447 2.54404 5.5ZM7.32292 12.9545C5.76057 12.743 4.42623 11.8097 3.66861 10.5H5.97365C6.15025 10.9766 6.3577 11.407 6.56237 11.7774C6.82511 12.2528 7.08782 12.6376 7.28578 12.9048C7.29843 12.9218 7.31081 12.9384 7.32292 12.9545ZM8.67708 12.9545C10.2394 12.743 11.5738 11.8097 12.3314 10.5H10.0264C9.84975 10.9766 9.6423 11.407 9.43763 11.7774C9.17489 12.2528 8.91218 12.6376 8.71422 12.9048C8.70157 12.9218 8.68919 12.9384 8.67708 12.9545ZM10.326 9.5H12.7714C12.9197 9.02758 13 8.52403 13 8C13 7.47597 12.9197 6.97242 12.7714 6.5H10.326C10.4341 6.97376 10.5 7.47701 10.5 8C10.5 8.52299 10.4341 9.02624 10.326 9.5ZM9.29621 6.5C9.42173 6.97365 9.5 7.47834 9.5 8C9.5 8.52166 9.42173 9.02635 9.29621 9.5H6.70379C6.57827 9.02635 6.5 8.52166 6.5 8C6.5 7.47834 6.57827 6.97365 6.70379 6.5H9.29621ZM10.0264 5.5H12.3314C11.5738 4.19032 10.2394 3.25701 8.67708 3.04547C8.68919 3.06158 8.70157 3.07817 8.71422 3.09523C8.91218 3.36235 9.17489 3.74718 9.43763 4.22264C9.6423 4.59301 9.84975 5.02339 10.0264 5.5ZM7.32292 3.04547C5.76057 3.25701 4.42623 4.19032 3.66861 5.5H5.97365C6.15025 5.02339 6.3577 4.59301 6.56237 4.22264C6.82511 3.74718 7.08782 3.36235 7.28578 3.09523C7.29843 3.07817 7.31081 3.06158 7.32292 3.04547ZM7.04968 5.5C7.17108 5.2148 7.30364 4.94876 7.43763 4.7063C7.63699 4.34552 7.83636 4.04261 8 3.81332C8.16364 4.04261 8.36301 4.34552 8.56237 4.7063C8.69636 4.94876 8.82892 5.2148 8.95032 5.5H7.04968ZM5.67398 6.5H3.22862C3.08028 6.97242 3 7.47597 3 8C3 8.52403 3.08028 9.02758 3.22862 9.5H5.67398C5.56593 9.02624 5.5 8.52299 5.5 8C5.5 7.47701 5.56593 6.97376 5.67398 6.5ZM7.04968 10.5H8.95032C8.82892 10.7852 8.69636 11.0512 8.56237 11.2937C8.36301 11.6545 8.16364 11.9574 8 12.1867C7.83636 11.9574 7.63699 11.6545 7.43763 11.2937C7.30364 11.0512 7.17108 10.7852 7.04968 10.5Z"/>
</mask>
<path d="M2.34141 6L1.39857 5.66675L2.34141 6ZM2.54404 5.5L1.6352 5.08287L1.6352 5.08287L2.54404 5.5ZM2.34141 10L3.28425 9.66675L3.28425 9.66675L2.34141 10ZM2.54404 10.5L1.6352 10.9171H1.6352L2.54404 10.5ZM13.456 10.5L12.5471 10.0829L13.456 10.5ZM13.6586 10L14.6014 10.3332V10.3332L13.6586 10ZM13.6586 6L14.6014 5.66675V5.66675L13.6586 6ZM13.456 5.5L12.5471 5.91713V5.91713L13.456 5.5ZM3.66861 10.5V9.5H1.93487L2.80301 11.0007L3.66861 10.5ZM7.32292 12.9545L7.18875 13.9455L9.56031 14.2666L8.12225 12.3536L7.32292 12.9545ZM5.97365 10.5L6.91134 10.1525L6.66955 9.5H5.97365V10.5ZM6.56237 11.7774L5.68712 12.261H5.68712L6.56237 11.7774ZM7.28578 12.9048L6.48235 13.5002L6.48236 13.5002L7.28578 12.9048ZM8.67708 12.9545L7.87775 12.3536L6.43969 14.2666L8.81125 13.9455L8.67708 12.9545ZM12.3314 10.5L13.197 11.0007L14.0651 9.5H12.3314V10.5ZM10.0264 10.5V9.5H9.33045L9.08866 10.1525L10.0264 10.5ZM9.43763 11.7774L10.3129 12.261H10.3129L9.43763 11.7774ZM8.71422 12.9048L9.51764 13.5002L9.51765 13.5002L8.71422 12.9048ZM12.7714 9.5V10.5H13.5055L13.7255 9.79958L12.7714 9.5ZM10.326 9.5L9.35106 9.27764L9.07227 10.5H10.326V9.5ZM12.7714 6.5L13.7255 6.20042L13.5055 5.5H12.7714V6.5ZM10.326 6.5V5.5H9.07227L9.35106 6.72236L10.326 6.5ZM9.29621 6.5L10.2628 6.24384L10.0657 5.5H9.29621V6.5ZM9.29621 9.5V10.5H10.0657L10.2628 9.75616L9.29621 9.5ZM6.70379 9.5L5.73715 9.75616L5.93427 10.5H6.70379V9.5ZM6.70379 6.5V5.5H5.93427L5.73715 6.24384L6.70379 6.5ZM10.0264 5.5L9.08866 5.84746L9.33045 6.5H10.0264V5.5ZM12.3314 5.5V6.5H14.0651L13.197 4.99927L12.3314 5.5ZM8.67708 3.04547L8.81125 2.05451L6.43972 1.7334L7.87774 3.64635L8.67708 3.04547ZM8.71422 3.09523L7.91078 3.69062L7.91078 3.69062L8.71422 3.09523ZM9.43763 4.22264L10.3129 3.73897L10.3129 3.73897L9.43763 4.22264ZM7.32292 3.04547L8.12226 3.64635L9.56028 1.7334L7.18875 2.05451L7.32292 3.04547ZM3.66861 5.5L2.80301 4.99927L1.93487 6.5H3.66861V5.5ZM5.97365 5.5V6.5H6.66955L6.91134 5.84746L5.97365 5.5ZM6.56237 4.22264L5.68712 3.73897L5.68712 3.73897L6.56237 4.22264ZM7.28578 3.09523L8.08922 3.69062L8.08922 3.69062L7.28578 3.09523ZM7.43763 4.7063L8.31288 5.18996L8.31288 5.18996L7.43763 4.7063ZM7.04968 5.5L6.12957 5.10833L5.53716 6.5H7.04968V5.5ZM8 3.81332L8.81398 3.23242L8 2.09185L7.18602 3.23242L8 3.81332ZM8.56237 4.7063L7.68712 5.18996L7.68712 5.18996L8.56237 4.7063ZM8.95032 5.5V6.5H10.4628L9.87043 5.10833L8.95032 5.5ZM3.22862 6.5V5.5H2.49448L2.27455 6.20042L3.22862 6.5ZM5.67398 6.5L6.64894 6.72236L6.92773 5.5H5.67398V6.5ZM3.22862 9.5L2.27455 9.79958L2.49448 10.5H3.22862V9.5ZM5.67398 9.5V10.5H6.92773L6.64894 9.27764L5.67398 9.5ZM8.95032 10.5L9.87043 10.8917L10.4628 9.5H8.95032V10.5ZM7.04968 10.5V9.5H5.53716L6.12957 10.8917L7.04968 10.5ZM8.56237 11.2937L9.43763 11.7774L8.56237 11.2937ZM8 12.1867L7.18602 12.7676L8 13.9082L8.81398 12.7676L8 12.1867ZM7.43763 11.2937L6.56237 11.7774L7.43763 11.2937ZM3.28425 6.33325C3.33434 6.19153 3.39066 6.05272 3.45289 5.91713L1.6352 5.08287C1.54792 5.27303 1.46889 5.46781 1.39857 5.66675L3.28425 6.33325ZM3 8C3 7.41382 3.10045 6.85326 3.28425 6.33325L1.39857 5.66675C1.14016 6.39785 1 7.18364 1 8H3ZM3.28425 9.66675C3.10045 9.14674 3 8.58618 3 8H1C1 8.81636 1.14016 9.60215 1.39857 10.3332L3.28425 9.66675ZM3.45289 10.0829C3.39066 9.94728 3.33434 9.80847 3.28425 9.66675L1.39857 10.3332C1.46889 10.5322 1.54792 10.727 1.6352 10.9171L3.45289 10.0829ZM8 13C5.98362 13 4.24392 11.8064 3.45289 10.0829L1.6352 10.9171C2.74018 13.3247 5.17339 15 8 15V13ZM12.5471 10.0829C11.7561 11.8064 10.0164 13 8 13V15C10.8266 15 13.2598 13.3247 14.3648 10.9171L12.5471 10.0829ZM12.7157 9.66675C12.6657 9.80847 12.6093 9.94728 12.5471 10.0829L14.3648 10.9171C14.4521 10.727 14.5311 10.5322 14.6014 10.3332L12.7157 9.66675ZM13 8C13 8.58618 12.8995 9.14674 12.7157 9.66675L14.6014 10.3332C14.8598 9.60215 15 8.81636 15 8H13ZM12.7157 6.33325C12.8995 6.85326 13 7.41382 13 8H15C15 7.18364 14.8598 6.39785 14.6014 5.66675L12.7157 6.33325ZM12.5471 5.91713C12.6093 6.05272 12.6657 6.19153 12.7157 6.33325L14.6014 5.66675C14.5311 5.46782 14.4521 5.27303 14.3648 5.08287L12.5471 5.91713ZM8 3C10.0164 3 11.7561 4.19362 12.5471 5.91713L14.3648 5.08287C13.2598 2.67532 10.8266 1 8 1V3ZM3.45289 5.91713C4.24392 4.19362 5.98362 3 8 3V1C5.17339 1 2.74018 2.67532 1.6352 5.08287L3.45289 5.91713ZM2.80301 11.0007C3.71094 12.5702 5.31097 13.6912 7.18875 13.9455L7.4571 11.9636C6.21017 11.7947 5.14152 11.0491 4.53421 9.99927L2.80301 11.0007ZM5.97365 9.5H3.66861V11.5H5.97365V9.5ZM7.43763 11.2937C7.25283 10.9593 7.06772 10.5746 6.91134 10.1525L5.03595 10.8475C5.23279 11.3787 5.46258 11.8547 5.68712 12.261L7.43763 11.2937ZM8.08922 12.3094C7.91218 12.0705 7.67489 11.7231 7.43763 11.2937L5.68712 12.261C5.97532 12.7826 6.26347 13.2048 6.48235 13.5002L8.08922 12.3094ZM8.12225 12.3536C8.11149 12.3393 8.10046 12.3246 8.08921 12.3094L6.48236 13.5002C6.49639 13.5191 6.51014 13.5375 6.52359 13.5554L8.12225 12.3536ZM8.81125 13.9455C10.689 13.6912 12.2891 12.5702 13.197 11.0007L11.4658 9.99927C10.8585 11.0491 9.78983 11.7947 8.5429 11.9636L8.81125 13.9455ZM12.3314 9.5H10.0264V11.5H12.3314V9.5ZM9.08866 10.1525C8.93228 10.5746 8.74717 10.9593 8.56237 11.2937L10.3129 12.261C10.5374 11.8547 10.7672 11.3787 10.964 10.8475L9.08866 10.1525ZM8.56237 11.2937C8.32511 11.7231 8.08782 12.0705 7.91078 12.3094L9.51765 13.5002C9.73653 13.2048 10.0247 12.7826 10.3129 12.261L8.56237 11.2937ZM7.91079 12.3094C7.89954 12.3246 7.88851 12.3393 7.87775 12.3536L9.47641 13.5554C9.48986 13.5375 9.50361 13.5191 9.51764 13.5002L7.91079 12.3094ZM12.7714 8.5H10.326V10.5H12.7714V8.5ZM12 8C12 8.42128 11.9355 8.82386 11.8173 9.20042L13.7255 9.79958C13.9039 9.23131 14 8.62678 14 8H12ZM11.8173 6.79958C11.9355 7.17614 12 7.57872 12 8H14C14 7.37322 13.9039 6.76869 13.7255 6.20042L11.8173 6.79958ZM10.326 7.5H12.7714V5.5H10.326V7.5ZM9.35106 6.72236C9.44465 7.13272 9.5 7.56103 9.5 8H11.5C11.5 7.393 11.4235 6.81481 11.301 6.27764L9.35106 6.72236ZM9.5 8C9.5 8.43897 9.44465 8.86728 9.35106 9.27764L11.301 9.72236C11.4235 9.18519 11.5 8.607 11.5 8H9.5ZM10.5 8C10.5 7.37862 10.4068 6.78722 10.2628 6.24384L8.32958 6.75616C8.43662 7.16008 8.5 7.57806 8.5 8H10.5ZM10.2628 9.75616C10.4068 9.21278 10.5 8.62138 10.5 8H8.5C8.5 8.42194 8.43662 8.83992 8.32958 9.24384L10.2628 9.75616ZM9.29621 8.5H6.70379V10.5H9.29621V8.5ZM5.5 8C5.5 8.62138 5.59316 9.21278 5.73715 9.75616L7.67042 9.24384C7.56338 8.83992 7.5 8.42194 7.5 8H5.5ZM5.73715 6.24384C5.59316 6.78722 5.5 7.37862 5.5 8H7.5C7.5 7.57806 7.56338 7.16008 7.67042 6.75616L5.73715 6.24384ZM6.70379 7.5H9.29621V5.5H6.70379V7.5ZM10.0264 6.5H12.3314V4.5H10.0264V6.5ZM13.197 4.99927C12.2891 3.42975 10.689 2.30876 8.81125 2.05451L8.5429 4.03642C9.78983 4.20526 10.8585 4.95089 11.4658 6.00073L13.197 4.99927ZM7.87774 3.64635C7.8885 3.66067 7.89952 3.67542 7.91078 3.69062L9.51765 2.49983C9.50363 2.48091 9.48987 2.46249 9.47641 2.44458L7.87774 3.64635ZM7.91078 3.69062C8.08782 3.92952 8.32511 4.27693 8.56237 4.7063L10.3129 3.73897C10.0247 3.21744 9.73653 2.79519 9.51765 2.49983L7.91078 3.69062ZM8.56237 4.7063C8.74717 5.04072 8.93228 5.42544 9.08866 5.84746L10.964 5.15254C10.7672 4.62134 10.5374 4.1453 10.3129 3.73897L8.56237 4.7063ZM7.18875 2.05451C5.31097 2.30876 3.71094 3.42975 2.80301 4.99927L4.53421 6.00073C5.14152 4.95089 6.21017 4.20526 7.4571 4.03642L7.18875 2.05451ZM3.66861 6.5H5.97365V4.5H3.66861V6.5ZM6.91134 5.84746C7.06772 5.42544 7.25283 5.04072 7.43763 4.7063L5.68712 3.73897C5.46258 4.1453 5.23279 4.62134 5.03595 5.15254L6.91134 5.84746ZM7.43763 4.7063C7.67489 4.27693 7.91218 3.92952 8.08922 3.69062L6.48235 2.49983C6.26347 2.79519 5.97532 3.21744 5.68712 3.73897L7.43763 4.7063ZM8.08922 3.69062C8.10048 3.67542 8.1115 3.66067 8.12226 3.64635L6.52359 2.44458C6.51013 2.46249 6.49637 2.48091 6.48235 2.49983L8.08922 3.69062ZM6.56237 4.22263C6.41381 4.49147 6.26583 4.78824 6.12957 5.10833L7.96978 5.89167C8.07633 5.64137 8.19347 5.40606 8.31288 5.18996L6.56237 4.22263ZM7.18602 3.23242C7.00402 3.48746 6.78327 3.82289 6.56237 4.22264L8.31288 5.18996C8.49071 4.86815 8.66871 4.59777 8.81398 4.39422L7.18602 3.23242ZM9.43763 4.22264C9.21673 3.82289 8.99598 3.48746 8.81398 3.23242L7.18602 4.39422C7.33129 4.59777 7.50929 4.86815 7.68712 5.18996L9.43763 4.22264ZM9.87043 5.10833C9.73417 4.78824 9.58619 4.49147 9.43763 4.22263L7.68712 5.18996C7.80653 5.40606 7.92367 5.64137 8.03022 5.89167L9.87043 5.10833ZM7.04968 6.5H8.95032V4.5H7.04968V6.5ZM3.22862 7.5H5.67398V5.5H3.22862V7.5ZM4 8C4 7.57872 4.06445 7.17614 4.18269 6.79958L2.27455 6.20042C2.09611 6.76869 2 7.37322 2 8H4ZM4.18269 9.20042C4.06445 8.82386 4 8.42128 4 8H2C2 8.62678 2.09611 9.23131 2.27455 9.79958L4.18269 9.20042ZM5.67398 8.5H3.22862V10.5H5.67398V8.5ZM6.64894 9.27764C6.55535 8.86728 6.5 8.43897 6.5 8H4.5C4.5 8.607 4.5765 9.18519 4.69901 9.72236L6.64894 9.27764ZM6.5 8C6.5 7.56103 6.55535 7.13272 6.64894 6.72236L4.69901 6.27764C4.5765 6.81481 4.5 7.393 4.5 8H6.5ZM8.95032 9.5H7.04968V11.5H8.95032V9.5ZM9.43763 11.7774C9.58619 11.5085 9.73417 11.2118 9.87043 10.8917L8.03022 10.1083C7.92367 10.3586 7.80653 10.5939 7.68712 10.81L9.43763 11.7774ZM8.81398 12.7676C8.99598 12.5125 9.21673 12.1771 9.43763 11.7774L7.68712 10.81C7.50929 11.1318 7.33129 11.4022 7.18602 11.6058L8.81398 12.7676ZM6.56237 11.7774C6.78327 12.1771 7.00401 12.5125 7.18602 12.7676L8.81398 11.6058C8.66871 11.4022 8.49071 11.1318 8.31288 10.81L6.56237 11.7774ZM6.12957 10.8917C6.26583 11.2118 6.41381 11.5085 6.56237 11.7774L8.31288 10.81C8.19347 10.5939 8.07633 10.3586 7.96978 10.1083L6.12957 10.8917Z" fill="#1D2129" mask="url(#path-1-inside-1_12757_47884)"/>
</svg>
