<svg width="24" height="24" viewBox="0 0 24 24" fill="none" xmlns="http://www.w3.org/2000/svg">
    <path d="M13.75 16.75H6.75C6.19772 16.75 5.75 16.3023 5.75 15.75V5.75C5.75 5.19772 6.19772 4.75 6.75 4.75H10.75H12.75H16.75C17.3023 4.75 17.75 5.19772 17.75 5.75V12.75"
          stroke="#A9AEB8" stroke-linecap="round"/>
    <path d="M16.25 5.75H12.5833H10.9167H7.25C6.97386 5.75 6.75 5.97386 6.75 6.25V15.25C6.75 15.5261 6.97386 15.75 7.25 15.75H13.4167H16.25C16.5261 15.75 16.75 15.5261 16.75 15.25V12.4167V6.25C16.75 5.97386 16.5261 5.75 16.25 5.75Z"
          fill="white"/>
    <path d="M17.738 17.4498L16.7796 19.9049L15.2481 14.4825L20.3222 16.9324L17.738 17.4498Z" fill="white"
          stroke="#A9AEB8" stroke-linecap="round" stroke-linejoin="round"/>
</svg>
