<svg width="16" height="16" viewBox="0 0 16 16" fill="none" xmlns="http://www.w3.org/2000/svg">
    <path d="M7.9998 10.5L2.66667 10.4997C2.48986 10.4997 2.32029 10.4339 2.19526 10.3167C2.07024 10.1995 2 10.0405 2 9.87473V6.50309V3.62787C2 3.46211 2.07024 3.30314 2.19526 3.18593C2.32029 3.06872 2.48986 3.00287 2.66667 3.00287L13.3293 3C13.5061 3 13.6757 3.06585 13.8007 3.18306C13.9257 3.30027 13.996 3.45924 13.996 3.625V9.87186C13.996 10.0376 13.9257 10.1966 13.8007 10.3138C13.6757 10.431 13.5061 10.4969 13.3293 10.4969L7.9998 10.5ZM7.9998 10.5L7.9998 13M7.9998 13H9.9998M7.9998 13H5.9998" stroke="#1D2129" stroke-linecap="round"/>
</svg>
