<svg width="16" height="16" viewBox="0 0 16 16" fill="none" xmlns="http://www.w3.org/2000/svg">
    <path d="M5 13V3M11 13V3M14 3.625C14 3.45924 13.9298 3.30027 13.8047 3.18306C13.6797 3.06585 13.5101 3 13.3333 3H2.66667C2.48986 3 2.32029 3.06585 2.19526 3.18306C2.07024 3.30027 2 3.45924 2 3.625V12.375C2 12.5408 2.07024 12.6997 2.19526 12.8169C2.32029 12.9342 2.48986 13 2.66667 13H13.3333C13.5101 13 13.6797 12.9342 13.8047 12.8169C13.9298 12.6997 14 12.5408 14 12.375V3.625Z" stroke="#1D2129"/>
</svg>
