<svg width="200" height="118" viewBox="0 0 200 118" fill="none" xmlns="http://www.w3.org/2000/svg">
    <path d="M99.9974 45.7527V170.753M64.5807 70.7527H45.8307M70.8307 95.7527H45.8307M183.331 139.503V38.9194C183.331 28.9194 175.164 21.5027 165.247 22.336H164.747C147.247 23.836 120.664 32.7527 105.831 42.086L104.414 43.0027C101.997 44.5027 97.9974 44.5027 95.5807 43.0027L93.4974 41.7527C78.6641 32.5027 52.1641 23.6694 34.6641 22.2527C24.7474 21.4194 16.6641 28.9194 16.6641 38.836V139.503C16.6641 147.503 23.1641 155.003 31.1641 156.003L33.5807 156.336C51.6641 158.753 79.5807 167.919 95.5807 176.669L95.9141 176.836C98.1641 178.086 101.747 178.086 103.914 176.836C119.914 168.003 147.914 158.753 166.081 156.336L168.831 156.003C176.831 155.003 183.331 147.503 183.331 139.503Z"
          stroke="url(#paint0_linear_2178_1793)" stroke-width="12" stroke-linecap="round" stroke-linejoin="round"/>
    <defs>
        <linearGradient id="paint0_linear_2178_1793" x1="99.9974" y1="22.1895" x2="99.9974" y2="177.774"
                        gradientUnits="userSpaceOnUse">
            <stop stop-color="#EFEFEF"/>
            <stop offset="1" stop-color="#F2F3F5" stop-opacity="0"/>
        </linearGradient>
    </defs>
</svg>
