<svg width="16" height="16" viewBox="0 0 16 16" fill="none" xmlns="http://www.w3.org/2000/svg">
<path fill-rule="evenodd" clip-rule="evenodd" d="M5 3.2503C5 3.44921 4.92099 3.63997 4.78033 3.78063C4.63968 3.92128 4.44892 4.0003 4.25 4.0003C4.05109 4.0003 3.86033 3.92128 3.71967 3.78063C3.57902 3.63997 3.5 3.44921 3.5 3.2503C3.5 3.05138 3.57902 2.86062 3.71967 2.71997C3.86033 2.57931 4.05109 2.5003 4.25 2.5003C4.44892 2.5003 4.63968 2.57931 4.78033 2.71997C4.92099 2.86062 5 3.05138 5 3.2503ZM5 5.3723C5.50042 5.19538 5.92217 4.84725 6.19073 4.38944C6.45929 3.93163 6.55735 3.39362 6.4676 2.8705C6.37785 2.34738 6.10605 1.87282 5.70025 1.53072C5.29445 1.18861 4.78077 1.00098 4.25 1.00098C3.71924 1.00098 3.20556 1.18861 2.79976 1.53072C2.39396 1.87282 2.12216 2.34738 2.03241 2.8705C1.94265 3.39362 2.04072 3.93163 2.30928 4.38944C2.57784 4.84725 2.99959 5.19538 3.5 5.3723V6.2503C3.5 6.84703 3.73706 7.41933 4.15901 7.84129C4.58097 8.26324 5.15327 8.5003 5.75 8.5003H7.25V10.6283C6.74932 10.8052 6.3273 11.1535 6.05855 11.6115C5.78981 12.0695 5.69164 12.6078 5.78139 13.1312C5.87115 13.6545 6.14306 14.1293 6.54905 14.4716C6.95504 14.8139 7.46897 15.0017 8 15.0017C8.53104 15.0017 9.04497 14.8139 9.45096 14.4716C9.85695 14.1293 10.1289 13.6545 10.2186 13.1312C10.3084 12.6078 10.2102 12.0695 9.94146 11.6115C9.67271 11.1535 9.25069 10.8052 8.75 10.6283V8.5003H10.25C10.8467 8.5003 11.419 8.26324 11.841 7.84129C12.263 7.41933 12.5 6.84703 12.5 6.2503V5.3723C13.0004 5.19538 13.4222 4.84725 13.6907 4.38944C13.9593 3.93163 14.0574 3.39362 13.9676 2.8705C13.8778 2.34738 13.6061 1.87282 13.2002 1.53072C12.7944 1.18861 12.2808 1.00098 11.75 1.00098C11.2192 1.00098 10.7056 1.18861 10.2998 1.53072C9.89396 1.87282 9.62216 2.34738 9.53241 2.8705C9.44265 3.39362 9.54072 3.93163 9.80928 4.38944C10.0778 4.84725 10.4996 5.19538 11 5.3723V6.2503C11 6.44921 10.921 6.63997 10.7803 6.78063C10.6397 6.92128 10.4489 7.0003 10.25 7.0003H5.75C5.55109 7.0003 5.36033 6.92128 5.21967 6.78063C5.07902 6.63997 5 6.44921 5 6.2503V5.3723ZM8.75 12.7503C8.75 12.9492 8.67099 13.14 8.53033 13.2806C8.38968 13.4213 8.19892 13.5003 8 13.5003C7.80109 13.5003 7.61033 13.4213 7.46967 13.2806C7.32902 13.14 7.25 12.9492 7.25 12.7503C7.25 12.5514 7.32902 12.3606 7.46967 12.22C7.61033 12.0793 7.80109 12.0003 8 12.0003C8.19892 12.0003 8.38968 12.0793 8.53033 12.22C8.67099 12.3606 8.75 12.5514 8.75 12.7503ZM11.75 4.0003C11.9489 4.0003 12.1397 3.92128 12.2803 3.78063C12.421 3.63997 12.5 3.44921 12.5 3.2503C12.5 3.05138 12.421 2.86062 12.2803 2.71997C12.1397 2.57931 11.9489 2.5003 11.75 2.5003C11.5511 2.5003 11.3603 2.57931 11.2197 2.71997C11.079 2.86062 11 3.05138 11 3.2503C11 3.44921 11.079 3.63997 11.2197 3.78063C11.3603 3.92128 11.5511 4.0003 11.75 4.0003Z" fill="currentColor"/>
</svg>
