<svg width="70" height="69" viewBox="0 0 70 69" fill="none" xmlns="http://www.w3.org/2000/svg">
<path d="M69.2071 7.29289C69.5976 7.68342 69.5976 8.31658 69.2071 8.70711L62.8431 15.0711C62.4526 15.4616 61.8195 15.4616 61.4289 15.0711C61.0384 14.6805 61.0384 14.0474 61.4289 13.6569L67.0858 8L61.4289 2.34315C61.0384 1.95262 61.0384 1.31946 61.4289 0.928932C61.8195 0.538408 62.4526 0.538408 62.8431 0.928932L69.2071 7.29289ZM68.5 9C67.8569 9 67.2136 9.00746 66.5704 9.02238L66.524 7.02292C67.1827 7.00764 67.8415 7 68.5 7V9ZM62.7148 9.20142C61.4309 9.29098 60.1494 9.41041 58.8721 9.55974L58.6399 7.57327C59.9482 7.42031 61.2608 7.29799 62.5757 7.20627L62.7148 9.20142ZM55.0508 10.0982C53.7802 10.3081 52.5161 10.548 51.2605 10.8181L50.84 8.8628C52.1273 8.58592 53.4229 8.33997 54.7248 8.12492L55.0508 10.0982ZM47.5114 11.7212C46.2672 12.0537 45.0338 12.4166 43.8131 12.81L43.1996 10.9065C44.4528 10.5026 45.7187 10.1301 46.995 9.78902L47.5114 11.7212ZM40.1765 14.0873C38.9737 14.5457 37.7859 15.035 36.6154 15.5553L35.8031 13.7277C37.0072 13.1925 38.2283 12.6894 39.4643 12.2184L40.1765 14.0873ZM33.1434 17.2162C31.9998 17.8037 30.8758 18.4226 29.7736 19.073L28.7572 17.3505C29.8936 16.6799 31.0518 16.0422 32.2296 15.4372L33.1434 17.2162ZM26.5229 21.1265C25.4598 21.8447 24.4211 22.5947 23.4087 23.3765L22.1863 21.7936C23.2327 20.9855 24.3058 20.2107 25.4033 19.4693L26.5229 21.1265ZM20.4486 25.8217C19.49 26.6685 18.56 27.5474 17.6609 28.4581L16.2376 27.053C17.1693 26.1094 18.1323 25.1993 19.1244 24.3228L20.4486 25.8217ZM15.0638 31.2797C14.2341 32.2476 13.4367 33.247 12.674 34.2782L11.0661 33.0888C11.8577 32.0187 12.6849 30.9817 13.5454 29.9779L15.0638 31.2797ZM10.5084 37.4397C9.82983 38.5122 9.18641 39.6153 8.58015 40.749L6.81649 39.8059C7.44586 38.6289 8.11383 37.4838 8.81828 36.3704L10.5084 37.4397ZM6.89717 44.1919C6.38258 45.3492 5.90467 46.5355 5.46532 47.7508L3.58446 47.0709C4.03999 45.8107 4.53571 44.5802 5.06969 43.3793L6.89717 44.1919ZM4.2875 51.4042C3.94218 52.6177 3.63357 53.8579 3.3633 55.1248L1.40731 54.7075C1.68684 53.3972 2.00623 52.1136 2.36387 50.8568L4.2875 51.4042ZM2.68432 58.9024C2.50073 60.1506 2.35291 61.4229 2.24229 62.7195L0.249527 62.5494C0.363564 61.2129 0.516037 59.9002 0.705605 58.6113L2.68432 58.9024ZM2.02666 66.5603C2.00894 67.2013 2 67.8479 2 68.5H0C0 67.8296 0.00918579 67.1646 0.02742 66.505L2.02666 66.5603Z" fill="#1D2129"/>
</svg>
