<svg width="76" height="72" viewBox="0 0 76 72" fill="none" xmlns="http://www.w3.org/2000/svg">
<g clip-path="url(#clip0_14910_20949)">
<path d="M72.2071 6.29289C72.5976 6.68342 72.5976 7.31658 72.2071 7.70711L65.8431 14.0711C65.4526 14.4616 64.8195 14.4616 64.4289 14.0711C64.0384 13.6805 64.0384 13.0474 64.4289 12.6569L70.0858 7L64.4289 1.34315C64.0384 0.952621 64.0384 0.319457 64.4289 -0.0710678C64.8195 -0.461592 65.4526 -0.461592 65.8431 -0.0710678L72.2071 6.29289ZM71.5 8C70.8569 8 70.2136 8.00746 69.5704 8.02238L69.524 6.02292C70.1827 6.00764 70.8415 6 71.5 6V8ZM65.7148 8.20142C64.4309 8.29098 63.1494 8.41041 61.8721 8.55974L61.6399 6.57327C62.9482 6.42031 64.2608 6.29799 65.5757 6.20627L65.7148 8.20142ZM58.0508 9.09818C56.7802 9.30805 55.5161 9.54801 54.2605 9.81808L53.84 7.8628C55.1273 7.58592 56.4229 7.33997 57.7248 7.12492L58.0508 9.09818ZM50.5114 10.7212C49.2672 11.0537 48.0338 11.4166 46.8131 11.81L46.1996 9.90646C47.4528 9.50255 48.7187 9.13009 49.995 8.78902L50.5114 10.7212ZM43.1765 13.0873C41.9737 13.5457 40.7859 14.035 39.6154 14.5553L38.8031 12.7277C40.0072 12.1925 41.2283 11.6894 42.4643 11.2184L43.1765 13.0873ZM36.1434 16.2162C34.9998 16.8037 33.8758 17.4226 32.7736 18.073L31.7572 16.3505C32.8936 15.6799 34.0518 15.0422 35.2296 14.4372L36.1434 16.2162ZM29.5229 20.1265C28.4598 20.8447 27.4211 21.5947 26.4087 22.3765L25.1863 20.7936C26.2327 19.9855 27.3058 19.2107 28.4033 18.4693L29.5229 20.1265ZM23.4486 24.8217C22.49 25.6685 21.56 26.5474 20.6609 27.4581L19.2376 26.053C20.1693 25.1094 21.1323 24.1993 22.1244 23.3228L23.4486 24.8217ZM18.0638 30.2797C17.2341 31.2476 16.4367 32.247 15.674 33.2782L14.0661 32.0888C14.8577 31.0187 15.6849 29.9817 16.5454 28.9779L18.0638 30.2797ZM13.5084 36.4397C12.8298 37.5122 12.1864 38.6153 11.5802 39.749L9.81649 38.8059C10.4459 37.6289 11.1138 36.4838 11.8183 35.3704L13.5084 36.4397ZM9.89717 43.1919C9.38258 44.3492 8.90467 45.5355 8.46532 46.7508L6.58446 46.0709C7.03999 44.8107 7.53571 43.5802 8.06969 42.3793L9.89717 43.1919ZM7.2875 50.4042C6.94218 51.6177 6.63357 52.8579 6.3633 54.1248L4.40731 53.7075C4.68684 52.3972 5.00623 51.1136 5.36387 49.8568L7.2875 50.4042ZM5.68432 57.9024C5.50073 59.1506 5.35291 60.4229 5.24229 61.7195L3.24953 61.5494C3.36356 60.2129 3.51604 58.9002 3.7056 57.6113L5.68432 57.9024ZM5.02666 65.5603C5.00894 66.2013 5 66.8479 5 67.5H3C3 66.8296 3.00919 66.1646 3.02742 65.505L5.02666 65.5603Z" fill="#1D2129"/>
</g>
<defs>
<clipPath id="clip0_14910_20949">
<rect width="76" height="72" fill="white"/>
</clipPath>
</defs>
</svg>
