<svg width="24" height="24" viewBox="0 0 24 24" fill="none" xmlns="http://www.w3.org/2000/svg">
    <path d="M9.131 21v-2.25H6.684c-1.359 0-1.63.068-1.63-1.598v-2.717c0-1.369-.948-2.261-2.72-2.34v-.18c1.772-.079 2.72-.981 2.72-2.34V6.848c0-1.666.271-1.598 1.63-1.598h2.447V3H6.216c-2.541 0-3.357.853-3.357 3.49v2.203c0 1.557-.74 2.28-2.859 2.132v2.36c2.119-.149 2.86.575 2.86 2.122v2.202c0 2.638.815 3.491 3.356 3.491H9.13zM17.785 21c2.54 0 3.356-.853 3.356-3.491v-2.202c0-1.547.74-2.27 2.859-2.122v-2.36c-2.119.149-2.86-.575-2.86-2.132V6.49C21.14 3.853 20.326 3 17.786 3H15v2.25h.947c1.36 0 3-.068 3 1.598v2.727c0 1.359.947 2.261 2.719 2.34v.18c-1.772.079-2.72.971-2.72 2.34v2.717c0 1.666-1.64 1.598-3 1.598H15V21h2.785z" fill="#C9CDD4"/>
    <path d="M7.5 13.5a1.5 1.5 0 1 0 0-3 1.5 1.5 0 0 0 0 3zM12 13.5a1.5 1.5 0 1 0 0-3 1.5 1.5 0 0 0 0 3zM16.5 13.5a1.5 1.5 0 1 0 0-3 1.5 1.5 0 0 0 0 3z" fill="#E5E6EB"/>
</svg>
