<svg width="17" height="16" viewBox="0 0 17 16" fill="none" xmlns="http://www.w3.org/2000/svg">
<path d="M5.5 13V3M11.5 13V3M14.5 3.625C14.5 3.45924 14.4298 3.30027 14.3047 3.18306C14.1797 3.06585 14.0101 3 13.8333 3H3.16667C2.98986 3 2.82029 3.06585 2.69526 3.18306C2.57024 3.30027 2.5 3.45924 2.5 3.625V12.375C2.5 12.5408 2.57024 12.6997 2.69526 12.8169C2.82029 12.9342 2.98986 13 3.16667 13H13.8333C14.0101 13 14.1797 12.9342 14.3047 12.8169C14.4298 12.6997 14.5 12.5408 14.5 12.375V3.625Z" stroke="#787E85"/>
</svg>
