<svg width="16" height="16" viewBox="0 0 16 16" fill="none" xmlns="http://www.w3.org/2000/svg">
    <path d="M5.50006 13.0002V3.00024M11.5001 13.0002V3.00024M14.5001 3.62524C14.5001 3.45948 14.4298 3.30051 14.3048 3.1833C14.1798 3.06609 14.0102 3.00024 13.8334 3.00024H3.16673C2.98992 3.00024 2.82035 3.06609 2.69532 3.1833C2.5703 3.30051 2.50006 3.45948 2.50006 3.62524V12.3752C2.50006 12.541 2.5703 12.7 2.69532 12.8172C2.82035 12.9344 2.98992 13.0002 3.16673 13.0002H13.8334C14.0102 13.0002 14.1798 12.9344 14.3048 12.8172C14.4298 12.7 14.5001 12.541 14.5001 12.3752V3.62524Z" stroke="currentColor"/>
</svg>
