<svg width="12" height="12" viewBox="0 0 12 12" fill="none" xmlns="http://www.w3.org/2000/svg">
<path fill-rule="evenodd" clip-rule="evenodd" d="M12 6C12 2.68629 9.31371 0 6 0C2.68629 0 0 2.68629 0 6C0 9.31371 2.68629 12 6 12C9.31371 12 12 9.31371 12 6ZM4.14645 4.14645C4.34171 3.95118 4.65829 3.95118 4.85355 4.14645L6 5.29289L7.14645 4.14645C7.34171 3.95118 7.65829 3.95118 7.85355 4.14645C8.04882 4.34171 8.04882 4.65829 7.85355 4.85355L6.70711 6L7.85355 7.14645C8.04881 7.34171 8.04881 7.65829 7.85355 7.85355C7.65829 8.04881 7.34171 8.04881 7.14645 7.85355L6 6.70711L4.85355 7.85355C4.65829 8.04881 4.34171 8.04881 4.14645 7.85355C3.95118 7.65829 3.95118 7.34171 4.14645 7.14645L5.29289 6L4.14645 4.85355C3.95118 4.65829 3.95118 4.34171 4.14645 4.14645Z" fill="#C9CDD4"/>
</svg>
