 <svg
  width="12"
  height="12"
  viewBox="0 0 12 12"
  fill="none"
  xmlns="http://www.w3.org/2000/svg"
>
  <path
    fill-rule="evenodd"
    clip-rule="evenodd"
    d="M4.5 2C4.5 1.44772 4.94772 1 5.5 1H6.5C7.05228 1 7.5 1.44772 7.5 2H10C10.5523 2 11 2.44772 11 3C11 3.55228 10.5523 4 10 4V10C10 10.5523 9.55228 11 9 11H3C2.44772 11 2 10.5523 2 10L2 4C1.44772 4 1 3.55228 1 3C1 2.44772 1.44772 2 2 2H4.5ZM3.99998 5.50016C3.99998 5.22402 4.22384 5.00016 4.49998 5.00016C4.77612 5.00016 4.99998 5.22402 4.99998 5.50016V8.50016C4.99998 8.77631 4.77612 9.00016 4.49998 9.00016C4.22384 9.00016 3.99998 8.77631 3.99998 8.50016V5.50016ZM6.99998 5.50016C6.99998 5.22402 7.22384 5.00016 7.49998 5.00016C7.77612 5.00016 7.99998 5.22402 7.99998 5.50016V8.50016C7.99998 8.77631 7.77612 9.00016 7.49998 9.00016C7.22384 9.00016 6.99998 8.77631 6.99998 8.50016V5.50016Z"
    fill="#A9AEB8"
  />
</svg>