<svg
  width="12"
  height="12"
  viewBox="0 0 12 12"
  fill="none"
  xmlns="http://www.w3.org/2000/svg"
>
  <path
    fill-rule="evenodd"
    clip-rule="evenodd"
    d="M5.90827 0.599609C4.60392 0.599609 3.353 1.08815 2.43069 1.95775C1.50838 2.82735 0.990234 4.00678 0.990234 5.23658C0.990234 6.46639 1.50838 7.64582 2.43069 8.51542C3.353 9.38502 4.60392 9.87356 5.90827 9.87356V11.4193C6.96803 10.8408 10.1755 8.89843 10.7249 6.16941L10.7334 6.12312C10.7573 5.9985 10.7803 5.87375 10.7943 5.74577C10.8149 5.57672 10.8255 5.40674 10.8263 5.23658C10.8263 4.00678 10.3082 2.82735 9.38584 1.95775C8.46353 1.08815 7.21261 0.599609 5.90827 0.599609ZM3.94141 4.11778C3.94141 3.84616 4.16159 3.62598 4.43321 3.62598H7.4496C7.72122 3.62598 7.94141 3.84616 7.94141 4.11778C7.94141 4.3894 7.72122 4.60958 7.4496 4.60958H4.43321C4.16159 4.60958 3.94141 4.3894 3.94141 4.11778ZM3.94141 6.11778C3.94141 5.84616 4.16159 5.62598 4.43321 5.62598H7.4496C7.72122 5.62598 7.94141 5.84616 7.94141 6.11778C7.94141 6.3894 7.72122 6.60958 7.4496 6.60958H4.43321C4.16159 6.60958 3.94141 6.3894 3.94141 6.11778Z"
    fill="#A9AEB8"
  />
</svg>