<svg width="14" height="14" viewBox="0 0 14 14" fill="none" xmlns="http://www.w3.org/2000/svg">
    <rect width="14" height="14" rx="2" fill="#E5E6EB"/>
    <path d="M5.307 6.93V4.66h1.9c.207 0 .4.013.58.04.187.02.35.07.49.15.14.08.25.193.33.34.08.147.12.347.12.6 0 .38-.12.667-.36.86-.233.187-.62.28-1.16.28h-1.9zm-.95-3.07V11h3.45c.353 0 .663-.057.93-.17.273-.12.5-.273.68-.46a1.92 1.92 0 0 0 .42-.66c.093-.247.14-.5.14-.76 0-.44-.117-.813-.35-1.12-.233-.307-.57-.507-1.01-.6v-.02c.34-.133.6-.337.78-.61.187-.28.28-.61.28-.99 0-.36-.083-.663-.25-.91a1.813 1.813 0 0 0-.59-.58 1.221 1.221 0 0 0-.39-.15 3.318 3.318 0 0 0-.48-.07 4.62 4.62 0 0 0-.53-.03c-.173-.007-.337-.01-.49-.01h-2.59zm.95 6.34V7.73h2.17c.2 0 .393.02.58.06.187.033.35.097.49.19a.956.956 0 0 1 .35.36c.087.153.13.347.13.58 0 .4-.12.713-.36.94-.233.227-.56.34-.98.34h-2.38z" fill="#787E85"/>
</svg>
