<svg width="16" height="16" viewBox="0 0 16 16" fill="none" xmlns="http://www.w3.org/2000/svg">
<path d="M8 2C9.05039 2 10.0824 2.27575 10.9928 2.79968C11.9032 3.32361 12.6601 4.07736 13.1878 4.98556C13.7155 5.89376 13.9956 6.92459 13.9999 7.97497C14.0043 9.02535 13.7329 10.0585 13.2128 10.9711C12.6926 11.8836 11.942 12.6437 11.0361 13.1752C10.1301 13.7067 9.10041 13.991 8.05006 13.9998C6.99971 14.0086 5.96545 13.7414 5.05072 13.2251C4.13599 12.7088 3.37282 11.9614 2.83754 11.0576L5.52202 9.46766C5.77896 9.90146 6.14527 10.2602 6.58435 10.5081C7.02342 10.7559 7.51986 10.8841 8.02403 10.8799C8.5282 10.8757 9.02243 10.7392 9.45731 10.4841C9.89218 10.229 10.2525 9.86414 10.5021 9.4261C10.7518 8.98807 10.8821 8.49217 10.88 7.98799C10.8779 7.4838 10.7434 6.98901 10.4901 6.55307C10.2368 6.11713 9.87352 5.75533 9.43653 5.50385C8.99954 5.25236 8.50419 5.12 8 5.12V2Z" fill="#0D6EFD" stroke="white"/>
<path d="M8 2C8.78793 2 9.56815 2.15519 10.2961 2.45672C11.0241 2.75825 11.6855 3.20021 12.2426 3.75736C12.7998 4.31451 13.2417 4.97595 13.5433 5.7039C13.8448 6.43185 14 7.21207 14 8L10.88 8C10.88 7.62179 10.8055 7.24729 10.6608 6.89787C10.516 6.54845 10.3039 6.23097 10.0365 5.96353C9.76903 5.6961 9.45155 5.48396 9.10213 5.33923C8.75271 5.19449 8.37821 5.12 8 5.12V2Z" fill="#0D6EFD" stroke="white"/>
<path d="M2.97549 11.2794C2.38436 10.3737 2.04904 9.32504 2.00498 8.24441C1.96092 7.16377 2.20978 6.09132 2.72522 5.14052C3.24065 4.18971 4.00351 3.3959 4.93307 2.84307C5.86264 2.29024 6.92435 1.99894 8.00588 2L8.00282 5.12C7.48369 5.11949 6.97407 5.25931 6.52787 5.52467C6.08168 5.79003 5.71551 6.17106 5.4681 6.62745C5.22069 7.08384 5.10124 7.59861 5.12239 8.11732C5.14354 8.63602 5.30449 9.13936 5.58823 9.5741L2.97549 11.2794Z" fill="#14DDD9" stroke="white"/>
</svg>
