<svg width="16" height="16" viewBox="0 0 16 16" fill="none" xmlns="http://www.w3.org/2000/svg">
<path d="M8 2C9.05039 2 10.0824 2.27575 10.9928 2.79968C11.9032 3.32361 12.6601 4.07736 13.1878 4.98556C13.7155 5.89376 13.9956 6.92459 13.9999 7.97497C14.0043 9.02535 13.7329 10.0585 13.2128 10.9711C12.6926 11.8836 11.942 12.6437 11.0361 13.1752C10.1301 13.7067 9.10041 13.991 8.05006 13.9998C6.99971 14.0086 5.96545 13.7414 5.05072 13.2251C4.13599 12.7088 3.37282 11.9614 2.83754 11.0576L8 8V2Z" fill="#0D6EFD" stroke="white"/>
<path d="M8 2C8.78793 2 9.56815 2.15519 10.2961 2.45672C11.0241 2.75825 11.6855 3.20021 12.2426 3.75736C12.7998 4.31451 13.2417 4.97595 13.5433 5.7039C13.8448 6.43185 14 7.21207 14 8L8 8V2Z" fill="#0D6EFD" stroke="white"/>
<path d="M2.97549 11.2794C2.38436 10.3737 2.04904 9.32504 2.00498 8.24441C1.96092 7.16377 2.20978 6.09132 2.72522 5.14052C3.24065 4.18971 4.00351 3.3959 4.93307 2.84307C5.86264 2.29024 6.92435 1.99894 8.00588 2L8 8L2.97549 11.2794Z" fill="#14DDD9" stroke="white"/>
</svg>
