<svg width="16" height="16" viewBox="0 0 16 16" fill="none" xmlns="http://www.w3.org/2000/svg">
<path d="M8 3L12.7553 6.45492L10.9389 12.0451H5.06107L3.24472 6.45492L8 3Z" fill="#14DDD9" fill-opacity="0.3"/>
<path d="M8 5L10.8532 7.07295L9.76336 10.4271H6.23664L5.14683 7.07295L8 5Z" fill="#14DDD9" fill-opacity="0.9"/>
<path fill-rule="evenodd" clip-rule="evenodd" d="M7.95003 3.03633V7.9315L3.27256 6.43471L3.24475 6.45492L3.27227 6.53961L7.91788 8.02621L5.01353 11.8987L5.05132 12.015L8.00003 8.08333L10.9487 12.015L10.9865 11.8987L8.08219 8.02621L12.7278 6.53961L12.7553 6.45492L12.7275 6.43471L8.05003 7.9315V3.03633L8.00003 3L7.95003 3.03633Z" fill="#25DFDB"/>
</svg>
