<svg width="32" height="40" viewBox="0 0 32 40" fill="none" xmlns="http://www.w3.org/2000/svg">
<path d="M4 10C4 8.89543 4.89543 8 6 8H16.5C17.1295 8 17.7223 8.29639 18.1 8.8L18.4 9.2C18.7777 9.70361 19.3705 10 20 10H26C27.1046 10 28 10.8954 28 12V26C28 27.1046 27.1046 28 26 28H6C4.89543 28 4 27.1046 4 26V10Z" fill="#8263FF"/>
<rect x="8" y="13" width="16" height="13" rx="1" fill="white"/>
<g filter="url(#filter0_d_6936_3435)">
<rect x="7" y="16" width="18" height="13" rx="1" fill="white"/>
</g>
<g filter="url(#filter1_d_6936_3435)">
<path d="M2.35448 21.3041C2.16809 20.0926 3.10545 19 4.33122 19H27.6688C28.8945 19 29.8319 20.0926 29.6455 21.3041L28.2609 30.3041C28.1108 31.2798 27.2713 32 26.2842 32H5.71584C4.72869 32 3.8892 31.2798 3.73909 30.3041L2.35448 21.3041Z" fill="url(#paint0_linear_6936_3435)"/>
</g>
<path fill-rule="evenodd" clip-rule="evenodd" d="M15.5 22C15.5 21.4477 15.0523 21 14.5 21H12.5C11.9477 21 11.5 21.4477 11.5 22V24C11.5 24.5523 11.9477 25 12.5 25H14.5C15.0523 25 15.5 24.5523 15.5 24V22ZM15.5 27C15.5 26.4477 15.0523 26 14.5 26H12.5C11.9477 26 11.5 26.4477 11.5 27V29C11.5 29.5523 11.9477 30 12.5 30H14.5C15.0523 30 15.5 29.5523 15.5 29V27ZM16.5 22C16.5 21.4477 16.9477 21 17.5 21H19.5C20.0523 21 20.5 21.4477 20.5 22V24C20.5 24.5523 20.0523 25 19.5 25H17.5C16.9477 25 16.5 24.5523 16.5 24V22ZM20.5 27C20.5 26.4477 20.0523 26 19.5 26H17.5C16.9477 26 16.5 26.4477 16.5 27V29C16.5 29.5523 16.9477 30 17.5 30H19.5C20.0523 30 20.5 29.5523 20.5 29V27Z" fill="url(#paint1_linear_6936_3435)" fill-opacity="0.5"/>
<defs>
<filter id="filter0_d_6936_3435" x="5" y="13" width="22" height="17" filterUnits="userSpaceOnUse" color-interpolation-filters="sRGB">
<feFlood flood-opacity="0" result="BackgroundImageFix"/>
<feColorMatrix in="SourceAlpha" type="matrix" values="0 0 0 0 0 0 0 0 0 0 0 0 0 0 0 0 0 0 127 0" result="hardAlpha"/>
<feOffset dy="-1"/>
<feGaussianBlur stdDeviation="1"/>
<feColorMatrix type="matrix" values="0 0 0 0 0 0 0 0 0 0 0 0 0 0 0 0 0 0 0.08 0"/>
<feBlend mode="normal" in2="BackgroundImageFix" result="effect1_dropShadow_6936_3435"/>
<feBlend mode="normal" in="SourceGraphic" in2="effect1_dropShadow_6936_3435" result="shape"/>
</filter>
<filter id="filter1_d_6936_3435" x="0.330811" y="16" width="31.3384" height="17" filterUnits="userSpaceOnUse" color-interpolation-filters="sRGB">
<feFlood flood-opacity="0" result="BackgroundImageFix"/>
<feColorMatrix in="SourceAlpha" type="matrix" values="0 0 0 0 0 0 0 0 0 0 0 0 0 0 0 0 0 0 127 0" result="hardAlpha"/>
<feOffset dy="-1"/>
<feGaussianBlur stdDeviation="1"/>
<feComposite in2="hardAlpha" operator="out"/>
<feColorMatrix type="matrix" values="0 0 0 0 0 0 0 0 0 0 0 0 0 0 0 0 0 0 0.08 0"/>
<feBlend mode="normal" in2="BackgroundImageFix" result="effect1_dropShadow_6936_3435"/>
<feBlend mode="normal" in="SourceGraphic" in2="effect1_dropShadow_6936_3435" result="shape"/>
</filter>
<linearGradient id="paint0_linear_6936_3435" x1="30" y1="19" x2="2" y2="32" gradientUnits="userSpaceOnUse">
<stop stop-color="#7C79FF"/>
<stop offset="1" stop-color="#6F2CFF"/>
</linearGradient>
<linearGradient id="paint1_linear_6936_3435" x1="16" y1="21" x2="16" y2="30" gradientUnits="userSpaceOnUse">
<stop stop-color="white"/>
<stop offset="1" stop-color="white" stop-opacity="0.3"/>
</linearGradient>
</defs>
</svg>
