<svg width="16" height="16" viewBox="0 0 16 16" fill="none" xmlns="http://www.w3.org/2000/svg">
<path fill-rule="evenodd" clip-rule="evenodd" d="M8.14493 3.16661C8.0073 3.33437 7.93201 3.54463 7.93188 3.76163V5.3392V5.80869V10.3169C7.51745 10.1371 7.03635 10.0342 6.52336 10.0342C4.96834 10.0342 3.7063 10.9797 3.7063 12.147C3.7063 13.3143 4.96834 14.2598 6.52336 14.2598C7.97261 14.2598 9.16739 13.4385 9.3232 12.3818H9.34041V12.147V5.52698L12.627 4.86967V3.19822C12.6269 3.05934 12.596 2.92222 12.5365 2.79672C12.4771 2.67122 12.3905 2.56047 12.2831 2.47246C12.1757 2.38444 12.0501 2.32134 11.9154 2.28771C11.7806 2.25408 11.6401 2.25076 11.5039 2.27798L8.68685 2.84139C8.47406 2.88392 8.28257 2.99884 8.14493 3.16661Z" fill="black"/>
</svg>
