<svg width="16" height="16" viewBox="0 0 16 16" fill="none" xmlns="http://www.w3.org/2000/svg">
<path d="M12.2492 8.96591C11.5477 8.97869 10.8494 9.0649 10.1659 9.22313C9.32349 8.38387 8.62476 7.41187 8.09764 6.34598C8.67027 4.34525 8.69588 2.98117 8.26873 2.33521C8.17343 2.19536 8.04653 2.07991 7.89832 1.99822C7.7501 1.91653 7.58473 1.87089 7.41559 1.865C7.2047 1.84739 6.99338 1.89343 6.80893 1.99717C6.62448 2.10091 6.47538 2.25758 6.38089 2.44694C5.78382 3.5154 6.64626 5.63601 7.0478 6.4938C6.59582 8.02563 6.00684 9.51366 5.288 10.9399C2.09428 12.4134 2 13.3084 2 13.6308C2.01164 14.0288 2.22929 14.385 2.56332 14.5526C2.70889 14.6521 2.88305 14.7012 3.05914 14.6923C3.91228 14.6923 4.85154 13.6867 5.88624 11.722C7.15488 11.1424 8.4759 10.6861 9.83184 10.3579C10.5069 10.9829 11.374 11.3624 12.2923 11.4357C12.8556 11.4357 13.9997 11.4357 13.9997 10.2101C14.009 9.7946 13.7786 9.00199 12.2492 8.96474V8.96591ZM3.1185 13.668H3.01608C3.29658 13.2048 3.71442 12.8417 4.2114 12.6252C3.97763 13.088 3.59173 13.4562 3.1185 13.668ZM7.20144 2.98001C7.24529 2.96326 7.29377 2.96326 7.33761 2.98001H7.44004C7.61608 3.58233 7.61608 4.22245 7.44004 4.82478C7.1743 4.24856 7.09105 3.60487 7.20144 2.98001ZM8.91003 9.93194C8.14186 10.1263 7.38533 10.3661 6.64626 10.6524V10.5779H6.57759C6.94655 9.7818 7.28058 8.9694 7.57854 8.1442V8.06971C7.96262 8.7017 8.4049 9.28831 8.90072 9.82137H8.80761L8.91003 9.9331V9.93194ZM12.3261 10.4033C11.9778 10.3888 11.6356 10.3074 11.3181 10.1636C11.5986 10.1042 11.8861 10.0786 12.1724 10.0902C12.83 10.0902 12.9674 10.2648 12.9674 10.3754C12.7564 10.4377 12.5334 10.4473 12.3179 10.4033H12.3261Z" fill="black"/>
</svg>
