<svg width="16" height="16" viewBox="0 0 16 16" fill="none" xmlns="http://www.w3.org/2000/svg">
<path d="M2 4C2 3.44772 2.44772 3 3 3H8.25C8.56476 3 8.86115 3.14819 9.05 3.4L9.2 3.6C9.38885 3.85181 9.68524 4 10 4H13C13.5523 4 14 4.44772 14 5V12C14 12.5523 13.5523 13 13 13H3C2.44772 13 2 12.5523 2 12V4Z" fill="#FFD401"/>
<g filter="url(#filter0_d_5647_3546)">
<path d="M2 6C2 5.44772 2.44772 5 3 5H13C13.5523 5 14 5.44772 14 6V12C14 12.5523 13.5523 13 13 13H3C2.44772 13 2 12.5523 2 12V6Z" fill="url(#paint0_linear_5647_3546)"/>
</g>
<rect x="9" y="5" width="1" height="1" fill="white"/>
<rect x="9" y="7" width="1" height="1" fill="white"/>
<rect x="9" y="9" width="1" height="1" fill="white"/>
<rect x="9" y="11" width="1" height="1" fill="white"/>
<rect x="10" y="6" width="1" height="1" fill="white"/>
<rect x="10" y="8" width="1" height="1" fill="white"/>
<rect x="10" y="10" width="1" height="1" fill="white"/>
<rect x="10" y="12" width="1" height="1" fill="white"/>
<defs>
<filter id="filter0_d_5647_3546" x="1" y="3.5" width="14" height="10" filterUnits="userSpaceOnUse" color-interpolation-filters="sRGB">
<feFlood flood-opacity="0" result="BackgroundImageFix"/>
<feColorMatrix in="SourceAlpha" type="matrix" values="0 0 0 0 0 0 0 0 0 0 0 0 0 0 0 0 0 0 127 0" result="hardAlpha"/>
<feOffset dy="-0.5"/>
<feGaussianBlur stdDeviation="0.5"/>
<feComposite in2="hardAlpha" operator="out"/>
<feColorMatrix type="matrix" values="0 0 0 0 0 0 0 0 0 0 0 0 0 0 0 0 0 0 0.08 0"/>
<feBlend mode="normal" in2="BackgroundImageFix" result="effect1_dropShadow_5647_3546"/>
<feBlend mode="normal" in="SourceGraphic" in2="effect1_dropShadow_5647_3546" result="shape"/>
</filter>
<linearGradient id="paint0_linear_5647_3546" x1="14" y1="5" x2="0.793956" y2="9.27007" gradientUnits="userSpaceOnUse">
<stop stop-color="#FFD600"/>
<stop offset="1" stop-color="#FFC700"/>
</linearGradient>
</defs>
</svg>
