<svg width="49" height="48" viewBox="0 0 49 48" fill="none" xmlns="http://www.w3.org/2000/svg">
    <path d="m15.5 17 4 4M28.5 17l4 4M19.5 17l-4 4M32.5 17l-4 4" stroke="#BBC0C9" stroke-width="1.5" stroke-linecap="round" stroke-linejoin="round"/>
    <path d="M17.924 29.52a.75.75 0 0 0 1.152.96l-1.152-.96zm12 .96a.75.75 0 0 0 1.152-.96l-1.152.96zM18.5 30l.576.48v.001l.002-.003.016-.019.073-.081a9.657 9.657 0 0 1 1.453-1.265c.994-.702 2.343-1.363 3.88-1.363v-1.5c-1.963 0-3.614.84-4.745 1.637a11.144 11.144 0 0 0-1.694 1.477 6.225 6.225 0 0 0-.097.11c-.012.012-.02.023-.028.03l-.008.01a.052.052 0 0 0-.002.004h-.001v.001L18.5 30zm6-2.25c1.537 0 2.886.66 3.88 1.363a9.657 9.657 0 0 1 1.453 1.265l.073.081.016.019a.128.128 0 0 1 .003.003L30.5 30l.576-.48v-.001l-.002-.001-.002-.003-.008-.01-.028-.032a9.142 9.142 0 0 0-.459-.48c-.31-.302-.762-.704-1.332-1.106-1.13-.798-2.782-1.637-4.745-1.637v1.5z" fill="#BBC0C9"/>
    <path clip-rule="evenodd" d="M24.5 44c11.046 0 20-8.954 20-20s-8.954-20-20-20-20 8.954-20 20 8.954 20 20 20z" stroke="#BBC0C9" stroke-width="1.5" stroke-linejoin="round"/>
</svg>
