<svg width="24" height="24" viewBox="0 0 24 24" fill="none" xmlns="http://www.w3.org/2000/svg">
<path fill-rule="evenodd" clip-rule="evenodd" d="M0 0H3V3H0V0ZM6 3H3V6H0V9H3V12H0V15H3V18H0V21H3V24H6V21H9V24H12V21H15V24H18V21H21V24H24V21H21V18H24V15H21V12H24V9H21V6H24V3H21V0H18V3H15V0H12V3H9V0H6V3ZM6 6V3H9V6H6ZM6 9V6H3V9H6ZM9 9V6H12V9H9ZM9 12V9H6V12H3V15H6V18H3V21H6V18H9V21H12V18H15V21H18V18H21V15H18V12H21V9H18V6H21V3H18V6H15V3H12V6H15V9H12V12H9ZM9 15V18H12V15H15V18H18V15H15V12H18V9H15V12H12V15H9ZM9 15H6V12H9V15Z" fill="#E6E6E6"/>
</svg>
