<svg width="10" height="8" viewBox="0 0 10 8" fill="none" xmlns="http://www.w3.org/2000/svg">
<path d="M4.70811 1.12662C4.74552 1.08666 4.79075 1.0548 4.84097 1.03302C4.8912 1.01124 4.94536 1 5.00011 1C5.05485 1 5.10902 1.01124 5.15924 1.03302C5.20947 1.0548 5.25469 1.08666 5.29211 1.12662L7.83011 3.83462C8.07011 4.08982 7.88851 4.50782 7.53811 4.50782L2.46251 4.50782C2.11211 4.50782 1.93051 4.08982 2.17051 3.83422L4.70811 1.12662ZM2 5.4C2 5.29391 2.04214 5.19217 2.11716 5.11716C2.19217 5.04214 2.29391 5 2.4 5L7.6 5C7.70609 5 7.80783 5.04214 7.88284 5.11716C7.95786 5.19217 8 5.29391 8 5.4V5.6C8 5.70609 7.95786 5.80783 7.88284 5.88284C7.80783 5.95786 7.70609 6 7.6 6L2.4 6C2.29391 6 2.19217 5.95786 2.11716 5.88284C2.04214 5.80783 2 5.70609 2 5.6V5.4Z" fill="#654AEC"/>
</svg>
