<svg width="60" height="60" viewBox="0 0 60 60" fill="none" xmlns="http://www.w3.org/2000/svg">
    <path d="M50.625 10.95C51.1223 10.95 51.5992 11.1475 51.9508 11.4991C52.3025 11.8508 52.5 12.3277 52.5 12.825V40.95H7.5V12.825C7.5 12.3277 7.69754 11.8508 8.04918 11.4991C8.40081 11.1475 8.87772 10.95 9.375 10.95H50.625ZM9.375 7.19995C7.88316 7.19995 6.45242 7.79258 5.39752 8.84748C4.34263 9.90237 3.75 11.3331 3.75 12.825V44.7H56.25V12.825C56.25 11.3331 55.6574 9.90237 54.6025 8.84748C53.5476 7.79258 52.1168 7.19995 50.625 7.19995H9.375ZM0 46.575H60C60 48.0668 59.4074 49.4975 58.3525 50.5524C57.2976 51.6073 55.8668 52.2 54.375 52.2H5.625C4.13316 52.2 2.70242 51.6073 1.64752 50.5524C0.592632 49.4975 0 48.0668 0 46.575H0Z" fill="#1D2129"/>
</svg>
