<svg width="13" height="14" viewBox="0 0 13 14" fill="none" xmlns="http://www.w3.org/2000/svg">
<g clip-path="url(#clip0_8522_20319)">
<path d="M11.7089 5.47745C11.8452 5.06805 11.8925 4.63425 11.8476 4.20509C11.8027 3.77593 11.6667 3.36131 11.4485 2.989C11.1252 2.42585 10.6313 1.97998 10.0381 1.71573C9.44496 1.45149 8.78317 1.38252 8.14826 1.5188C7.86188 1.19605 7.50986 0.938209 7.11577 0.762518C6.72167 0.586828 6.29459 0.497345 5.86312 0.50006C5.21397 0.498493 4.5811 0.703114 4.05574 1.08442C3.53038 1.46573 3.13969 2.00402 2.93998 2.62169C2.5171 2.70825 2.11758 2.88415 1.76819 3.13762C1.41879 3.39109 1.12757 3.71628 0.914021 4.09141C0.588106 4.653 0.448986 5.30359 0.516726 5.94936C0.584466 6.59513 0.855564 7.20269 1.29092 7.68443C1.1546 8.09383 1.10732 8.52763 1.15222 8.95679C1.19713 9.38595 1.33319 9.80057 1.5513 10.1729C1.87466 10.736 2.36856 11.1819 2.96172 11.4461C3.55489 11.7103 4.21667 11.7793 4.85158 11.6431C5.13796 11.9658 5.48998 12.2237 5.88407 12.3994C6.27817 12.5751 6.70525 12.6645 7.13672 12.6618C7.78618 12.6635 8.41938 12.4588 8.94495 12.0773C9.47052 11.6957 9.86127 11.157 10.0608 10.539C10.4837 10.4524 10.8832 10.2765 11.2326 10.0231C11.582 9.76959 11.8732 9.44441 12.0868 9.06928C12.4123 8.50772 12.5511 7.85731 12.4832 7.21179C12.4153 6.56627 12.1442 5.95898 11.7089 5.47745ZM7.13768 11.8668C6.60455 11.8675 6.08814 11.6808 5.67875 11.3393C5.69721 11.3292 5.72958 11.3115 5.75067 11.2986L8.17224 9.8998C8.23302 9.86522 8.28349 9.81508 8.31846 9.75452C8.35344 9.69397 8.37165 9.6252 8.37124 9.55527V6.14134L9.39477 6.73235C9.40014 6.73502 9.40476 6.73899 9.40823 6.74388C9.41171 6.74877 9.41391 6.75445 9.41467 6.7604V9.58764C9.41391 10.1915 9.17383 10.7704 8.74704 11.1976C8.32025 11.6248 7.74154 11.8654 7.13768 11.8668ZM2.24085 9.77537C1.9738 9.31396 1.87756 8.77332 1.96896 8.2481C1.98694 8.25889 2.01835 8.27807 2.04089 8.29102L4.46245 9.68977C4.5228 9.72504 4.59143 9.74362 4.66133 9.74362C4.73123 9.74362 4.79986 9.72504 4.86021 9.68977L7.81667 7.98269V9.1647C7.81701 9.17074 7.81586 9.17676 7.8133 9.18224C7.81075 9.18772 7.80689 9.19248 7.80205 9.19611L5.35411 10.6095C4.8305 10.911 4.20865 10.9926 3.62499 10.8362C3.04134 10.6798 2.54355 10.2983 2.24085 9.77537ZM1.60381 4.48893C1.86969 4.0269 2.28965 3.67314 2.79013 3.48961C2.79013 3.51047 2.78893 3.54739 2.78893 3.57305V6.37055C2.78851 6.44042 2.8067 6.50914 2.84163 6.56965C2.87656 6.63016 2.92698 6.68027 2.98769 6.71485L5.94416 8.42169L4.92063 9.01269C4.91558 9.01602 4.90978 9.01804 4.90376 9.01859C4.89773 9.01913 4.89167 9.01818 4.8861 9.01581L2.43793 7.60123C1.91524 7.29853 1.5339 6.80092 1.37754 6.2175C1.22118 5.63407 1.30255 5.01245 1.60381 4.48893ZM10.0131 6.44584L7.05664 4.73875L8.08017 4.14799C8.08522 4.14466 8.09102 4.14264 8.09704 4.1421C8.10306 4.14155 8.10913 4.14251 8.11469 4.14487L10.5629 5.55825C10.9379 5.7749 11.2435 6.09392 11.4438 6.47796C11.6441 6.862 11.7309 7.29515 11.694 7.72672C11.657 8.15828 11.4979 8.57038 11.2352 8.91477C10.9725 9.25916 10.6171 9.52158 10.2107 9.67131C10.2107 9.65021 10.2107 9.61329 10.2107 9.58764V6.79013C10.2112 6.72038 10.1932 6.65173 10.1585 6.59122C10.1238 6.53072 10.0736 6.48054 10.0131 6.44584ZM11.0318 4.91258C11.0139 4.90155 10.9824 4.88261 10.9599 4.86966L8.53835 3.47091C8.47799 3.43569 8.40935 3.41713 8.33947 3.41713C8.26958 3.41713 8.20095 3.43569 8.14059 3.47091L5.18412 5.17799V3.99598C5.18379 3.98995 5.18494 3.98392 5.18749 3.97844C5.19005 3.97296 5.19391 3.9682 5.19875 3.96457L7.64669 2.55239C8.02171 2.33615 8.45055 2.23117 8.88306 2.24974C9.31556 2.2683 9.73383 2.40965 10.0889 2.65724C10.4441 2.90483 10.7213 3.24842 10.8883 3.64782C11.0553 4.04722 11.1051 4.48592 11.0318 4.91258ZM4.62764 7.01934L3.60387 6.42833C3.5985 6.42566 3.59388 6.4217 3.59041 6.4168C3.58694 6.41191 3.58473 6.40624 3.58397 6.40028V3.57305C3.58425 3.14002 3.70788 2.71604 3.94037 2.35072C4.17286 1.9854 4.5046 1.69387 4.89676 1.51024C5.28892 1.32661 5.72527 1.25849 6.15474 1.31384C6.58421 1.3692 6.98903 1.54574 7.32181 1.82281C7.30335 1.83288 7.27122 1.85062 7.24989 1.86357L4.82832 3.26232C4.76756 3.29686 4.7171 3.34696 4.68212 3.40747C4.64715 3.46799 4.62892 3.53672 4.62932 3.60661L4.62764 7.01934ZM5.18364 5.82055L6.5004 5.06003L7.81715 5.82007V7.34062L6.5004 8.10065L5.18364 7.34062V5.82055Z" fill="white"/>
</g>
<defs>
<clipPath id="clip0_8522_20319">
<rect width="12" height="13" fill="white" transform="translate(0.5 0.5)"/>
</clipPath>
</defs>
</svg>
