<svg width="16" height="16" viewBox="0 0 16 16" fill="none" xmlns="http://www.w3.org/2000/svg">
    <path fill-rule="evenodd" clip-rule="evenodd" d="M2.3 13C2.13432 13 2 12.8657 2 12.7L2 12.3C2 12.1343 2.13431 12 2.3 12L13.7 12C13.8657 12 14 12.1343 14 12.3L14 12.7C14 12.8657 13.8657 13 13.7 13L2.3 13ZM2.4 10C2.17909 10 2 9.82091 2 9.6L2 8.4C2 8.17909 2.17909 8 2.4 8L13.6 8C13.8209 8 14 8.17909 14 8.4L14 9.6C14 9.82091 13.8209 10 13.6 10L2.4 10ZM2 5.5C2 5.77614 2.22386 6 2.5 6L13.5 6C13.7761 6 14 5.77614 14 5.5L14 3.5C14 3.22386 13.7761 3 13.5 3L2.5 3C2.22386 3 2 3.22386 2 3.5L2 5.5Z" fill="#1D2129"/>
</svg>
