<svg width="24" height="24" viewBox="0 0 24 24" fill="none" xmlns="http://www.w3.org/2000/svg">
    <path fill-rule="evenodd" clip-rule="evenodd" d="M6.3 17C6.13432 17 6 16.8657 6 16.7L6 16.3C6 16.1343 6.13431 16 6.3 16L17.7 16C17.8657 16 18 16.1343 18 16.3L18 16.7C18 16.8657 17.8657 17 17.7 17L6.3 17ZM6.4 14C6.17909 14 6 13.8209 6 13.6L6 12.4C6 12.1791 6.17909 12 6.4 12L17.6 12C17.8209 12 18 12.1791 18 12.4L18 13.6C18 13.8209 17.8209 14 17.6 14L6.4 14ZM6 9.5C6 9.77614 6.22386 10 6.5 10L17.5 10C17.7761 10 18 9.77614 18 9.5L18 7.5C18 7.22386 17.7761 7 17.5 7L6.5 7C6.22386 7 6 7.22386 6 7.5L6 9.5Z" fill="#1D2129"/>
</svg>
