<svg width="16" height="16" viewBox="0 0 16 16" fill="none" xmlns="http://www.w3.org/2000/svg">
    <path fill-rule="evenodd" clip-rule="evenodd" d="M2.07654 3H9.92438L10 4.99433H9.55827C9.31942 3.7423 8.85833 3.54862 7.07481 3.49838L6.67735 3.48784V11.8306C6.67735 12.3679 6.81014 12.4951 7.88173 12.5786V13H4.11735V12.5786C5.1834 12.4951 5.3162 12.3679 5.3162 11.8306V3.48784L4.92519 3.49838C3.14075 3.54862 2.6815 3.7423 2.44173 4.99352H2L2.07654 3ZM9.04784 7.55556H13.9527L14 8.85363H13.7239C13.5746 8.03871 13.2865 7.91264 12.1718 7.87994L11.9233 7.87308V12.2389C11.9233 12.5886 12.0063 12.6714 12.6761 12.7257V13H10.3233V12.7257C10.9896 12.6714 11.0726 12.5886 11.0726 12.2389V7.87308L10.8282 7.87994C9.71297 7.91264 9.42594 8.03871 9.27608 8.8531H9L9.04784 7.55556Z" fill="#1D2129"/>
    <path d="M9.92438 3L10.0243 2.99621L10.0207 2.9H9.92438V3ZM2.07654 3V2.9H1.98031L1.97662 2.99616L2.07654 3ZM10 4.99433V5.09433H10.1039L10.0999 4.99054L10 4.99433ZM9.55827 4.99433L9.46004 5.01307L9.47554 5.09433H9.55827V4.99433ZM7.07481 3.49838L7.07763 3.39842L7.07746 3.39841L7.07481 3.49838ZM6.67735 3.48784L6.68 3.38788L6.57735 3.38516V3.48784H6.67735ZM7.88173 12.5786H7.98173V12.4861L7.88949 12.4789L7.88173 12.5786ZM7.88173 13V13.1H7.98173V13H7.88173ZM4.11735 13H4.01735V13.1H4.11735V13ZM4.11735 12.5786L4.10954 12.4789L4.01735 12.4861V12.5786H4.11735ZM5.3162 3.48784H5.4162V3.38511L5.3135 3.38788L5.3162 3.48784ZM4.92519 3.49838L4.92249 3.39842L4.92237 3.39842L4.92519 3.49838ZM2.44173 4.99352V5.09352H2.52439L2.53994 5.01234L2.44173 4.99352ZM2 4.99352L1.90007 4.98968L1.89609 5.09352H2V4.99352ZM13.9527 7.55556L14.0527 7.55192L14.0492 7.45556H13.9527V7.55556ZM9.04784 7.55556V7.45556H8.95146L8.94791 7.55187L9.04784 7.55556ZM14 8.85363V8.95363H14.1037L14.0999 8.84999L14 8.85363ZM13.7239 8.85363L13.6256 8.87165L13.6406 8.95363H13.7239V8.85363ZM12.1718 7.87994L12.1747 7.77998L12.1745 7.77998L12.1718 7.87994ZM11.9233 7.87308L11.9261 7.77312L11.8233 7.77029V7.87308H11.9233ZM12.6761 12.7257H12.7761V12.6335L12.6842 12.626L12.6761 12.7257ZM12.6761 13V13.1H12.7761V13H12.6761ZM10.3233 13H10.2233V13.1H10.3233V13ZM10.3233 12.7257L10.3152 12.6261L10.2233 12.6335V12.7257H10.3233ZM11.0726 7.87308H11.1726V7.77024L11.0698 7.77312L11.0726 7.87308ZM10.8282 7.87994L10.8254 7.77998L10.8253 7.77998L10.8282 7.87994ZM9.27608 8.8531V8.9531H9.35936L9.37443 8.8712L9.27608 8.8531ZM9 8.8531L8.90007 8.84942L8.89625 8.9531H9V8.8531ZM9.92438 2.9H2.07654V3.1H9.92438V2.9ZM10.0999 4.99054L10.0243 2.99621L9.82445 3.00379L9.90007 4.99812L10.0999 4.99054ZM9.55827 5.09433H10V4.89433H9.55827V5.09433ZM7.072 3.59834C7.51705 3.61088 7.87529 3.63229 8.16681 3.67614C8.45842 3.72 8.67708 3.78548 8.84602 3.88242C9.17495 4.07116 9.34214 4.39501 9.46004 5.01307L9.6565 4.97559C9.53556 4.34162 9.35277 3.94261 8.94556 3.70895C8.74644 3.59469 8.50048 3.52408 8.19656 3.47836C7.89255 3.43264 7.52434 3.411 7.07763 3.39842L7.072 3.59834ZM6.6747 3.58781L7.07216 3.59834L7.07746 3.39841L6.68 3.38788L6.6747 3.58781ZM6.77735 11.8306V3.48784H6.57735V11.8306H6.77735ZM7.88949 12.4789C7.6226 12.4581 7.41804 12.4349 7.26075 12.404C7.10257 12.3729 7.00021 12.3355 6.93246 12.2911C6.81228 12.2125 6.77735 12.0968 6.77735 11.8306H6.57735C6.57735 12.1017 6.60881 12.3183 6.82293 12.4585C6.92233 12.5235 7.05409 12.5672 7.22219 12.6002C7.39118 12.6334 7.60507 12.6574 7.87396 12.6783L7.88949 12.4789ZM7.98173 13V12.5786H7.78173V13H7.98173ZM4.11735 13.1H7.88173V12.9H4.11735V13.1ZM4.01735 12.5786V13H4.21735V12.5786H4.01735ZM5.2162 11.8306C5.2162 12.0968 5.18124 12.2126 5.06162 12.2912C4.99423 12.3355 4.89241 12.3729 4.73504 12.404C4.57855 12.4349 4.37505 12.4581 4.10954 12.4789L4.12515 12.6783C4.39267 12.6574 4.60554 12.6334 4.77378 12.6002C4.94114 12.5671 5.0724 12.5235 5.17147 12.4584C5.38475 12.3182 5.4162 12.1017 5.4162 11.8306H5.2162ZM5.2162 3.48784V11.8306H5.4162V3.48784H5.2162ZM4.92788 3.59834L5.31889 3.58781L5.3135 3.38788L4.92249 3.39842L4.92788 3.59834ZM2.53994 5.01234C2.65832 4.39461 2.82527 4.07096 3.15398 3.88232C3.32281 3.78543 3.54135 3.71997 3.83293 3.67613C4.12442 3.63229 4.48272 3.61088 4.928 3.59834L4.92237 3.39842C4.47543 3.411 4.10717 3.43264 3.80318 3.47835C3.49929 3.52405 3.25345 3.59464 3.05443 3.70885C2.64746 3.94241 2.46491 4.34121 2.34352 4.9747L2.53994 5.01234ZM2 5.09352H2.44173V4.89352H2V5.09352ZM1.97662 2.99616L1.90007 4.98968L2.09993 4.99735L2.17647 3.00384L1.97662 2.99616ZM13.9527 7.45556H9.04784V7.65556H13.9527V7.45556ZM14.0999 8.84999L14.0527 7.55192L13.8528 7.55919L13.9001 8.85727L14.0999 8.84999ZM13.7239 8.95363H14V8.75363H13.7239V8.95363ZM12.1688 7.9799C12.4466 7.98805 12.6685 8.00194 12.8481 8.03007C13.0277 8.05821 13.1589 8.09972 13.2586 8.15929C13.4499 8.27361 13.5522 8.47104 13.6256 8.87165L13.8223 8.83561C13.7464 8.4213 13.6299 8.14823 13.3612 7.98761C13.2308 7.90972 13.0716 7.86265 12.879 7.83248C12.6864 7.80232 12.4542 7.78819 12.1747 7.77998L12.1688 7.9799ZM11.9206 7.97305L12.169 7.9799L12.1745 7.77998L11.9261 7.77312L11.9206 7.97305ZM12.0233 12.2389V7.87308H11.8233V12.2389H12.0233ZM12.6842 12.626C12.5178 12.6126 12.3919 12.5976 12.296 12.5779C12.1993 12.5581 12.1411 12.5351 12.1049 12.5104C12.0463 12.4705 12.0233 12.4124 12.0233 12.2389H11.8233C11.8233 12.4151 11.8419 12.5732 11.9922 12.6757C12.0605 12.7222 12.1487 12.7519 12.2559 12.7739C12.3639 12.796 12.4995 12.8117 12.668 12.8254L12.6842 12.626ZM12.7761 13V12.7257H12.5761V13H12.7761ZM10.3233 13.1H12.6761V12.9H10.3233V13.1ZM10.2233 12.7257V13H10.4233V12.7257H10.2233ZM10.9726 12.2389C10.9726 12.4124 10.9497 12.4706 10.8914 12.5105C10.8553 12.5352 10.7976 12.5582 10.7014 12.578C10.606 12.5976 10.4807 12.6126 10.3152 12.6261L10.3315 12.8254C10.4991 12.8117 10.6341 12.796 10.7416 12.7739C10.8484 12.7519 10.9363 12.7221 11.0043 12.6756C11.1541 12.5731 11.1726 12.4151 11.1726 12.2389H10.9726ZM10.9726 7.87308V12.2389H11.1726V7.87308H10.9726ZM10.831 7.9799L11.0754 7.97305L11.0698 7.77312L10.8254 7.77998L10.831 7.9799ZM9.37443 8.8712C9.44811 8.47078 9.55026 8.27348 9.74143 8.15922C9.84105 8.09969 9.97215 8.05819 10.1518 8.03007C10.3313 8.00194 10.5532 7.98805 10.8312 7.9799L10.8253 7.77998C10.5456 7.78819 10.3134 7.80232 10.1208 7.83247C9.92825 7.86263 9.76911 7.90968 9.63883 7.98755C9.3702 8.1481 9.25391 8.42103 9.17773 8.835L9.37443 8.8712ZM9 8.9531H9.27608V8.7531H9V8.9531ZM8.94791 7.55187L8.90007 8.84942L9.09993 8.85679L9.14777 7.55924L8.94791 7.55187Z" fill="#1D2129"/>
</svg>
