<svg width="72" height="54" viewBox="0 0 72 54" fill="none" xmlns="http://www.w3.org/2000/svg">
    <rect x="16" y="11" width="40" height="32" rx="4" fill="white"/>
    <rect x="30" y="34" width="14" height="12" rx="1" transform="rotate(-90 30 34)" fill="#A9AEB8"/>
    <g clip-path="url(#clip0_11076_1293)">
        <path fill-rule="evenodd" clip-rule="evenodd"
              d="M36.0209 24.1659C35.9427 24.2612 35.9 24.3806 35.8999 24.5039V25.3999V25.6666V28.2272C35.6645 28.1251 35.3913 28.0667 35.1 28.0667C34.2168 28.0667 33.5 28.6037 33.5 29.2667C33.5 29.9297 34.2168 30.4667 35.1 30.4667C35.9232 30.4667 36.6018 30.0001 36.6902 29.3999H36.6999V29.28L36.7 29.2667L36.6999 29.2533V25.5066L38.5666 25.1332V24.1839C38.5665 24.105 38.549 24.0271 38.5152 23.9559C38.4814 23.8846 38.4323 23.8217 38.3713 23.7717C38.3103 23.7217 38.2389 23.6859 38.1624 23.6668C38.0859 23.6477 38.006 23.6458 37.9287 23.6612L36.3287 23.9812C36.2078 24.0054 36.0991 24.0707 36.0209 24.1659Z"
              fill="white"/>
    </g>
    <defs>
        <clipPath id="clip0_11076_1293">
            <rect width="6" height="8" fill="white" transform="translate(33 23)"/>
        </clipPath>
    </defs>
</svg>
