<svg width="73" height="54" viewBox="0 0 73 54" fill="none" xmlns="http://www.w3.org/2000/svg">
    <rect x="16.5" y="17" width="40" height="20" rx="4" fill="#A9AEB8"/>
    <path d="M24.884 26.744v-1.816h1.52c.165 0 .32.01.464.032.15.016.28.056.392.12.112.064.2.155.264.272.064.117.096.277.096.48 0 .304-.096.533-.288.688-.187.15-.496.224-.928.224h-1.52zm-.76-2.456V30h2.76c.283 0 .53-.045.744-.136.219-.096.4-.219.544-.368.15-.155.261-.33.336-.528.075-.197.112-.4.112-.608 0-.352-.093-.65-.28-.896-.187-.245-.456-.405-.808-.48v-.016c.272-.107.48-.27.624-.488.15-.224.224-.488.224-.792 0-.288-.067-.53-.2-.728a1.45 1.45 0 0 0-.472-.464.978.978 0 0 0-.312-.12 2.653 2.653 0 0 0-.384-.056 3.697 3.697 0 0 0-.424-.024c-.139-.005-.27-.008-.392-.008h-2.072zm.76 5.072v-1.976h1.736c.16 0 .315.016.464.048.15.027.28.077.392.152.117.07.21.165.28.288.07.123.104.277.104.464 0 .32-.096.57-.288.752-.187.181-.448.272-.784.272h-1.904zm8.029.64v-4.136h-.68V28.2c0 .187-.027.36-.08.52-.048.155-.123.29-.224.408-.102.117-.23.208-.384.272-.15.064-.328.096-.536.096-.262 0-.467-.075-.616-.224-.15-.15-.224-.352-.224-.608v-2.8h-.68v2.72c0 .224.02.43.064.616a1.2 1.2 0 0 0 .24.472c.112.133.258.237.44.312.18.07.408.104.68.104.304 0 .568-.059.792-.176.224-.123.408-.312.552-.568h.016V30h.64zm1.965-4.136v-1.24h-.68v1.24h-.704v.6h.704v2.632c0 .192.019.347.056.464a.579.579 0 0 0 .168.272c.08.064.181.11.304.136.128.021.28.032.456.032h.52v-.6h-.312c-.107 0-.195-.003-.264-.008a.362.362 0 0 1-.152-.056.217.217 0 0 1-.08-.112.918.918 0 0 1-.016-.192v-2.568h.824v-.6h-.824zm2.523 0v-1.24h-.68v1.24h-.704v.6h.704v2.632c0 .192.019.347.056.464a.579.579 0 0 0 .168.272c.08.064.182.11.304.136.128.021.28.032.456.032h.52v-.6h-.312c-.106 0-.194-.003-.264-.008a.362.362 0 0 1-.152-.056.218.218 0 0 1-.08-.112.918.918 0 0 1-.016-.192v-2.568h.824v-.6h-.824zm2.076 2.072c0-.25.032-.472.096-.664.07-.197.162-.363.28-.496a1.185 1.185 0 0 1 .912-.408 1.2 1.2 0 0 1 .496.104c.16.07.298.17.416.304.117.133.208.299.272.496.07.192.104.413.104.664 0 .25-.035.475-.104.672a1.397 1.397 0 0 1-.272.488 1.212 1.212 0 0 1-.416.296 1.255 1.255 0 0 1-1 0 1.232 1.232 0 0 1-.408-.296 1.499 1.499 0 0 1-.28-.488 2.174 2.174 0 0 1-.096-.672zm-.72 0c0 .304.042.587.128.848.085.261.213.49.384.688.17.192.381.344.632.456.25.107.538.16.864.16.33 0 .618-.053.864-.16.25-.112.461-.264.632-.456a1.98 1.98 0 0 0 .384-.688c.085-.261.128-.544.128-.848 0-.304-.043-.587-.128-.848a1.887 1.887 0 0 0-.384-.688 1.787 1.787 0 0 0-.632-.464 2.064 2.064 0 0 0-.864-.168c-.326 0-.614.056-.864.168-.25.112-.462.267-.632.464-.17.192-.299.421-.384.688a2.715 2.715 0 0 0-.128.848zm4.818-2.072V30h.68v-2.336c0-.187.023-.357.072-.512.053-.16.13-.299.232-.416a1.02 1.02 0 0 1 .376-.272c.154-.064.335-.096.543-.096.262 0 .467.075.616.224.15.15.224.352.224.608V30h.68v-2.72c0-.224-.023-.427-.072-.608a1.122 1.122 0 0 0-.232-.48 1.119 1.119 0 0 0-.44-.312 1.794 1.794 0 0 0-.68-.112c-.613 0-1.06.25-1.343.752h-.017v-.656h-.64z" fill="#fff"/>
</svg>
