<svg width="73" height="54" viewBox="0 0 73 54" fill="none" xmlns="http://www.w3.org/2000/svg">
<rect x="17" y="17.5" width="39" height="19" rx="3.5" fill="#EADEFF" stroke="#654AEC"/>
<path d="M24.884 26.744V24.928H26.404C26.5693 24.928 26.724 24.9387 26.868 24.96C27.0173 24.976 27.148 25.016 27.26 25.08C27.372 25.144 27.46 25.2347 27.524 25.352C27.588 25.4693 27.62 25.6293 27.62 25.832C27.62 26.136 27.524 26.3653 27.332 26.52C27.1453 26.6693 26.836 26.744 26.404 26.744H24.884ZM24.124 24.288V30H26.884C27.1667 30 27.4147 29.9547 27.628 29.864C27.8467 29.768 28.028 29.6453 28.172 29.496C28.3213 29.3413 28.4333 29.1653 28.508 28.968C28.5827 28.7707 28.62 28.568 28.62 28.36C28.62 28.008 28.5267 27.7093 28.34 27.464C28.1533 27.2187 27.884 27.0587 27.532 26.984V26.968C27.804 26.8613 28.012 26.6987 28.156 26.48C28.3053 26.256 28.38 25.992 28.38 25.688C28.38 25.4 28.3133 25.1573 28.18 24.96C28.052 24.7627 27.8947 24.608 27.708 24.496C27.6227 24.4427 27.5187 24.4027 27.396 24.376C27.2787 24.3493 27.1507 24.3307 27.012 24.32C26.8733 24.304 26.732 24.296 26.588 24.296C26.4493 24.2907 26.3187 24.288 26.196 24.288H24.124ZM24.884 29.36V27.384H26.62C26.78 27.384 26.9347 27.4 27.084 27.432C27.2333 27.4587 27.364 27.5093 27.476 27.584C27.5933 27.6533 27.6867 27.7493 27.756 27.872C27.8253 27.9947 27.86 28.1493 27.86 28.336C27.86 28.656 27.764 28.9067 27.572 29.088C27.3853 29.2693 27.124 29.36 26.788 29.36H24.884ZM32.9126 30V25.864H32.2326V28.2C32.2326 28.3867 32.2059 28.56 32.1526 28.72C32.1046 28.8747 32.0299 29.0107 31.9286 29.128C31.8272 29.2453 31.6992 29.336 31.5446 29.4C31.3952 29.464 31.2166 29.496 31.0086 29.496C30.7472 29.496 30.5419 29.4213 30.3926 29.272C30.2432 29.1227 30.1686 28.92 30.1686 28.664V25.864H29.4886V28.584C29.4886 28.808 29.5099 29.0133 29.5526 29.2C29.6006 29.3813 29.6806 29.5387 29.7926 29.672C29.9046 29.8053 30.0512 29.9093 30.2326 29.984C30.4139 30.0533 30.6406 30.088 30.9126 30.088C31.2166 30.088 31.4806 30.0293 31.7046 29.912C31.9286 29.7893 32.1126 29.6 32.2566 29.344H32.2726V30H32.9126ZM34.8779 25.864V24.624H34.1979V25.864H33.4939V26.464H34.1979V29.096C34.1979 29.288 34.2165 29.4427 34.2539 29.56C34.2912 29.6773 34.3472 29.768 34.4219 29.832C34.5019 29.896 34.6032 29.9413 34.7259 29.968C34.8539 29.9893 35.0059 30 35.1819 30H35.7019V29.4H35.3899C35.2832 29.4 35.1952 29.3973 35.1259 29.392C35.0619 29.3813 35.0112 29.3627 34.9739 29.336C34.9365 29.3093 34.9099 29.272 34.8939 29.224C34.8832 29.176 34.8779 29.112 34.8779 29.032V26.464H35.7019V25.864H34.8779ZM37.4013 25.864V24.624H36.7213V25.864H36.0173V26.464H36.7213V29.096C36.7213 29.288 36.74 29.4427 36.7773 29.56C36.8146 29.6773 36.8706 29.768 36.9453 29.832C37.0253 29.896 37.1266 29.9413 37.2493 29.968C37.3773 29.9893 37.5293 30 37.7053 30H38.2253V29.4H37.9133C37.8066 29.4 37.7186 29.3973 37.6493 29.392C37.5853 29.3813 37.5346 29.3627 37.4973 29.336C37.46 29.3093 37.4333 29.272 37.4173 29.224C37.4066 29.176 37.4013 29.112 37.4013 29.032V26.464H38.2253V25.864H37.4013ZM39.4768 27.936C39.4768 27.6853 39.5088 27.464 39.5728 27.272C39.6421 27.0747 39.7354 26.9093 39.8528 26.776C39.9701 26.6427 40.1061 26.5413 40.2608 26.472C40.4208 26.4027 40.5888 26.368 40.7648 26.368C40.9408 26.368 41.1061 26.4027 41.2608 26.472C41.4208 26.5413 41.5594 26.6427 41.6768 26.776C41.7941 26.9093 41.8848 27.0747 41.9488 27.272C42.0181 27.464 42.0528 27.6853 42.0528 27.936C42.0528 28.1867 42.0181 28.4107 41.9488 28.608C41.8848 28.8 41.7941 28.9627 41.6768 29.096C41.5594 29.224 41.4208 29.3227 41.2608 29.392C41.1061 29.4613 40.9408 29.496 40.7648 29.496C40.5888 29.496 40.4208 29.4613 40.2608 29.392C40.1061 29.3227 39.9701 29.224 39.8528 29.096C39.7354 28.9627 39.6421 28.8 39.5728 28.608C39.5088 28.4107 39.4768 28.1867 39.4768 27.936ZM38.7568 27.936C38.7568 28.24 38.7994 28.5227 38.8848 28.784C38.9701 29.0453 39.0981 29.2747 39.2688 29.472C39.4394 29.664 39.6501 29.816 39.9008 29.928C40.1514 30.0347 40.4394 30.088 40.7648 30.088C41.0954 30.088 41.3834 30.0347 41.6288 29.928C41.8794 29.816 42.0901 29.664 42.2608 29.472C42.4314 29.2747 42.5594 29.0453 42.6448 28.784C42.7301 28.5227 42.7728 28.24 42.7728 27.936C42.7728 27.632 42.7301 27.3493 42.6448 27.088C42.5594 26.8213 42.4314 26.592 42.2608 26.4C42.0901 26.2027 41.8794 26.048 41.6288 25.936C41.3834 25.824 41.0954 25.768 40.7648 25.768C40.4394 25.768 40.1514 25.824 39.9008 25.936C39.6501 26.048 39.4394 26.2027 39.2688 26.4C39.0981 26.592 38.9701 26.8213 38.8848 27.088C38.7994 27.3493 38.7568 27.632 38.7568 27.936ZM43.5745 25.864V30H44.2545V27.664C44.2545 27.4773 44.2785 27.3067 44.3265 27.152C44.3798 26.992 44.4572 26.8533 44.5585 26.736C44.6598 26.6187 44.7852 26.528 44.9345 26.464C45.0892 26.4 45.2705 26.368 45.4785 26.368C45.7398 26.368 45.9452 26.4427 46.0945 26.592C46.2438 26.7413 46.3185 26.944 46.3185 27.2V30H46.9985V27.28C46.9985 27.056 46.9745 26.8533 46.9265 26.672C46.8838 26.4853 46.8065 26.3253 46.6945 26.192C46.5825 26.0587 46.4358 25.9547 46.2545 25.88C46.0732 25.8053 45.8465 25.768 45.5745 25.768C44.9612 25.768 44.5132 26.0187 44.2305 26.52H44.2145V25.864H43.5745Z" fill="#654AEC"/>
</svg>
