<svg width="72" height="54" viewBox="0 0 72 54" fill="none" xmlns="http://www.w3.org/2000/svg">
<mask id="path-1-inside-1_19085_2149" fill="white">
<path fill-rule="evenodd" clip-rule="evenodd" d="M25.7523 17C28.1317 13.9565 31.8374 12 36 12C40.1626 12 43.8683 13.9565 46.2477 17H51C53.2091 17 55 18.7909 55 21V37C55 39.2091 53.2091 41 51 41H21C18.7909 41 17 39.2091 17 37V21C17 18.7909 18.7909 17 21 17H25.7523Z"/>
</mask>
<path fill-rule="evenodd" clip-rule="evenodd" d="M25.7523 17C28.1317 13.9565 31.8374 12 36 12C40.1626 12 43.8683 13.9565 46.2477 17H51C53.2091 17 55 18.7909 55 21V37C55 39.2091 53.2091 41 51 41H21C18.7909 41 17 39.2091 17 37V21C17 18.7909 18.7909 17 21 17H25.7523Z" fill="white"/>
<path d="M25.7523 17V18H26.2399L26.5401 17.6159L25.7523 17ZM46.2477 17L45.4599 17.6159L45.7601 18H46.2477V17ZM26.5401 17.6159C28.7381 14.8043 32.1581 13 36 13V11C31.5166 11 27.5252 13.1086 24.9645 16.3841L26.5401 17.6159ZM36 13C39.8419 13 43.2619 14.8043 45.4599 17.6159L47.0355 16.3841C44.4748 13.1086 40.4834 11 36 11V13ZM46.2477 18H51V16H46.2477V18ZM51 18C52.6569 18 54 19.3431 54 21H56C56 18.2386 53.7614 16 51 16V18ZM54 21V37H56V21H54ZM54 37C54 38.6569 52.6569 40 51 40V42C53.7614 42 56 39.7614 56 37H54ZM51 40H21V42H51V40ZM21 40C19.3431 40 18 38.6569 18 37H16C16 39.7614 18.2386 42 21 42V40ZM18 37V21H16V37H18ZM18 21C18 19.3431 19.3431 18 21 18V16C18.2386 16 16 18.2386 16 21H18ZM21 18H25.7523V16H21V18Z" fill="#A9AEB8" mask="url(#path-1-inside-1_19085_2149)"/>
<circle cx="36" cy="27" r="7.5" stroke="#A9AEB8"/>
<circle cx="49.5" cy="21.5" r="1.5" fill="#A9AEB8"/>
</svg>
