<svg width="72" height="54" viewBox="0 0 72 54" fill="none" xmlns="http://www.w3.org/2000/svg">
<rect x="12.5" y="13.5" width="47" height="27" rx="3.5" fill="white" stroke="#A9AEB8"/>
<path d="M24.6499 33.6877L29.6676 27.4155C29.8477 27.1903 30.1805 27.1638 30.394 27.3576L34.9014 31.4478C35.14 31.6644 35.5181 31.602 35.6745 31.3202L40.9381 21.8384C41.1343 21.485 41.647 21.4984 41.8245 21.8616L47.6484 33.7805C47.8107 34.1127 47.5689 34.5 47.1992 34.5H25.0403C24.6211 34.5 24.388 34.015 24.6499 33.6877Z" fill="#A9AEB8"/>
<circle cx="29.9448" cy="22.875" r="1.875" fill="#A9AEB8"/>
<path fill-rule="evenodd" clip-rule="evenodd" d="M19.5997 24.1797C19.8111 24.4074 19.7979 24.7633 19.5703 24.9747L17.3892 27L19.5703 29.0253C19.7979 29.2367 19.8111 29.5926 19.5997 29.8203C19.3883 30.0479 19.0324 30.0611 18.8047 29.8497L16.1797 27.4122C16.0651 27.3058 16 27.1564 16 27C16 26.8436 16.0651 26.6942 16.1797 26.5878L18.8047 24.1503C19.0324 23.9389 19.3883 23.9521 19.5997 24.1797Z" fill="#A9AEB8"/>
<path fill-rule="evenodd" clip-rule="evenodd" d="M52.4003 29.8203C52.1889 29.5926 52.2021 29.2367 52.4297 29.0253L54.6108 27L52.4297 24.9747C52.2021 24.7633 52.1889 24.4074 52.4003 24.1797C52.6117 23.9521 52.9676 23.9389 53.1953 24.1503L55.8203 26.5878C55.9349 26.6942 56 26.8436 56 27C56 27.1564 55.9349 27.3058 55.8203 27.4122L53.1953 29.8497C52.9676 30.0611 52.6117 30.0479 52.4003 29.8203Z" fill="#A9AEB8"/>
</svg>
