<svg width="72" height="54" viewBox="0 0 72 54" fill="none" xmlns="http://www.w3.org/2000/svg">
    <rect x="12.5" y="17.5" width="47" height="19" rx="3.5" fill="#fff" stroke="#A9AEB8"/>
    <path d="M40.5 27h-8" stroke="#A9AEB8"/>
    <path fill-rule="evenodd" clip-rule="evenodd" d="M53.75 27a3.75 3.75 0 1 1-7.5 0 3.75 3.75 0 0 1 7.5 0zM50 32a5 5 0 1 0 0-10 5 5 0 0 0 0 10zm.625-7.083a.625.625 0 1 0-1.25 0v2.342l.183.183 1.25 1.25a.625.625 0 1 0 .884-.884l-1.067-1.067v-1.824zM20.125 22.5a.375.375 0 0 0-.375.375v.375h-1.5a.75.75 0 0 0-.75.75v6.75c0 .414.336.75.75.75h7.5a.75.75 0 0 0 .75-.75V24a.75.75 0 0 0-.75-.75h-1.5v-.375a.375.375 0 0 0-.375-.375H23.5a.375.375 0 0 0-.375.375v.375h-2.25v-.375a.375.375 0 0 0-.375-.375h-.375zm-1.5 1.875h1.125v.375c0 .207.168.375.375.375h.375a.375.375 0 0 0 .375-.375v-.375h2.25v.375c0 .207.168.375.375.375h.375a.375.375 0 0 0 .375-.375v-.375h1.125v1.5h-6.75v-1.5zm0 2.625v3.375h6.75V27h-6.75z" fill="#A9AEB8"/>
</svg>
