<svg width="72" height="54" viewBox="0 0 72 54" fill="none" xmlns="http://www.w3.org/2000/svg">
<g clip-path="url(#clip0_13484_1394)">
<path d="M22.7857 16C22.7857 15.1716 23.4573 14.5 24.2857 14.5H36.7143C37.1864 14.5 37.631 14.7223 37.9143 15.1L38.4286 15.7857C38.9007 16.4152 39.6417 16.7857 40.4286 16.7857H47.7143C48.5422 16.7857 49.2143 17.4584 49.2143 18.2873V34.8555C49.2143 35.6845 48.5422 36.3571 47.7143 36.3571H24.2857C23.4573 36.3571 22.7857 35.6856 22.7857 34.8571V16Z" fill="white" stroke="#A9AEB8"/>
<rect x="25.7143" y="19.8572" width="20.5714" height="14.8571" rx="1.14286" fill="#E5E6EB"/>
<path d="M20.8487 27.7995C20.7089 26.8909 21.4119 26.0714 22.3312 26.0714H49.6688C50.5881 26.0714 51.2911 26.8909 51.1513 27.7995L49.481 38.6566C49.3684 39.3884 48.7388 39.9286 47.9984 39.9286H24.0016C23.2612 39.9286 22.6316 39.3884 22.519 38.6566L20.8487 27.7995Z" fill="white" stroke="#A9AEB8"/>
</g>
<defs>
<clipPath id="clip0_13484_1394">
<rect width="32" height="27.4286" fill="white" transform="translate(20 13)"/>
</clipPath>
</defs>
</svg>
