<svg width="72" height="54" viewBox="0 0 72 54" fill="none" xmlns="http://www.w3.org/2000/svg">
    <rect x="12.5" y="15.5" width="47" height="23" rx="3.5" fill="#fff"/>
    <path d="M16 21h25M16 25h25M16 29l40 .002M16 33.001l40 .001" stroke="#E5E6EB" stroke-linecap="round"/>
    <rect x="12.5" y="15.5" width="47" height="23" rx="3.5" stroke="#A9AEB8"/>
    <rect x="48" y="19" width="8" height="8" rx="1.6" fill="#A9AEB8"/>
    <rect x="48" y="19" width="8" height="8" rx="1.6" fill="#A9AEB8"/>
    <path fill-rule="evenodd" clip-rule="evenodd" d="M55.05 19.758a.35.35 0 0 0-.383.08l-3.535 3.535a.35.35 0 0 0 .495.495l3.535-3.535a.35.35 0 0 0-.111-.575zm-5.302-.023c-.561 0-1.016.455-1.016 1.017v4.5c0 .561.455 1.016 1.016 1.016h4.5c.562 0 1.017-.455 1.017-1.016v-2.75a.35.35 0 1 0-.7 0v2.75a.317.317 0 0 1-.317.316h-4.5a.317.317 0 0 1-.316-.316v-4.5a.317.317 0 0 1 .316-.317h2.667a.35.35 0 0 0 0-.7h-2.667z" fill="#fff"/>
</svg>
