<svg width="72" height="54" viewBox="0 0 72 54" fill="none" xmlns="http://www.w3.org/2000/svg">
<path d="M47.222 25.0094C47.4172 24.8141 47.7338 24.8141 47.9291 25.0094L50.1092 27.1895L52.2267 25.0719C52.422 24.8766 52.7386 24.8766 52.9339 25.0719L53.2874 25.4254C53.4827 25.6207 53.4827 25.9373 53.2874 26.1325L50.459 28.961C50.2637 29.1562 49.9471 29.1562 49.7519 28.961L49.3983 28.6074C49.3808 28.5899 49.3649 28.5714 49.3505 28.5521L46.8684 26.0701C46.6732 25.8748 46.6732 25.5582 46.8684 25.363L47.222 25.0094Z" fill="#A9AEB8"/>
<rect x="14.5" y="10.5" width="43" height="33" rx="3.5" fill="white" stroke="#A9AEB8"/>
<path d="M17 14C17 13.4477 17.4477 13 18 13H27C27.5523 13 28 13.4477 28 14V20C28 20.5523 27.5523 21 27 21H18C17.4477 21 17 20.5523 17 20V14Z" fill="#F2F3F5"/>
<path d="M17 24C17 23.4477 17.4477 23 18 23H27C27.5523 23 28 23.4477 28 24V30C28 30.5523 27.5523 31 27 31H18C17.4477 31 17 30.5523 17 30V24Z" fill="#F2F3F5"/>
<path d="M17 34C17 33.4477 17.4477 33 18 33H27C27.5523 33 28 33.4477 28 34V40C28 40.5523 27.5523 41 27 41H18C17.4477 41 17 40.5523 17 40V34Z" fill="#F2F3F5"/>
<path d="M30 14C30 13.4477 30.4477 13 31 13H41C41.5523 13 42 13.4477 42 14V20C42 20.5523 41.5523 21 41 21H31C30.4477 21 30 20.5523 30 20V14Z" fill="#F2F3F5"/>
<path d="M30 24C30 23.4477 30.4477 23 31 23H41C41.5523 23 42 23.4477 42 24V30C42 30.5523 41.5523 31 41 31H31C30.4477 31 30 30.5523 30 30V24Z" fill="#F2F3F5"/>
<path d="M30 34C30 33.4477 30.4477 33 31 33H41C41.5523 33 42 33.4477 42 34V40C42 40.5523 41.5523 41 41 41H31C30.4477 41 30 40.5523 30 40V34Z" fill="#F2F3F5"/>
<path d="M44 14C44 13.4477 44.4477 13 45 13H54C54.5523 13 55 13.4477 55 14V20C55 20.5523 54.5523 21 54 21H45C44.4477 21 44 20.5523 44 20V14Z" fill="#F2F3F5"/>
<path d="M44 24C44 23.4477 44.4477 23 45 23H54C54.5523 23 55 23.4477 55 24V30C55 30.5523 54.5523 31 54 31H45C44.4477 31 44 30.5523 44 30V24Z" fill="#F2F3F5"/>
<path d="M44 34C44 33.4477 44.4477 33 45 33H54C54.5523 33 55 33.4477 55 34V40C55 40.5523 54.5523 41 54 41H45C44.4477 41 44 40.5523 44 40V34Z" fill="#F2F3F5"/>
</svg>
