<svg width="72" height="54" viewBox="0 0 72 54" fill="none" xmlns="http://www.w3.org/2000/svg">
    <g clip-path="url(#clip0_9031_1117)">
        <path d="M28.76 15.6266C28.7867 15.4266 28.8 15.22 28.8 15C28.8 14.7866 28.7867 14.5733 28.7533 14.3733L30.1067 13.32C30.2267 13.2266 30.26 13.0466 30.1867 12.9133L28.9067 10.7C28.8267 10.5533 28.66 10.5066 28.5133 10.5533L26.92 11.1933C26.5867 10.94 26.2333 10.7266 25.84 10.5666L25.6 8.87331C25.5733 8.71331 25.44 8.59998 25.28 8.59998H22.72C22.56 8.59998 22.4333 8.71331 22.4067 8.87331L22.1667 10.5666C21.7733 10.7266 21.4133 10.9466 21.0867 11.1933L19.4933 10.5533C19.3467 10.5 19.18 10.5533 19.1 10.7L17.8267 12.9133C17.7467 13.0533 17.7733 13.2266 17.9067 13.32L19.26 14.3733C19.2267 14.5733 19.2 14.7933 19.2 15C19.2 15.2066 19.2133 15.4266 19.2467 15.6266L17.8933 16.68C17.7733 16.7733 17.74 16.9533 17.8133 17.0866L19.0933 19.3C19.1733 19.4466 19.34 19.4933 19.4867 19.4466L21.08 18.8066C21.4133 19.06 21.7667 19.2733 22.16 19.4333L22.4 21.1266C22.4333 21.2866 22.56 21.4 22.72 21.4H25.28C25.44 21.4 25.5733 21.2866 25.5933 21.1266L25.8333 19.4333C26.2267 19.2733 26.5867 19.06 26.9133 18.8066L28.5067 19.4466C28.6533 19.5 28.82 19.4466 28.9 19.3L30.18 17.0866C30.26 16.94 30.2267 16.7733 30.1 16.68L28.76 15.6266ZM24 17.4C22.68 17.4 21.6 16.32 21.6 15C21.6 13.68 22.68 12.6 24 12.6C25.32 12.6 26.4 13.68 26.4 15C26.4 16.32 25.32 17.4 24 17.4Z" fill="#A9AEB8"/>
    </g>
    <g clip-path="url(#clip1_9031_1117)">
        <path d="M29.3334 33.6666H18.6667C17.9334 33.6666 17.34 34.2666 17.34 35L17.3334 43C17.3334 43.7333 17.9334 44.3333 18.6667 44.3333H29.3334C30.0667 44.3333 30.6667 43.7333 30.6667 43V35C30.6667 34.2666 30.0667 33.6666 29.3334 33.6666ZM29.3334 36.3333L24 39.6666L18.6667 36.3333V35L24 38.3333L29.3334 35V36.3333Z" fill="#A9AEB8"/>
    </g>
    <g clip-path="url(#clip2_9031_1117)">
        <path d="M48 8.33337C45.42 8.33337 43.3334 10.42 43.3334 13C43.3334 16.5 48 21.6667 48 21.6667C48 21.6667 52.6667 16.5 52.6667 13C52.6667 10.42 50.58 8.33337 48 8.33337ZM48 14.6667C47.08 14.6667 46.3334 13.92 46.3334 13C46.3334 12.08 47.08 11.3334 48 11.3334C48.92 11.3334 49.6667 12.08 49.6667 13C49.6667 13.92 48.92 14.6667 48 14.6667Z" fill="#A9AEB8"/>
    </g>
    <g clip-path="url(#clip3_9031_1117)">
        <path d="M44.4133 38.1933C45.3733 40.08 46.92 41.62 48.8067 42.5867L50.2733 41.12C50.4533 40.94 50.72 40.88 50.9533 40.96C51.7 41.2067 52.5067 41.34 53.3333 41.34C53.7 41.34 54 41.64 54 42.0067V44.3333C54 44.7 53.7 45 53.3333 45C47.0733 45 42 39.9267 42 33.6667C42 33.3 42.3 33 42.6667 33H45C45.3667 33 45.6667 33.3 45.6667 33.6667C45.6667 34.5 45.8 35.3 46.0467 36.0467C46.12 36.28 46.0667 36.54 45.88 36.7267L44.4133 38.1933Z" fill="#A9AEB8"/>
    </g>
    <defs>
        <clipPath id="clip0_9031_1117">
            <rect width="16" height="16" fill="white" transform="translate(16 7)"/>
        </clipPath>
        <clipPath id="clip1_9031_1117">
            <rect width="16" height="16" fill="white" transform="translate(16 31)"/>
        </clipPath>
        <clipPath id="clip2_9031_1117">
            <rect width="16" height="16" fill="white" transform="translate(40 7)"/>
        </clipPath>
        <clipPath id="clip3_9031_1117">
            <rect width="16" height="16" fill="white" transform="translate(40 31)"/>
        </clipPath>
    </defs>
</svg>
