<svg width="72" height="54" viewBox="0 0 72 54" fill="none" xmlns="http://www.w3.org/2000/svg">
<path d="M47.222 25.0094C47.4172 24.8141 47.7338 24.8141 47.9291 25.0094L50.1092 27.1895L52.2267 25.0719C52.422 24.8766 52.7386 24.8766 52.9339 25.0719L53.2874 25.4254C53.4827 25.6207 53.4827 25.9373 53.2874 26.1325L50.459 28.961C50.2637 29.1562 49.9471 29.1562 49.7519 28.961L49.3983 28.6074C49.3808 28.5899 49.3649 28.5714 49.3505 28.5521L46.8684 26.0701C46.6732 25.8748 46.6732 25.5582 46.8684 25.363L47.222 25.0094Z" fill="#A9AEB8"/>
<rect x="13.5" y="11.5" width="43" height="33" rx="3.5" fill="white" stroke="#A9AEB8"/>
<rect x="14" y="18" width="43" height="1" fill="#A9AEB8"/>
<path fill-rule="evenodd" clip-rule="evenodd" d="M36.4881 26.1086C36.548 25.839 36.378 25.5719 36.1085 25.512C35.8389 25.4521 35.5718 25.6221 35.5119 25.8916L33.5119 34.8916C33.452 35.1612 33.622 35.4283 33.8915 35.4882C34.1611 35.5481 34.4282 35.3781 34.4881 35.1086L36.4881 26.1086ZM38.1464 27.1466C38.3417 26.9513 38.6583 26.9513 38.8536 27.1466L41.8536 30.1466C41.9473 30.2403 42 30.3675 42 30.5001C42 30.6327 41.9473 30.7599 41.8536 30.8537L38.8536 33.8537C38.6583 34.0489 38.3417 34.0489 38.1464 33.8537C37.9512 33.6584 37.9512 33.3418 38.1464 33.1466L40.7929 30.5001L38.1464 27.8537C37.9512 27.6584 37.9512 27.3418 38.1464 27.1466ZM31.8536 33.8537C31.6583 34.0489 31.3417 34.0489 31.1464 33.8537L28.1464 30.8537C28.0527 30.7599 28 30.6327 28 30.5001C28 30.3675 28.0527 30.2403 28.1464 30.1466L31.1464 27.1466C31.3417 26.9513 31.6583 26.9513 31.8536 27.1466C32.0488 27.3418 32.0488 27.6584 31.8536 27.8537L29.2071 30.5001L31.8536 33.1466C32.0488 33.3418 32.0488 33.6584 31.8536 33.8537Z" fill="#A9AEB8"/>
<circle cx="18" cy="15" r="1" fill="#A9AEB8"/>
<circle cx="22" cy="15" r="1" fill="#A9AEB8"/>
<circle cx="26" cy="15" r="1" fill="#A9AEB8"/>
</svg>
