<svg width="72" height="54" viewBox="0 0 72 54" fill="none" xmlns="http://www.w3.org/2000/svg">
<path d="M47.222 25.0094C47.4172 24.8141 47.7338 24.8141 47.9291 25.0094L50.1092 27.1895L52.2267 25.0719C52.422 24.8766 52.7386 24.8766 52.9339 25.0719L53.2874 25.4254C53.4827 25.6207 53.4827 25.9373 53.2874 26.1325L50.459 28.961C50.2637 29.1562 49.9471 29.1562 49.7519 28.961L49.3983 28.6074C49.3808 28.5899 49.3649 28.5714 49.3505 28.5521L46.8684 26.0701C46.6732 25.8748 46.6732 25.5582 46.8684 25.363L47.222 25.0094Z" fill="#A9AEB8"/>
<rect x="14.5" y="10.5" width="43" height="33" rx="3.5" fill="white" stroke="#A9AEB8"/>
<rect x="20" y="32" width="34" height="2" rx="1" fill="#E5E6EB"/>
<path d="M17.6934 21.85C17.7601 21.85 17.8467 21.84 17.9534 21.82C18.0601 21.8 18.1634 21.7633 18.2634 21.71C18.3634 21.65 18.4501 21.5733 18.5234 21.48C18.5967 21.3867 18.6334 21.2667 18.6334 21.12V19.06C18.6334 18.8267 18.6801 18.6233 18.7734 18.45C18.8667 18.2767 18.9801 18.1333 19.1134 18.02C19.2467 17.9067 19.3867 17.8233 19.5334 17.77C19.6801 17.7167 19.8067 17.69 19.9134 17.69H20.8234V18.59H20.2734C20.1467 18.59 20.0467 18.6133 19.9734 18.66C19.9001 18.7 19.8434 18.7567 19.8034 18.83C19.7634 18.8967 19.7367 18.9733 19.7234 19.06C19.7167 19.14 19.7134 19.2167 19.7134 19.29V21.24C19.7134 21.44 19.6734 21.6067 19.5934 21.74C19.5134 21.8733 19.4167 21.98 19.3034 22.06C19.1967 22.1333 19.0834 22.19 18.9634 22.23C18.8501 22.2633 18.7534 22.2833 18.6734 22.29V22.31C18.7534 22.3167 18.8501 22.3333 18.9634 22.36C19.0834 22.3867 19.1967 22.44 19.3034 22.52C19.4167 22.5933 19.5134 22.7033 19.5934 22.85C19.6734 22.99 19.7134 23.18 19.7134 23.42V25.31C19.7134 25.3833 19.7167 25.46 19.7234 25.54C19.7367 25.6267 19.7634 25.7033 19.8034 25.77C19.8434 25.8433 19.9001 25.9 19.9734 25.94C20.0467 25.9867 20.1467 26.01 20.2734 26.01H20.8234V26.91H19.9134C19.8067 26.91 19.6801 26.8833 19.5334 26.83C19.3867 26.7767 19.2467 26.6933 19.1134 26.58C18.9801 26.4667 18.8667 26.3233 18.7734 26.15C18.6801 25.9767 18.6334 25.7733 18.6334 25.54V23.56C18.6334 23.4 18.5967 23.2667 18.5234 23.16C18.4501 23.0533 18.3634 22.97 18.2634 22.91C18.1634 22.85 18.0601 22.81 17.9534 22.79C17.8467 22.7633 17.7601 22.75 17.6934 22.75V21.85ZM54.3076 22.75C54.2343 22.75 54.1443 22.7633 54.0376 22.79C53.931 22.81 53.8276 22.8467 53.7276 22.9C53.6276 22.9533 53.541 23.0267 53.4676 23.12C53.401 23.2133 53.3676 23.3333 53.3676 23.48V25.54C53.3676 25.7733 53.321 25.9767 53.2276 26.15C53.1343 26.3233 53.021 26.4667 52.8876 26.58C52.7543 26.6933 52.6143 26.7767 52.4676 26.83C52.321 26.8833 52.1943 26.91 52.0876 26.91H51.1776V26.01H51.7276C51.8543 26.01 51.9543 25.9867 52.0276 25.94C52.101 25.9 52.1576 25.8433 52.1976 25.77C52.2376 25.7033 52.261 25.6267 52.2676 25.54C52.281 25.46 52.2876 25.3833 52.2876 25.31V23.36C52.2876 23.16 52.3276 22.9933 52.4076 22.86C52.4876 22.7267 52.581 22.6233 52.6876 22.55C52.801 22.47 52.9143 22.4133 53.0276 22.38C53.1476 22.3467 53.2476 22.3233 53.3276 22.31V22.29C53.2476 22.2833 53.1476 22.2667 53.0276 22.24C52.9143 22.2133 52.801 22.1633 52.6876 22.09C52.581 22.01 52.4876 21.9 52.4076 21.76C52.3276 21.6133 52.2876 21.42 52.2876 21.18V19.29C52.2876 19.2167 52.281 19.14 52.2676 19.06C52.261 18.9733 52.2376 18.8967 52.1976 18.83C52.1576 18.7567 52.101 18.7 52.0276 18.66C51.9543 18.6133 51.8543 18.59 51.7276 18.59H51.1776V17.69H52.0876C52.1943 17.69 52.321 17.7167 52.4676 17.77C52.6143 17.8233 52.7543 17.9067 52.8876 18.02C53.021 18.1333 53.1343 18.2767 53.2276 18.45C53.321 18.6233 53.3676 18.8267 53.3676 19.06V21.04C53.3676 21.2 53.401 21.3333 53.4676 21.44C53.541 21.5467 53.6276 21.63 53.7276 21.69C53.8276 21.75 53.931 21.7933 54.0376 21.82C54.1443 21.84 54.2343 21.85 54.3076 21.85V22.75Z" fill="#A9AEB8"/>
<path d="M26.775 23.7C26.775 24.0133 26.7484 24.3167 26.695 24.61C26.6417 24.9033 26.5317 25.1667 26.365 25.4C26.205 25.6333 25.9684 25.82 25.655 25.96C25.3484 26.1 24.9384 26.17 24.425 26.17C24.045 26.17 23.7217 26.1133 23.455 26C23.1884 25.88 22.9684 25.72 22.795 25.52C22.6217 25.3133 22.495 25.07 22.415 24.79C22.335 24.51 22.295 24.2067 22.295 23.88V23.5H23.545V23.87C23.545 24.2767 23.6117 24.5933 23.745 24.82C23.885 25.04 24.145 25.15 24.525 25.15C24.725 25.15 24.8884 25.12 25.015 25.06C25.1484 25 25.2517 24.9133 25.325 24.8C25.405 24.68 25.4584 24.5333 25.485 24.36C25.5117 24.1867 25.525 23.99 25.525 23.77V18.86H26.775V23.7ZM29.1161 23.62C29.1161 23.8933 29.1628 24.1267 29.2561 24.32C29.3495 24.5133 29.4795 24.6733 29.6461 24.8C29.8128 24.92 30.0028 25.01 30.2161 25.07C30.4361 25.1233 30.6728 25.15 30.9261 25.15C31.1995 25.15 31.4328 25.12 31.6261 25.06C31.8195 24.9933 31.9761 24.91 32.0961 24.81C32.2161 24.71 32.3028 24.5967 32.3561 24.47C32.4095 24.3367 32.4361 24.2033 32.4361 24.07C32.4361 23.7967 32.3728 23.5967 32.2461 23.47C32.1261 23.3367 31.9928 23.2433 31.8461 23.19C31.5928 23.0967 31.2961 23.01 30.9561 22.93C30.6228 22.8433 30.2095 22.7333 29.7161 22.6C29.4095 22.52 29.1528 22.4167 28.9461 22.29C28.7461 22.1567 28.5861 22.01 28.4661 21.85C28.3461 21.69 28.2595 21.52 28.2061 21.34C28.1595 21.16 28.1361 20.9767 28.1361 20.79C28.1361 20.43 28.2095 20.12 28.3561 19.86C28.5095 19.5933 28.7095 19.3733 28.9561 19.2C29.2028 19.0267 29.4828 18.9 29.7961 18.82C30.1095 18.7333 30.4261 18.69 30.7461 18.69C31.1195 18.69 31.4695 18.74 31.7961 18.84C32.1295 18.9333 32.4195 19.0767 32.6661 19.27C32.9195 19.4633 33.1195 19.7033 33.2661 19.99C33.4128 20.27 33.4861 20.5967 33.4861 20.97H32.2361C32.2028 20.51 32.0461 20.1867 31.7661 20C31.4861 19.8067 31.1295 19.71 30.6961 19.71C30.5495 19.71 30.3995 19.7267 30.2461 19.76C30.0928 19.7867 29.9528 19.8367 29.8261 19.91C29.6995 19.9767 29.5928 20.07 29.5061 20.19C29.4261 20.31 29.3861 20.46 29.3861 20.64C29.3861 20.8933 29.4628 21.0933 29.6161 21.24C29.7761 21.38 29.9828 21.4867 30.2361 21.56C30.2628 21.5667 30.3661 21.5967 30.5461 21.65C30.7328 21.6967 30.9395 21.75 31.1661 21.81C31.3928 21.87 31.6128 21.93 31.8261 21.99C32.0461 22.0433 32.2028 22.0833 32.2961 22.11C32.5295 22.1833 32.7328 22.2833 32.9061 22.41C33.0795 22.5367 33.2228 22.6833 33.3361 22.85C33.4561 23.01 33.5428 23.1833 33.5961 23.37C33.6561 23.5567 33.6861 23.7433 33.6861 23.93C33.6861 24.33 33.6028 24.6733 33.4361 24.96C33.2761 25.24 33.0628 25.47 32.7961 25.65C32.5295 25.83 32.2261 25.96 31.8861 26.04C31.5461 26.1267 31.1995 26.17 30.8461 26.17C30.4395 26.17 30.0561 26.12 29.6961 26.02C29.3361 25.92 29.0228 25.7667 28.7561 25.56C28.4895 25.3533 28.2761 25.09 28.1161 24.77C27.9561 24.4433 27.8728 24.06 27.8661 23.62H29.1161ZM37.8205 19.71C37.4405 19.71 37.1105 19.7867 36.8305 19.94C36.5572 20.0933 36.3338 20.3 36.1605 20.56C35.9872 20.8133 35.8572 21.1033 35.7705 21.43C35.6905 21.7567 35.6505 22.09 35.6505 22.43C35.6505 22.77 35.6905 23.1033 35.7705 23.43C35.8572 23.7567 35.9872 24.05 36.1605 24.31C36.3338 24.5633 36.5572 24.7667 36.8305 24.92C37.1105 25.0733 37.4405 25.15 37.8205 25.15C38.2005 25.15 38.5272 25.0733 38.8005 24.92C39.0805 24.7667 39.3072 24.5633 39.4805 24.31C39.6538 24.05 39.7805 23.7567 39.8605 23.43C39.9472 23.1033 39.9905 22.77 39.9905 22.43C39.9905 22.09 39.9472 21.7567 39.8605 21.43C39.7805 21.1033 39.6538 20.8133 39.4805 20.56C39.3072 20.3 39.0805 20.0933 38.8005 19.94C38.5272 19.7867 38.2005 19.71 37.8205 19.71ZM37.8205 18.69C38.3538 18.69 38.8305 18.79 39.2505 18.99C39.6772 19.19 40.0372 19.46 40.3305 19.8C40.6238 20.14 40.8472 20.5367 41.0005 20.99C41.1605 21.4433 41.2405 21.9233 41.2405 22.43C41.2405 22.9433 41.1605 23.4267 41.0005 23.88C40.8472 24.3333 40.6238 24.73 40.3305 25.07C40.0372 25.41 39.6772 25.68 39.2505 25.88C38.8305 26.0733 38.3538 26.17 37.8205 26.17C37.2872 26.17 36.8072 26.0733 36.3805 25.88C35.9605 25.68 35.6038 25.41 35.3105 25.07C35.0172 24.73 34.7905 24.3333 34.6305 23.88C34.4772 23.4267 34.4005 22.9433 34.4005 22.43C34.4005 21.9233 34.4772 21.4433 34.6305 20.99C34.7905 20.5367 35.0172 20.14 35.3105 19.8C35.6038 19.46 35.9605 19.19 36.3805 18.99C36.8072 18.79 37.2872 18.69 37.8205 18.69ZM42.3282 18.86H43.6482L46.9082 24.12H46.9282V18.86H48.1182V26H46.7982L43.5482 20.75H43.5182V26H42.3282V18.86Z" fill="#A9AEB8"/>
<rect x="38" y="37" width="16" height="2" rx="1" fill="#E5E6EB"/>
</svg>
