<svg width="72" height="54" viewBox="0 0 72 54" fill="none" xmlns="http://www.w3.org/2000/svg">
<path d="M47.222 25.0093C47.4172 24.814 47.7338 24.814 47.9291 25.0093L50.1092 27.1894L52.2267 25.0718C52.422 24.8765 52.7386 24.8765 52.9339 25.0718L53.2874 25.4253C53.4827 25.6206 53.4827 25.9372 53.2874 26.1324L50.459 28.9609C50.2637 29.1561 49.9471 29.1561 49.7519 28.9609L49.3983 28.6073C49.3808 28.5898 49.3649 28.5713 49.3505 28.552L46.8684 26.0699C46.6732 25.8747 46.6732 25.5581 46.8684 25.3628L47.222 25.0093Z" fill="#A9AEB8"/>
<rect x="14.5" y="10.5" width="43" height="33" rx="3.5" fill="white" stroke="#A9AEB8"/>
<rect x="18" y="23" width="6" height="2" rx="1" fill="#E5E6EB"/>
<rect x="18" y="29" width="6" height="2" rx="1" fill="#E5E6EB"/>
<rect x="18" y="35" width="6" height="2" rx="1" fill="#E5E6EB"/>
<rect x="28" y="35" width="6" height="2" fill="#E5E6EB"/>
<rect x="37" y="35" width="6" height="2" fill="#E5E6EB"/>
<rect x="46" y="35" width="6" height="2" fill="#E5E6EB"/>
<path d="M15 14C15 12.3431 16.3431 11 18 11H54C55.6569 11 57 12.3431 57 14V19H15V14Z" fill="#E5E6EB"/>
<path d="M31.0424 23.574H32.0234V27.93C32.0234 28.65 31.8704 29.19 31.5734 29.55C31.2314 29.928 30.6914 30.126 29.9534 30.126C29.3144 30.126 28.8284 29.946 28.5044 29.595C28.1624 29.235 27.9914 28.749 27.9914 28.119V27.903H28.9724V28.11C28.9724 28.875 29.3054 29.262 29.9714 29.262C30.3494 29.262 30.6194 29.145 30.7904 28.929C30.9524 28.713 31.0424 28.371 31.0424 27.894V23.574ZM35.5353 23.448C36.2823 23.448 36.8673 23.601 37.2903 23.925C37.7403 24.258 37.9923 24.771 38.0553 25.473H37.0833C36.9933 25.059 36.8313 24.753 36.5793 24.573C36.3273 24.384 35.9673 24.294 35.4813 24.294C35.0583 24.294 34.7343 24.357 34.5093 24.483C34.2303 24.627 34.0953 24.861 34.0953 25.185C34.0953 25.473 34.2483 25.698 34.5723 25.869C34.7163 25.95 35.0853 26.085 35.6883 26.265C36.5523 26.535 37.1193 26.742 37.3713 26.895C37.9203 27.228 38.1993 27.687 38.1993 28.281C38.1993 28.857 37.9743 29.307 37.5243 29.64C37.0743 29.964 36.4443 30.126 35.6343 30.126C34.8513 30.126 34.2393 29.964 33.7983 29.658C33.2673 29.28 32.9793 28.686 32.9253 27.876H33.8973C33.9693 28.38 34.1493 28.749 34.4373 28.965C34.6983 29.163 35.0943 29.262 35.6343 29.262C36.1203 29.262 36.5073 29.172 36.7953 29.01C37.0833 28.848 37.2273 28.623 37.2273 28.335C37.2273 27.975 37.0203 27.696 36.6153 27.489C36.4713 27.417 36.0483 27.273 35.3373 27.057C34.5453 26.805 34.0593 26.634 33.8613 26.526C33.3663 26.229 33.1233 25.797 33.1233 25.239C33.1233 24.672 33.3573 24.231 33.8343 23.907C34.2843 23.601 34.8513 23.448 35.5353 23.448ZM41.9564 23.448C42.9284 23.448 43.7024 23.763 44.2694 24.402C44.8094 25.005 45.0794 25.806 45.0794 26.796C45.0794 27.777 44.8094 28.569 44.2694 29.181C43.7024 29.811 42.9284 30.126 41.9564 30.126C40.9754 30.126 40.2014 29.802 39.6434 29.172C39.1034 28.56 38.8424 27.768 38.8424 26.796C38.8424 25.815 39.1034 25.023 39.6434 24.411C40.2014 23.763 40.9754 23.448 41.9564 23.448ZM41.9564 24.312C41.2724 24.312 40.7414 24.537 40.3634 25.005C40.0034 25.446 39.8234 26.04 39.8234 26.796C39.8234 27.543 40.0034 28.137 40.3634 28.578C40.7414 29.028 41.2724 29.262 41.9564 29.262C42.6404 29.262 43.1714 29.037 43.5404 28.596C43.9004 28.164 44.0894 27.561 44.0894 26.796C44.0894 26.022 43.9004 25.419 43.5404 24.978C43.1714 24.528 42.6404 24.312 41.9564 24.312ZM46.0734 23.574H47.0634L50.3484 28.353H50.3844V23.574H51.3654V30H50.4114L47.0904 25.167H47.0544V30H46.0734V23.574Z" fill="#A9AEB8"/>
</svg>
