<svg width="72" height="54" viewBox="0 0 72 54" fill="none" xmlns="http://www.w3.org/2000/svg">
<rect x="12.5" y="15.5" width="47" height="23" rx="3.5" fill="white"/>
<path d="M51 21V33" stroke="#A9AEB8"/>
<path d="M21.54 23.86H22.63V28.7C22.63 29.5 22.46 30.1 22.13 30.5C21.75 30.92 21.15 31.14 20.33 31.14C19.62 31.14 19.08 30.94 18.72 30.55C18.34 30.15 18.15 29.61 18.15 28.91V28.67H19.24V28.9C19.24 29.75 19.61 30.18 20.35 30.18C20.77 30.18 21.07 30.05 21.26 29.81C21.44 29.57 21.54 29.19 21.54 28.66V23.86ZM26.532 23.72C27.362 23.72 28.012 23.89 28.482 24.25C28.982 24.62 29.262 25.19 29.332 25.97H28.252C28.152 25.51 27.972 25.17 27.692 24.97C27.412 24.76 27.012 24.66 26.472 24.66C26.002 24.66 25.642 24.73 25.392 24.87C25.082 25.03 24.932 25.29 24.932 25.65C24.932 25.97 25.102 26.22 25.462 26.41C25.622 26.5 26.032 26.65 26.702 26.85C27.662 27.15 28.292 27.38 28.572 27.55C29.182 27.92 29.492 28.43 29.492 29.09C29.492 29.73 29.242 30.23 28.742 30.6C28.242 30.96 27.542 31.14 26.642 31.14C25.772 31.14 25.092 30.96 24.602 30.62C24.012 30.2 23.692 29.54 23.632 28.64H24.712C24.792 29.2 24.992 29.61 25.312 29.85C25.602 30.07 26.042 30.18 26.642 30.18C27.182 30.18 27.612 30.08 27.932 29.9C28.252 29.72 28.412 29.47 28.412 29.15C28.412 28.75 28.182 28.44 27.732 28.21C27.572 28.13 27.102 27.97 26.312 27.73C25.432 27.45 24.892 27.26 24.672 27.14C24.122 26.81 23.852 26.33 23.852 25.71C23.852 25.08 24.112 24.59 24.642 24.23C25.142 23.89 25.772 23.72 26.532 23.72ZM33.6666 23.72C34.7466 23.72 35.6066 24.07 36.2366 24.78C36.8366 25.45 37.1366 26.34 37.1366 27.44C37.1366 28.53 36.8366 29.41 36.2366 30.09C35.6066 30.79 34.7466 31.14 33.6666 31.14C32.5766 31.14 31.7166 30.78 31.0966 30.08C30.4966 29.4 30.2066 28.52 30.2066 27.44C30.2066 26.35 30.4966 25.47 31.0966 24.79C31.7166 24.07 32.5766 23.72 33.6666 23.72ZM33.6666 24.68C32.9066 24.68 32.3166 24.93 31.8966 25.45C31.4966 25.94 31.2966 26.6 31.2966 27.44C31.2966 28.27 31.4966 28.93 31.8966 29.42C32.3166 29.92 32.9066 30.18 33.6666 30.18C34.4266 30.18 35.0166 29.93 35.4266 29.44C35.8266 28.96 36.0366 28.29 36.0366 27.44C36.0366 26.58 35.8266 25.91 35.4266 25.42C35.0166 24.92 34.4266 24.68 33.6666 24.68ZM38.241 23.86H39.341L42.991 29.17H43.031V23.86H44.121V31H43.061L39.371 25.63H39.331V31H38.241V23.86Z" fill="#A9AEB8"/>
<rect x="12.5" y="15.5" width="47" height="23" rx="3.5" stroke="#A9AEB8"/>
</svg>
