<svg width="72" height="54" viewBox="0 0 72 54" fill="none" xmlns="http://www.w3.org/2000/svg">
    <path d="M47.2219 25.0093C47.4172 24.814 47.7338 24.814 47.929 25.0093L50.1091 27.1894L52.2267 25.0718C52.4219 24.8765 52.7385 24.8765 52.9338 25.0718L53.2873 25.4253C53.4826 25.6206 53.4826 25.9372 53.2873 26.1324L50.4589 28.9609C50.2637 29.1561 49.9471 29.1561 49.7518 28.9609L49.3983 28.6073C49.3807 28.5898 49.3648 28.5713 49.3504 28.552L46.8684 26.0699C46.6731 25.8747 46.6731 25.5581 46.8684 25.3628L47.2219 25.0093Z" fill="#A9AEB8"/>
    <rect x="14.5" y="10.5" width="43" height="33" rx="3.5" fill="white" stroke="#A9AEB8"/>
    <path d="M17 14C17 13.4477 17.4477 13 18 13H54C54.5523 13 55 13.4477 55 14V21C55 21.5523 54.5523 22 54 22H18C17.4477 22 17 21.5523 17 21V14Z" fill="#E5E6EB"/>
    <path d="M17 25C17 24.4477 17.4477 24 18 24H54C54.5523 24 55 24.4477 55 25V30C55 30.5523 54.5523 31 54 31H18C17.4477 31 17 30.5523 17 30V25Z" fill="#F2F3F5"/>
    <path d="M17 34C17 33.4477 17.4477 33 18 33H54C54.5523 33 55 33.4477 55 34V40C55 40.5523 54.5523 41 54 41H18C17.4477 41 17 40.5523 17 40V34Z" fill="#F2F3F5"/>
</svg>
