<svg width="72" height="54" viewBox="0 0 72 54" fill="none" xmlns="http://www.w3.org/2000/svg">
<rect x="16" y="11" width="40" height="32" rx="4" fill="white"/>
<path fill-rule="evenodd" clip-rule="evenodd" d="M31.6944 26H31.0838C30.6394 26 30.2483 26.2933 30.1238 26.7199L28.8034 31.2459L32.5943 27.9163C32.2575 27.314 31.9486 26.6592 31.6944 26ZM33.1013 28.7506L31.8871 29.8171L35.7942 33.2488L42.1511 27.6654L41.8752 26.7198C41.7507 26.2932 41.3596 26 40.9152 26H40.3056C39.962 26.8909 39.5187 27.7738 39.0414 28.53C38.6485 29.1524 38.2085 29.7279 37.7494 30.1609C37.3305 30.556 36.7212 31 36 31C35.2788 31 34.6695 30.556 34.2506 30.1609C33.8463 29.7796 33.4568 29.2877 33.1013 28.7506ZM32.7722 26H34.7761L33.364 27.2403C33.1495 26.8421 32.9494 26.4232 32.7722 26ZM39.2278 26C38.3687 28.0513 36.9737 30 36 30C35.3758 30 34.5785 29.1992 33.8602 28.084L36.2329 26H39.2278ZM36.3957 34H42.6664C43.3331 34 43.8131 33.3599 43.6263 32.7198L42.4484 28.6838L36.3957 34ZM28.3349 32.937L31.1587 30.4568L35.0658 33.8885L34.9389 34H29.3334C28.7424 34 28.2981 33.497 28.3349 32.937Z" fill="#A9AEB8"/>
<path fill-rule="evenodd" clip-rule="evenodd" d="M40 23C40 23.3764 39.948 23.7407 39.8508 24.086C39.2908 26.628 37.2808 30 36 30C34.7192 30 32.7094 26.6282 32.1493 24.0863C32.052 23.7409 32 23.3765 32 23C32 22.9788 32.0002 22.9576 32.0005 22.9365C32.0002 22.9159 32 22.8954 32 22.8751C32 22.8272 32.0029 22.7803 32.0087 22.7342C32.1455 20.649 33.8802 19 36 19C38.1198 19 39.8545 20.649 39.9913 22.7342C39.9971 22.7802 40 22.8272 40 22.8751C40 22.8954 39.9998 22.9159 39.9995 22.9365C39.9998 22.9576 40 22.9788 40 23ZM36 25C37.1046 25 38 24.1046 38 23C38 21.8954 37.1046 21 36 21C34.8954 21 34 21.8954 34 23C34 24.1046 34.8954 25 36 25Z" fill="#A9AEB8"/>
</svg>
