<svg width="72" height="54" viewBox="0 0 72 54" fill="none" xmlns="http://www.w3.org/2000/svg">
    <rect x="12.5" y="17.5" width="47" height="19" rx="3.5" fill="white" stroke="#A9AEB8"/>
    <rect x="17" y="25" width="8" height="4" rx="0.5" fill="#E5E6EB"/>
    <rect x="32" y="25" width="8" height="4" rx="0.5" fill="#E5E6EB"/>
    <path d="M28 24V30" stroke="#E5E6EB"/>
    <path d="M47.2219 25.0093C47.4172 24.814 47.7338 24.814 47.929 25.0093L50.1091 27.1894L52.2267 25.0718C52.4219 24.8765 52.7385 24.8765 52.9338 25.0718L53.2873 25.4253C53.4826 25.6206 53.4826 25.9372 53.2873 26.1324L50.4589 28.9609C50.2637 29.1561 49.9471 29.1561 49.7518 28.9609L49.3983 28.6073C49.3807 28.5898 49.3648 28.5713 49.3504 28.552L46.8684 26.0699C46.6731 25.8747 46.6731 25.5581 46.8684 25.3628L47.2219 25.0093Z" fill="#A9AEB8"/>
</svg>
