<svg width="72" height="54" viewBox="0 0 72 54" fill="none" xmlns="http://www.w3.org/2000/svg">
    <rect x="12.5" y="17.5" width="47" height="19" rx="3.5" fill="#fff" stroke="#A9AEB8"/>
    <path d="M39 21v12" stroke="#A9AEB8"/>
    <path d="M20.32 23.86c-.24.26-.54.49-.9.71-.36.2-.69.34-1.01.42v1.08c.66-.19 1.21-.49 1.64-.9V31h1.09v-7.14h-.82zm4.872-.14c-.76 0-1.38.25-1.84.77-.45.48-.68 1.12-.69 1.92h1.09c.02-.58.14-1.01.38-1.31.23-.31.57-.46 1.02-.46.42 0 .75.1.97.3.22.2.33.5.33.9 0 .42-.17.81-.49 1.17-.2.21-.54.48-1.02.82-.81.56-1.35.99-1.61 1.3-.48.54-.71 1.16-.71 1.87h4.92v-.96h-3.57c.15-.39.61-.84 1.38-1.35.71-.48 1.2-.86 1.48-1.15.46-.51.7-1.07.7-1.69 0-.63-.22-1.14-.65-1.54-.44-.4-1.01-.59-1.69-.59zm5.956 0c-.7 0-1.27.19-1.71.59-.47.4-.73.95-.79 1.66h1.07c.04-.44.19-.77.43-.99.24-.22.58-.33 1.01-.33.42 0 .75.09.97.29.2.19.31.46.31.82 0 .36-.12.64-.34.83-.22.19-.55.29-.99.29h-.51v.82h.52c.47 0 .83.1 1.07.3.26.2.39.51.39.93 0 .36-.13.65-.37.89-.28.26-.65.4-1.11.4-.42 0-.76-.12-1.02-.36-.3-.26-.45-.63-.47-1.11h-1.1c.06.8.34 1.41.84 1.83.44.37 1.03.56 1.76.56.76 0 1.39-.22 1.87-.64.45-.42.68-.96.68-1.62 0-.42-.12-.77-.36-1.04-.22-.26-.54-.46-.96-.59.78-.26 1.18-.79 1.18-1.57 0-.61-.22-1.09-.64-1.44-.44-.35-1.01-.52-1.73-.52z" fill="#A9AEB8"/>
</svg>
