<svg width="72" height="54" viewBox="0 0 72 54" fill="none" xmlns="http://www.w3.org/2000/svg">
<rect x="16" y="11" width="40" height="32" rx="4" fill="white"/>
<mask id="mask0_9069_1465" style="mask-type:alpha" maskUnits="userSpaceOnUse" x="30" y="19" width="12" height="16">
<path d="M30.8276 19H38.5075C38.6166 19 38.7213 19.045 38.7988 19.1253L41.8775 22.3133C41.9559 22.3946 42 22.5051 42 22.6205V34.1351C42 34.6128 41.6295 35 41.1724 35H30.8276C30.3705 35 30 34.6128 30 34.1351V19.8649C30 19.3872 30.3705 19 30.8276 19Z" fill="white"/>
</mask>
<g mask="url(#mask0_9069_1465)">
<path d="M30.8276 19H38.5075C38.6166 19 38.7213 19.045 38.7988 19.1253L41.8775 22.3133C41.9559 22.3946 42 22.5051 42 22.6205V34.1351C42 34.6128 41.6295 35 41.1724 35H30.8276C30.3705 35 30 34.6128 30 34.1351V19.8649C30 19.3872 30.3705 19 30.8276 19Z" fill="#A9AEB8"/>
<path fill-rule="evenodd" clip-rule="evenodd" d="M38.6777 19H41.9881V22.2432H39.5053C39.0483 22.2432 38.6777 21.8802 38.6777 21.4324V19Z" fill="#C9CDD4"/>
</g>
<path d="M38.8328 27.7364C38.3651 27.7449 37.8996 27.8024 37.4439 27.9079C36.8823 27.3484 36.4165 26.7004 36.0651 25.9898C36.4468 24.656 36.4639 23.7466 36.1792 23.3159C36.1156 23.2227 36.031 23.1457 35.9322 23.0913C35.8334 23.0368 35.7232 23.0064 35.6104 23.0024C35.4698 22.9907 35.3289 23.0214 35.206 23.0906C35.083 23.1597 34.9836 23.2642 34.9206 23.3904C34.5225 24.1027 35.0975 25.5165 35.3652 26.0883C35.0639 27.1095 34.6712 28.1016 34.192 29.0524C32.0629 30.0347 32 30.6314 32 30.8463C32.0078 31.1117 32.1529 31.3491 32.3755 31.4608C32.4726 31.5272 32.5887 31.5599 32.7061 31.554C33.2749 31.554 33.901 30.8836 34.5908 29.5738C35.4366 29.1874 36.3173 28.8832 37.2212 28.6644C37.6713 29.0811 38.2493 29.334 38.8615 29.3829C39.2371 29.3829 39.9998 29.3829 39.9998 28.5659C40.006 28.2888 39.8524 27.7604 38.8328 27.7356V27.7364ZM32.7457 30.8711H32.6774C32.8644 30.5623 33.1429 30.3202 33.4743 30.1759C33.3184 30.4844 33.0612 30.7299 32.7457 30.8711ZM35.4676 23.7458C35.4969 23.7346 35.5292 23.7346 35.5584 23.7458H35.6267C35.7441 24.1473 35.7441 24.5741 35.6267 24.9756C35.4495 24.5915 35.394 24.1624 35.4676 23.7458ZM36.6067 28.3804C36.0946 28.51 35.5902 28.6698 35.0975 28.8607V28.811H35.0517C35.2977 28.2803 35.5204 27.7387 35.719 27.1886V27.1389C35.9751 27.5603 36.2699 27.9513 36.6005 28.3067H36.5384L36.6067 28.3812V28.3804ZM38.884 28.6947C38.6519 28.685 38.4237 28.6307 38.2121 28.5348C38.3991 28.4952 38.5907 28.4782 38.7816 28.4859C39.22 28.4859 39.3116 28.6023 39.3116 28.676C39.1709 28.7176 39.0223 28.724 38.8786 28.6947H38.884Z" fill="white"/>
</svg>
