<svg width="72" height="54" viewBox="0 0 72 54" fill="none" xmlns="http://www.w3.org/2000/svg">
<path d="M32.1379 13.2069H31.0345V14.3104H32.1379V13.2069Z" fill="#A9AEB8"/>
<path d="M36.5517 13.2069H35.4483V14.3104H36.5517V13.2069Z" fill="#A9AEB8"/>
<path d="M37.6552 13.2069H36.5517V14.3104H37.6552V13.2069Z" fill="#A9AEB8"/>
<path d="M38.7586 13.2069H37.6552V14.3104H38.7586V13.2069Z" fill="#A9AEB8"/>
<path d="M34.3448 14.3104H33.2414V15.4138H34.3448V14.3104Z" fill="#A9AEB8"/>
<path d="M36.5517 14.3104H35.4483V15.4138H36.5517V14.3104Z" fill="#A9AEB8"/>
<path d="M38.7586 14.3104H37.6552V15.4138H38.7586V14.3104Z" fill="#A9AEB8"/>
<path d="M40.9655 14.3104H39.8621V15.4138H40.9655V14.3104Z" fill="#A9AEB8"/>
<path d="M32.1379 15.4138H31.0345V16.5173H32.1379V15.4138Z" fill="#A9AEB8"/>
<path d="M33.2414 15.4138H32.1379V16.5173H33.2414V15.4138Z" fill="#A9AEB8"/>
<path d="M37.6552 15.4138H36.5517V16.5173H37.6552V15.4138Z" fill="#A9AEB8"/>
<path d="M38.7586 15.4138H37.6552V16.5173H38.7586V15.4138Z" fill="#A9AEB8"/>
<path d="M39.8621 15.4138H38.7586V16.5173H39.8621V15.4138Z" fill="#A9AEB8"/>
<path d="M33.2414 16.5172H32.1379V17.6207H33.2414V16.5172Z" fill="#A9AEB8"/>
<path d="M34.3448 16.5172H33.2414V17.6207H34.3448V16.5172Z" fill="#A9AEB8"/>
<path d="M37.6552 16.5172H36.5517V17.6207H37.6552V16.5172Z" fill="#A9AEB8"/>
<path d="M40.9655 16.5172H39.8621V17.6207H40.9655V16.5172Z" fill="#A9AEB8"/>
<path d="M35.4483 17.6207H34.3448V18.7241H35.4483V17.6207Z" fill="#A9AEB8"/>
<path d="M38.7586 17.6207H37.6552V18.7241H38.7586V17.6207Z" fill="#A9AEB8"/>
<path d="M32.1379 18.7241H31.0345V19.8276H32.1379V18.7241Z" fill="#A9AEB8"/>
<path d="M33.2414 18.7241H32.1379V19.8276H33.2414V18.7241Z" fill="#A9AEB8"/>
<path d="M36.5517 18.7241H35.4483V19.8276H36.5517V18.7241Z" fill="#A9AEB8"/>
<path d="M37.6552 18.7241H36.5517V19.8276H37.6552V18.7241Z" fill="#A9AEB8"/>
<path d="M38.7586 18.7241H37.6552V19.8276H38.7586V18.7241Z" fill="#A9AEB8"/>
<path d="M40.9655 18.7241H39.8621V19.8276H40.9655V18.7241Z" fill="#A9AEB8"/>
<path d="M32.1379 19.8276H31.0345V20.931H32.1379V19.8276Z" fill="#A9AEB8"/>
<path d="M34.3448 19.8276H33.2414V20.931H34.3448V19.8276Z" fill="#A9AEB8"/>
<path d="M36.5517 19.8276H35.4483V20.931H36.5517V19.8276Z" fill="#A9AEB8"/>
<path d="M38.7586 19.8276H37.6552V20.931H38.7586V19.8276Z" fill="#A9AEB8"/>
<path d="M40.9655 19.8276H39.8621V20.931H40.9655V19.8276Z" fill="#A9AEB8"/>
<path d="M33.2414 20.931H32.1379V22.0345H33.2414V20.931Z" fill="#A9AEB8"/>
<path d="M34.3448 20.931H33.2414V22.0345H34.3448V20.931Z" fill="#A9AEB8"/>
<path d="M38.7586 20.931H37.6552V22.0345H38.7586V20.931Z" fill="#A9AEB8"/>
<path d="M39.8621 20.931H38.7586V22.0345H39.8621V20.931Z" fill="#A9AEB8"/>
<path d="M40.9655 20.931H39.8621V22.0345H40.9655V20.931Z" fill="#A9AEB8"/>
<path d="M23.3104 22.0345H22.2069V23.1379H23.3104V22.0345Z" fill="#A9AEB8"/>
<path d="M25.5172 22.0345H24.4138V23.1379H25.5172V22.0345Z" fill="#A9AEB8"/>
<path d="M29.931 22.0345H28.8276V23.1379H29.931V22.0345Z" fill="#A9AEB8"/>
<path d="M31.0345 22.0345H29.931V23.1379H31.0345V22.0345Z" fill="#A9AEB8"/>
<path d="M33.2414 22.0345H32.1379V23.1379H33.2414V22.0345Z" fill="#A9AEB8"/>
<path d="M35.4483 22.0345H34.3448V23.1379H35.4483V22.0345Z" fill="#A9AEB8"/>
<path d="M37.6552 22.0345H36.5517V23.1379H37.6552V22.0345Z" fill="#A9AEB8"/>
<path d="M38.7586 22.0345H37.6552V23.1379H38.7586V22.0345Z" fill="#A9AEB8"/>
<path d="M40.9655 22.0345H39.8621V23.1379H40.9655V22.0345Z" fill="#A9AEB8"/>
<path d="M44.2759 22.0345H43.1724V23.1379H44.2759V22.0345Z" fill="#A9AEB8"/>
<path d="M47.5862 22.0345H46.4828V23.1379H47.5862V22.0345Z" fill="#A9AEB8"/>
<path d="M49.7931 22.0345H48.6897V23.1379H49.7931V22.0345Z" fill="#A9AEB8"/>
<path d="M23.3104 23.1379H22.2069V24.2414H23.3104V23.1379Z" fill="#A9AEB8"/>
<path d="M26.6207 23.1379H25.5172V24.2414H26.6207V23.1379Z" fill="#A9AEB8"/>
<path d="M28.8276 23.1379H27.7242V24.2414H28.8276V23.1379Z" fill="#A9AEB8"/>
<path d="M32.1379 23.1379H31.0345V24.2414H32.1379V23.1379Z" fill="#A9AEB8"/>
<path d="M34.3448 23.1379H33.2414V24.2414H34.3448V23.1379Z" fill="#A9AEB8"/>
<path d="M35.4483 23.1379H34.3448V24.2414H35.4483V23.1379Z" fill="#A9AEB8"/>
<path d="M37.6552 23.1379H36.5517V24.2414H37.6552V23.1379Z" fill="#A9AEB8"/>
<path d="M39.8621 23.1379H38.7586V24.2414H39.8621V23.1379Z" fill="#A9AEB8"/>
<path d="M40.9655 23.1379H39.8621V24.2414H40.9655V23.1379Z" fill="#A9AEB8"/>
<path d="M43.1724 23.1379H42.069V24.2414H43.1724V23.1379Z" fill="#A9AEB8"/>
<path d="M44.2759 23.1379H43.1724V24.2414H44.2759V23.1379Z" fill="#A9AEB8"/>
<path d="M46.4828 23.1379H45.3793V24.2414H46.4828V23.1379Z" fill="#A9AEB8"/>
<path d="M48.6897 23.1379H47.5862V24.2414H48.6897V23.1379Z" fill="#A9AEB8"/>
<path d="M49.7931 23.1379H48.6897V24.2414H49.7931V23.1379Z" fill="#A9AEB8"/>
<path d="M23.3104 24.2414H22.2069V25.3448H23.3104V24.2414Z" fill="#A9AEB8"/>
<path d="M24.4138 24.2414H23.3103V25.3448H24.4138V24.2414Z" fill="#A9AEB8"/>
<path d="M26.6207 24.2414H25.5172V25.3448H26.6207V24.2414Z" fill="#A9AEB8"/>
<path d="M28.8276 24.2414H27.7242V25.3448H28.8276V24.2414Z" fill="#A9AEB8"/>
<path d="M29.931 24.2414H28.8276V25.3448H29.931V24.2414Z" fill="#A9AEB8"/>
<path d="M31.0345 24.2414H29.931V25.3448H31.0345V24.2414Z" fill="#A9AEB8"/>
<path d="M34.3448 24.2414H33.2414V25.3448H34.3448V24.2414Z" fill="#A9AEB8"/>
<path d="M36.5517 24.2414H35.4483V25.3448H36.5517V24.2414Z" fill="#A9AEB8"/>
<path d="M39.8621 24.2414H38.7586V25.3448H39.8621V24.2414Z" fill="#A9AEB8"/>
<path d="M40.9655 24.2414H39.8621V25.3448H40.9655V24.2414Z" fill="#A9AEB8"/>
<path d="M45.3793 24.2414H44.2758V25.3448H45.3793V24.2414Z" fill="#A9AEB8"/>
<path d="M46.4828 24.2414H45.3793V25.3448H46.4828V24.2414Z" fill="#A9AEB8"/>
<path d="M47.5862 24.2414H46.4828V25.3448H47.5862V24.2414Z" fill="#A9AEB8"/>
<path d="M49.7931 24.2414H48.6897V25.3448H49.7931V24.2414Z" fill="#A9AEB8"/>
<path d="M24.4138 25.3448H23.3103V26.4483H24.4138V25.3448Z" fill="#A9AEB8"/>
<path d="M25.5172 25.3448H24.4138V26.4483H25.5172V25.3448Z" fill="#A9AEB8"/>
<path d="M32.1379 25.3448H31.0345V26.4483H32.1379V25.3448Z" fill="#A9AEB8"/>
<path d="M36.5517 25.3448H35.4483V26.4483H36.5517V25.3448Z" fill="#A9AEB8"/>
<path d="M37.6552 25.3448H36.5517V26.4483H37.6552V25.3448Z" fill="#A9AEB8"/>
<path d="M40.9655 25.3448H39.8621V26.4483H40.9655V25.3448Z" fill="#A9AEB8"/>
<path d="M45.3793 25.3448H44.2758V26.4483H45.3793V25.3448Z" fill="#A9AEB8"/>
<path d="M46.4828 25.3448H45.3793V26.4483H46.4828V25.3448Z" fill="#A9AEB8"/>
<path d="M24.4138 26.4483H23.3103V27.5518H24.4138V26.4483Z" fill="#A9AEB8"/>
<path d="M25.5172 26.4483H24.4138V27.5518H25.5172V26.4483Z" fill="#A9AEB8"/>
<path d="M29.931 26.4483H28.8276V27.5518H29.931V26.4483Z" fill="#A9AEB8"/>
<path d="M34.3448 26.4483H33.2414V27.5518H34.3448V26.4483Z" fill="#A9AEB8"/>
<path d="M35.4483 26.4483H34.3448V27.5518H35.4483V26.4483Z" fill="#A9AEB8"/>
<path d="M36.5517 26.4483H35.4483V27.5518H36.5517V26.4483Z" fill="#A9AEB8"/>
<path d="M37.6552 26.4483H36.5517V27.5518H37.6552V26.4483Z" fill="#A9AEB8"/>
<path d="M40.9655 26.4483H39.8621V27.5518H40.9655V26.4483Z" fill="#A9AEB8"/>
<path d="M43.1724 26.4483H42.069V27.5518H43.1724V26.4483Z" fill="#A9AEB8"/>
<path d="M44.2759 26.4483H43.1724V27.5518H44.2759V26.4483Z" fill="#A9AEB8"/>
<path d="M49.7931 26.4483H48.6897V27.5518H49.7931V26.4483Z" fill="#A9AEB8"/>
<path d="M24.4138 27.5517H23.3103V28.6551H24.4138V27.5517Z" fill="#A9AEB8"/>
<path d="M26.6207 27.5517H25.5172V28.6551H26.6207V27.5517Z" fill="#A9AEB8"/>
<path d="M27.7241 27.5517H26.6207V28.6551H27.7241V27.5517Z" fill="#A9AEB8"/>
<path d="M28.8276 27.5517H27.7242V28.6551H28.8276V27.5517Z" fill="#A9AEB8"/>
<path d="M36.5517 27.5517H35.4483V28.6551H36.5517V27.5517Z" fill="#A9AEB8"/>
<path d="M39.8621 27.5517H38.7586V28.6551H39.8621V27.5517Z" fill="#A9AEB8"/>
<path d="M40.9655 27.5517H39.8621V28.6551H40.9655V27.5517Z" fill="#A9AEB8"/>
<path d="M43.1724 27.5517H42.069V28.6551H43.1724V27.5517Z" fill="#A9AEB8"/>
<path d="M44.2759 27.5517H43.1724V28.6551H44.2759V27.5517Z" fill="#A9AEB8"/>
<path d="M48.6897 27.5517H47.5862V28.6551H48.6897V27.5517Z" fill="#A9AEB8"/>
<path d="M49.7931 27.5517H48.6897V28.6551H49.7931V27.5517Z" fill="#A9AEB8"/>
<path d="M23.3104 28.6552H22.2069V29.7586H23.3104V28.6552Z" fill="#A9AEB8"/>
<path d="M24.4138 28.6552H23.3103V29.7586H24.4138V28.6552Z" fill="#A9AEB8"/>
<path d="M25.5172 28.6552H24.4138V29.7586H25.5172V28.6552Z" fill="#A9AEB8"/>
<path d="M27.7241 28.6552H26.6207V29.7586H27.7241V28.6552Z" fill="#A9AEB8"/>
<path d="M29.931 28.6552H28.8276V29.7586H29.931V28.6552Z" fill="#A9AEB8"/>
<path d="M32.1379 28.6552H31.0345V29.7586H32.1379V28.6552Z" fill="#A9AEB8"/>
<path d="M33.2414 28.6552H32.1379V29.7586H33.2414V28.6552Z" fill="#A9AEB8"/>
<path d="M36.5517 28.6552H35.4483V29.7586H36.5517V28.6552Z" fill="#A9AEB8"/>
<path d="M37.6552 28.6552H36.5517V29.7586H37.6552V28.6552Z" fill="#A9AEB8"/>
<path d="M38.7586 28.6552H37.6552V29.7586H38.7586V28.6552Z" fill="#A9AEB8"/>
<path d="M39.8621 28.6552H38.7586V29.7586H39.8621V28.6552Z" fill="#A9AEB8"/>
<path d="M46.4828 28.6552H45.3793V29.7586H46.4828V28.6552Z" fill="#A9AEB8"/>
<path d="M47.5862 28.6552H46.4828V29.7586H47.5862V28.6552Z" fill="#A9AEB8"/>
<path d="M49.7931 28.6552H48.6897V29.7586H49.7931V28.6552Z" fill="#A9AEB8"/>
<path d="M26.6207 29.7586H25.5172V30.8621H26.6207V29.7586Z" fill="#A9AEB8"/>
<path d="M27.7241 29.7586H26.6207V30.8621H27.7241V29.7586Z" fill="#A9AEB8"/>
<path d="M28.8276 29.7586H27.7242V30.8621H28.8276V29.7586Z" fill="#A9AEB8"/>
<path d="M31.0345 29.7586H29.931V30.8621H31.0345V29.7586Z" fill="#A9AEB8"/>
<path d="M33.2414 29.7586H32.1379V30.8621H33.2414V29.7586Z" fill="#A9AEB8"/>
<path d="M35.4483 29.7586H34.3448V30.8621H35.4483V29.7586Z" fill="#A9AEB8"/>
<path d="M36.5517 29.7586H35.4483V30.8621H36.5517V29.7586Z" fill="#A9AEB8"/>
<path d="M38.7586 29.7586H37.6552V30.8621H38.7586V29.7586Z" fill="#A9AEB8"/>
<path d="M39.8621 29.7586H38.7586V30.8621H39.8621V29.7586Z" fill="#A9AEB8"/>
<path d="M44.2759 29.7586H43.1724V30.8621H44.2759V29.7586Z" fill="#A9AEB8"/>
<path d="M45.3793 29.7586H44.2758V30.8621H45.3793V29.7586Z" fill="#A9AEB8"/>
<path d="M46.4828 29.7586H45.3793V30.8621H46.4828V29.7586Z" fill="#A9AEB8"/>
<path d="M23.3104 30.8621H22.2069V31.9655H23.3104V30.8621Z" fill="#A9AEB8"/>
<path d="M24.4138 30.8621H23.3103V31.9655H24.4138V30.8621Z" fill="#A9AEB8"/>
<path d="M29.931 30.8621H28.8276V31.9655H29.931V30.8621Z" fill="#A9AEB8"/>
<path d="M32.1379 30.8621H31.0345V31.9655H32.1379V30.8621Z" fill="#A9AEB8"/>
<path d="M34.3448 30.8621H33.2414V31.9655H34.3448V30.8621Z" fill="#A9AEB8"/>
<path d="M37.6552 30.8621H36.5517V31.9655H37.6552V30.8621Z" fill="#A9AEB8"/>
<path d="M38.7586 30.8621H37.6552V31.9655H38.7586V30.8621Z" fill="#A9AEB8"/>
<path d="M39.8621 30.8621H38.7586V31.9655H39.8621V30.8621Z" fill="#A9AEB8"/>
<path d="M40.9655 30.8621H39.8621V31.9655H40.9655V30.8621Z" fill="#A9AEB8"/>
<path d="M42.069 30.8621H40.9655V31.9655H42.069V30.8621Z" fill="#A9AEB8"/>
<path d="M43.1724 30.8621H42.069V31.9655H43.1724V30.8621Z" fill="#A9AEB8"/>
<path d="M44.2759 30.8621H43.1724V31.9655H44.2759V30.8621Z" fill="#A9AEB8"/>
<path d="M45.3793 30.8621H44.2758V31.9655H45.3793V30.8621Z" fill="#A9AEB8"/>
<path d="M48.6897 30.8621H47.5862V31.9655H48.6897V30.8621Z" fill="#A9AEB8"/>
<path d="M32.1379 31.9655H31.0345V33.069H32.1379V31.9655Z" fill="#A9AEB8"/>
<path d="M33.2414 31.9655H32.1379V33.069H33.2414V31.9655Z" fill="#A9AEB8"/>
<path d="M37.6552 31.9655H36.5517V33.069H37.6552V31.9655Z" fill="#A9AEB8"/>
<path d="M38.7586 31.9655H37.6552V33.069H38.7586V31.9655Z" fill="#A9AEB8"/>
<path d="M40.9655 31.9655H39.8621V33.069H40.9655V31.9655Z" fill="#A9AEB8"/>
<path d="M45.3793 31.9655H44.2758V33.069H45.3793V31.9655Z" fill="#A9AEB8"/>
<path d="M49.7931 31.9655H48.6897V33.069H49.7931V31.9655Z" fill="#A9AEB8"/>
<path d="M32.1379 33.069H31.0345V34.1724H32.1379V33.069Z" fill="#A9AEB8"/>
<path d="M35.4483 33.069H34.3448V34.1724H35.4483V33.069Z" fill="#A9AEB8"/>
<path d="M40.9655 33.069H39.8621V34.1724H40.9655V33.069Z" fill="#A9AEB8"/>
<path d="M43.1724 33.069H42.069V34.1724H43.1724V33.069Z" fill="#A9AEB8"/>
<path d="M45.3793 33.069H44.2758V34.1724H45.3793V33.069Z" fill="#A9AEB8"/>
<path d="M49.7931 33.069H48.6897V34.1724H49.7931V33.069Z" fill="#A9AEB8"/>
<path d="M33.2414 34.1724H32.1379V35.2759H33.2414V34.1724Z" fill="#A9AEB8"/>
<path d="M37.6552 34.1724H36.5517V35.2759H37.6552V34.1724Z" fill="#A9AEB8"/>
<path d="M39.8621 34.1724H38.7586V35.2759H39.8621V34.1724Z" fill="#A9AEB8"/>
<path d="M40.9655 34.1724H39.8621V35.2759H40.9655V34.1724Z" fill="#A9AEB8"/>
<path d="M45.3793 34.1724H44.2758V35.2759H45.3793V34.1724Z" fill="#A9AEB8"/>
<path d="M48.6897 34.1724H47.5862V35.2759H48.6897V34.1724Z" fill="#A9AEB8"/>
<path d="M49.7931 34.1724H48.6897V35.2759H49.7931V34.1724Z" fill="#A9AEB8"/>
<path d="M34.3448 35.2759H33.2414V36.3793H34.3448V35.2759Z" fill="#A9AEB8"/>
<path d="M35.4483 35.2759H34.3448V36.3793H35.4483V35.2759Z" fill="#A9AEB8"/>
<path d="M36.5517 35.2759H35.4483V36.3793H36.5517V35.2759Z" fill="#A9AEB8"/>
<path d="M37.6552 35.2759H36.5517V36.3793H37.6552V35.2759Z" fill="#A9AEB8"/>
<path d="M39.8621 35.2759H38.7586V36.3793H39.8621V35.2759Z" fill="#A9AEB8"/>
<path d="M40.9655 35.2759H39.8621V36.3793H40.9655V35.2759Z" fill="#A9AEB8"/>
<path d="M42.069 35.2759H40.9655V36.3793H42.069V35.2759Z" fill="#A9AEB8"/>
<path d="M43.1724 35.2759H42.069V36.3793H43.1724V35.2759Z" fill="#A9AEB8"/>
<path d="M44.2759 35.2759H43.1724V36.3793H44.2759V35.2759Z" fill="#A9AEB8"/>
<path d="M45.3793 35.2759H44.2758V36.3793H45.3793V35.2759Z" fill="#A9AEB8"/>
<path d="M48.6897 35.2759H47.5862V36.3793H48.6897V35.2759Z" fill="#A9AEB8"/>
<path d="M49.7931 35.2759H48.6897V36.3793H49.7931V35.2759Z" fill="#A9AEB8"/>
<path d="M33.2414 36.3793H32.1379V37.4828H33.2414V36.3793Z" fill="#A9AEB8"/>
<path d="M36.5517 36.3793H35.4483V37.4828H36.5517V36.3793Z" fill="#A9AEB8"/>
<path d="M40.9655 36.3793H39.8621V37.4828H40.9655V36.3793Z" fill="#A9AEB8"/>
<path d="M42.069 36.3793H40.9655V37.4828H42.069V36.3793Z" fill="#A9AEB8"/>
<path d="M45.3793 36.3793H44.2758V37.4828H45.3793V36.3793Z" fill="#A9AEB8"/>
<path d="M47.5862 36.3793H46.4828V37.4828H47.5862V36.3793Z" fill="#A9AEB8"/>
<path d="M48.6897 36.3793H47.5862V37.4828H48.6897V36.3793Z" fill="#A9AEB8"/>
<path d="M32.1379 37.4828H31.0345V38.5862H32.1379V37.4828Z" fill="#A9AEB8"/>
<path d="M33.2414 37.4828H32.1379V38.5862H33.2414V37.4828Z" fill="#A9AEB8"/>
<path d="M36.5517 37.4828H35.4483V38.5862H36.5517V37.4828Z" fill="#A9AEB8"/>
<path d="M37.6552 37.4828H36.5517V38.5862H37.6552V37.4828Z" fill="#A9AEB8"/>
<path d="M38.7586 37.4828H37.6552V38.5862H38.7586V37.4828Z" fill="#A9AEB8"/>
<path d="M42.069 37.4828H40.9655V38.5862H42.069V37.4828Z" fill="#A9AEB8"/>
<path d="M44.2759 37.4828H43.1724V38.5862H44.2759V37.4828Z" fill="#A9AEB8"/>
<path d="M45.3793 37.4828H44.2758V38.5862H45.3793V37.4828Z" fill="#A9AEB8"/>
<path d="M46.4828 37.4828H45.3793V38.5862H46.4828V37.4828Z" fill="#A9AEB8"/>
<path d="M48.6897 37.4828H47.5862V38.5862H48.6897V37.4828Z" fill="#A9AEB8"/>
<path d="M49.7931 37.4828H48.6897V38.5862H49.7931V37.4828Z" fill="#A9AEB8"/>
<path d="M33.2414 38.5862H32.1379V39.6896H33.2414V38.5862Z" fill="#A9AEB8"/>
<path d="M34.3448 38.5862H33.2414V39.6896H34.3448V38.5862Z" fill="#A9AEB8"/>
<path d="M35.4483 38.5862H34.3448V39.6896H35.4483V38.5862Z" fill="#A9AEB8"/>
<path d="M36.5517 38.5862H35.4483V39.6896H36.5517V38.5862Z" fill="#A9AEB8"/>
<path d="M38.7586 38.5862H37.6552V39.6896H38.7586V38.5862Z" fill="#A9AEB8"/>
<path d="M40.9655 38.5862H39.8621V39.6896H40.9655V38.5862Z" fill="#A9AEB8"/>
<path d="M44.2759 38.5862H43.1724V39.6896H44.2759V38.5862Z" fill="#A9AEB8"/>
<path d="M45.3793 38.5862H44.2758V39.6896H45.3793V38.5862Z" fill="#A9AEB8"/>
<path d="M32.1379 39.6896H31.0345V40.7931H32.1379V39.6896Z" fill="#A9AEB8"/>
<path d="M33.2414 39.6896H32.1379V40.7931H33.2414V39.6896Z" fill="#A9AEB8"/>
<path d="M34.3448 39.6896H33.2414V40.7931H34.3448V39.6896Z" fill="#A9AEB8"/>
<path d="M37.6552 39.6896H36.5517V40.7931H37.6552V39.6896Z" fill="#A9AEB8"/>
<path d="M38.7586 39.6896H37.6552V40.7931H38.7586V39.6896Z" fill="#A9AEB8"/>
<path d="M39.8621 39.6896H38.7586V40.7931H39.8621V39.6896Z" fill="#A9AEB8"/>
<path d="M40.9655 39.6896H39.8621V40.7931H40.9655V39.6896Z" fill="#A9AEB8"/>
<path d="M43.1724 39.6896H42.069V40.7931H43.1724V39.6896Z" fill="#A9AEB8"/>
<path d="M46.4828 39.6896H45.3793V40.7931H46.4828V39.6896Z" fill="#A9AEB8"/>
<path d="M49.7931 39.6896H48.6897V40.7931H49.7931V39.6896Z" fill="#A9AEB8"/>
<path d="M28.7724 13.2069H23.3655H22.2069V14.3655V19.7724V20.931H23.3655H28.7724H29.931V19.7724V14.3655V13.2069H28.7724ZM28.7724 19.7724H23.3655V14.3655H28.7724V19.7724Z" fill="#A9AEB8"/>
<path d="M48.6345 13.2069H43.2276H42.069V14.3655V19.7724V20.931H43.2276H48.6345H49.7931V19.7724V14.3655V13.2069H48.6345ZM48.6345 19.7724H43.2276V14.3655H48.6345V19.7724Z" fill="#A9AEB8"/>
<path d="M28.7724 33.069H23.3655H22.2069V34.2276V39.6345V40.7931H23.3655H28.7724H29.931V39.6345V34.2276V33.069H28.7724ZM28.7724 39.6345H23.3655V34.2276H28.7724V39.6345Z" fill="#A9AEB8"/>
<path d="M27.7241 15.4138H24.4138V18.7242H27.7241V15.4138Z" fill="#A9AEB8"/>
<path d="M47.5862 15.4138H44.2758V18.7242H47.5862V15.4138Z" fill="#A9AEB8"/>
<path d="M27.7241 35.2759H24.4138V38.5862H27.7241V35.2759Z" fill="#A9AEB8"/>
</svg>
