<svg width="72" height="54" viewBox="0 0 72 54" fill="none" xmlns="http://www.w3.org/2000/svg">
    <rect x="14" y="17" width="44" height="20" rx="4" fill="#DADEE6"/>
    <g filter="url(#dxkfp4c1wa)">
        <path d="m24.268 28.05 1.21-3.33h.02l1.19 3.33h-2.42zm.71-4.19L22.198 31h.97l.8-2.15h3.02l.78 2.15h1.05l-2.79-7.14h-1.05z" fill="#A9AEB8"/>
    </g>
    <rect x="36" y="18" width="21" height="18" rx="3" fill="#fff"/>
    <path d="M44.807 26.93v-2.27h1.9c.207 0 .4.013.58.04.187.02.35.07.49.15.14.08.25.193.33.34.08.147.12.347.12.6 0 .38-.12.667-.36.86-.233.187-.62.28-1.16.28h-1.9zm-.95-3.07V31h3.45c.353 0 .663-.057.93-.17.273-.12.5-.273.68-.46.187-.193.327-.413.42-.66.093-.247.14-.5.14-.76 0-.44-.116-.813-.35-1.12-.233-.307-.57-.507-1.01-.6v-.02c.34-.133.6-.337.78-.61.187-.28.28-.61.28-.99 0-.36-.083-.663-.25-.91a1.812 1.812 0 0 0-.59-.58 1.218 1.218 0 0 0-.39-.15 3.315 3.315 0 0 0-.48-.07 4.62 4.62 0 0 0-.53-.03c-.173-.007-.337-.01-.49-.01h-2.59zm.95 6.34v-2.47h2.17c.2 0 .394.02.58.06.187.033.35.097.49.19a.955.955 0 0 1 .35.36c.087.153.13.347.13.58 0 .4-.12.713-.36.94-.233.227-.56.34-.98.34h-2.38z" fill="#A9AEB8"/>
    <defs>
        <filter id="dxkfp4c1wa" x="11" y="16" width="29" height="26" filterUnits="userSpaceOnUse" color-interpolation-filters="sRGB">
            <feFlood flood-opacity="0" result="BackgroundImageFix"/>
            <feColorMatrix in="SourceAlpha" values="0 0 0 0 0 0 0 0 0 0 0 0 0 0 0 0 0 0 127 0" result="hardAlpha"/>
            <feOffset dy="2"/>
            <feGaussianBlur stdDeviation="2"/>
            <feColorMatrix values="0 0 0 0 0.101961 0 0 0 0 0.133333 0 0 0 0 0.2 0 0 0 0.04 0"/>
            <feBlend in2="BackgroundImageFix" result="effect1_dropShadow_2817_7776"/>
            <feBlend in="SourceGraphic" in2="effect1_dropShadow_2817_7776" result="shape"/>
        </filter>
    </defs>
</svg>
