<svg width="72" height="54" viewBox="0 0 72 54" fill="none" xmlns="http://www.w3.org/2000/svg">
    <path d="M15.558 20.838a.5.5 0 0 1 .884 0l1.583 3a.5.5 0 0 0 .357.26l3.342.577a.5.5 0 0 1 .273.841l-2.364 2.433a.5.5 0 0 0-.136.42l.483 3.356a.5.5 0 0 1-.716.52l-3.043-1.496a.5.5 0 0 0-.442 0l-3.043 1.496a.5.5 0 0 1-.716-.52l.483-3.357a.5.5 0 0 0-.136-.42l-2.364-2.431a.5.5 0 0 1 .273-.842l3.342-.578a.5.5 0 0 0 .357-.26l1.583-2.999zM35.558 20.838a.5.5 0 0 1 .884 0l1.583 3a.5.5 0 0 0 .357.26l3.342.577a.5.5 0 0 1 .273.841l-2.364 2.433a.5.5 0 0 0-.136.42l.483 3.356a.5.5 0 0 1-.716.52l-3.043-1.496a.5.5 0 0 0-.442 0l-3.043 1.496a.5.5 0 0 1-.716-.52l.483-3.357a.5.5 0 0 0-.136-.42l-2.364-2.431a.5.5 0 0 1 .273-.842l3.342-.578a.5.5 0 0 0 .357-.26l1.583-2.999z" fill="#A9AEB8"/>
    <path d="M55.558 20.838a.5.5 0 0 1 .884 0l1.583 3a.5.5 0 0 0 .357.26l3.342.577a.5.5 0 0 1 .273.841l-2.364 2.433a.5.5 0 0 0-.136.42l.483 3.356a.5.5 0 0 1-.716.52l-3.043-1.496a.5.5 0 0 0-.442 0l-3.043 1.496a.5.5 0 0 1-.716-.52l.483-3.357a.5.5 0 0 0-.136-.42l-2.364-2.431a.5.5 0 0 1 .273-.842l3.342-.578a.5.5 0 0 0 .357-.26l1.583-2.999z" fill="#DADEE6"/>
</svg>
