<svg width="72" height="54" viewBox="0 0 72 54" fill="none" xmlns="http://www.w3.org/2000/svg">
<rect x="12.5" y="9.5" width="47" height="35" rx="3.5" fill="white"/>
<path d="M16 28H45" stroke="#E5E6EB" stroke-linecap="round"/>
<path d="M16 32L45 32.0006" stroke="#E5E6EB" stroke-linecap="round"/>
<path d="M16 36.0005L56 36.0014" stroke="#E5E6EB" stroke-linecap="round"/>
<path d="M16 40.0013L56 40.0022" stroke="#E5E6EB" stroke-linecap="round"/>
<path d="M19.8036 22.3143L19.8041 22.3143C20.2125 22.312 20.6101 22.1832 20.9422 21.9457C21.2743 21.7081 21.5247 21.3735 21.6587 20.9877C21.7928 20.602 21.804 20.1843 21.6908 19.7919C21.587 19.4318 21.383 19.1094 21.1036 18.8616C21.3117 18.5898 21.446 18.2681 21.4925 17.9278C21.5434 17.5543 21.4865 17.1739 21.3282 16.8318C21.17 16.4896 20.9171 16.1998 20.5995 15.9967C20.2818 15.7937 19.9127 15.6857 19.5357 15.6857H19.5357H16.5H16.4V15.7857V22.2143V22.3143H16.5L19.8036 22.3143ZM19.7964 21.0428H17.6714V19.6357H19.7964C19.8888 19.6357 19.9803 19.6539 20.0657 19.6893C20.151 19.7246 20.2286 19.7764 20.2939 19.8418C20.3593 19.9071 20.4111 19.9847 20.4464 20.07C20.4818 20.1554 20.5 20.2469 20.5 20.3393C20.5 20.4317 20.4818 20.5232 20.4464 20.6085C20.4111 20.6939 20.3593 20.7714 20.2939 20.8368C20.2286 20.9021 20.151 20.9539 20.0657 20.9893C19.9803 21.0246 19.8888 21.0428 19.7964 21.0428ZM19.5357 18.3643H17.6714V16.9571H19.5357C19.6281 16.9571 19.7196 16.9753 19.805 17.0107C19.8903 17.046 19.9679 17.0979 20.0332 17.1632C20.0985 17.2285 20.1504 17.3061 20.1857 17.3915C20.2211 17.4768 20.2393 17.5683 20.2393 17.6607C20.2393 17.7531 20.2211 17.8446 20.1857 17.93C20.1504 18.0153 20.0985 18.0929 20.0332 18.1582C19.9679 18.2235 19.8903 18.2754 19.805 18.3107C19.7196 18.3461 19.6281 18.3643 19.5357 18.3643Z" fill="#A9AEB8" stroke="#A9AEB8" stroke-width="0.2"/>
<path d="M33.2143 16.6H33.3143V16.5V15.7857V15.6857H33.2143H28.5714H28.4714V15.7857V16.5V16.6H28.5714H30.2712L28.7729 21.4H26.7857H26.6857V21.5V22.2143V22.3143H26.7857H31.4286H31.5286V22.2143V21.5V21.4H31.4286H29.7288L31.2271 16.6H33.2143Z" fill="#A9AEB8" stroke="#A9AEB8" stroke-width="0.2"/>
<path d="M45.3857 18.6429V18.5429H45.2857H41.7118C41.5564 18.5012 41.4003 18.4622 41.2435 18.4259C40.7376 18.3062 40.3639 18.2068 40.1143 18.0437C39.9926 17.9642 39.9035 17.8712 39.844 17.7552C39.7841 17.6386 39.7507 17.4921 39.7507 17.3007H39.7509L39.7506 17.2949C39.7432 17.1685 39.7619 17.0419 39.8056 16.9229C39.8485 16.8059 39.9147 16.6988 40.0001 16.608C40.2849 16.3756 40.6407 16.2476 41.0085 16.2454L41.0085 16.2454L41.0103 16.2453C41.504 16.2331 41.8557 16.3109 42.1276 16.4492C42.3992 16.5874 42.5999 16.7904 42.785 17.0437L42.844 17.1244L42.9247 17.0654L43.5015 16.644L43.5804 16.5863L43.5246 16.5061C43.2445 16.1038 42.8626 15.7831 42.418 15.5768C41.9747 15.371 41.4848 15.2863 40.9982 15.3311C40.398 15.336 39.8193 15.555 39.3662 15.9488L39.366 15.9486L39.3606 15.9541C39.1857 16.1315 39.049 16.3428 38.9589 16.5751C38.8694 16.8058 38.8279 17.0523 38.8367 17.2996C38.8209 17.5719 38.8725 17.8439 38.9868 18.0916C39.0638 18.2585 39.1676 18.4108 39.2937 18.5429H36.7143H36.6143V18.6429V19.3572V19.4572H36.7143H41.5757C41.9173 19.5571 42.1738 19.6682 42.3474 19.8319C42.5182 19.9928 42.6182 20.2139 42.6232 20.5579L42.6231 20.5579L42.6235 20.5639C42.6341 20.7059 42.6146 20.8486 42.5663 20.9827C42.5188 21.1146 42.4444 21.2352 42.348 21.3368C41.9893 21.6175 41.5447 21.766 41.0892 21.7572C40.7454 21.7471 40.4084 21.6591 40.1037 21.4997C39.7988 21.3402 39.5341 21.1135 39.3297 20.8367L39.2666 20.7511L39.1851 20.8194L38.6376 21.278L38.5649 21.3389L38.6218 21.4147C38.9083 21.7965 39.278 22.1081 39.7028 22.3258C40.1276 22.5436 40.5964 22.6618 41.0737 22.6714L41.0737 22.6714H41.0757H41.1109C41.7943 22.6791 42.4576 22.4401 42.979 21.9981L42.9792 21.9984L42.9853 21.9922C43.1737 21.8022 43.3202 21.5749 43.4153 21.3248C43.5099 21.076 43.5515 20.8103 43.5376 20.5445C43.5486 20.157 43.4389 19.7773 43.2261 19.4572H45.2857H45.3857V19.3572V18.6429Z" fill="#A9AEB8" stroke="#A9AEB8" stroke-width="0.2"/>
<rect x="12.5" y="9.5" width="47" height="35" rx="3.5" stroke="#A9AEB8"/>
</svg>
