<svg width="72" height="54" viewBox="0 0 72 54" fill="none" xmlns="http://www.w3.org/2000/svg">
<path d="M26.0758 14.0804L26.2168 13.6007L26.0758 14.0804ZM37.2455 23.6947L37.6198 23.3633L37.2455 23.6947ZM33.5 37L33.7908 36.5933L33.5 37ZM44.2265 29.4632L44.694 29.2857C44.6317 29.1217 44.488 29.0024 44.3154 28.9712C44.1428 28.94 43.9664 29.0016 43.8507 29.1334L44.2265 29.4632ZM18.9885 41.3479C19.0469 41.2877 19.1643 41.1331 19.3012 40.9476C19.4511 40.7444 19.6543 40.4625 19.9 40.1127C20.3914 39.4129 21.0556 38.4381 21.8077 37.2735C23.3107 34.946 25.1711 31.8513 26.7065 28.674C28.2357 25.5095 29.4688 22.2108 29.6717 19.4897C29.7734 18.1254 29.62 16.8603 29.0722 15.8233C28.5153 14.7692 27.5769 14.0006 26.2168 13.6007L25.9347 14.5601C27.0608 14.8912 27.7688 15.497 28.188 16.2904C28.6161 17.1009 28.7683 18.1565 28.6745 19.4154C28.4862 21.9408 27.3234 25.0991 25.8061 28.2389C24.295 31.3659 22.4582 34.4229 20.9676 36.731C20.2228 37.8843 19.566 38.8483 19.0816 39.5379C18.8394 39.8829 18.6409 40.1583 18.4966 40.3538C18.3393 40.567 18.2699 40.6525 18.2701 40.6523L18.9885 41.3479ZM26.2168 13.6007C25.1683 13.2924 24.1603 13.5171 23.2554 14.0944C22.3629 14.6637 21.5604 15.5797 20.8635 16.6929C19.4683 18.9213 18.4211 22.06 17.9252 25.241C17.43 28.4181 17.474 31.7067 18.324 34.2275C18.7503 35.4918 19.3886 36.59 20.2906 37.3749C21.2012 38.1673 22.3531 38.6159 23.7488 38.6159V37.6159C22.5847 37.6159 21.6684 37.2483 20.9471 36.6206C20.2172 35.9854 19.6599 35.0596 19.2716 33.908C18.4924 31.5971 18.4314 28.4868 18.9133 25.395C19.3946 22.307 20.4067 19.3068 21.711 17.2236C22.3638 16.181 23.0711 15.3981 23.7932 14.9374C24.5029 14.4847 25.2143 14.3483 25.9347 14.5601L26.2168 13.6007ZM23.7488 38.6159C29.022 38.6159 33.594 36.1422 36.3086 33.0363C38.9916 29.9666 40.0039 26.0559 37.6198 23.3633L36.8711 24.0262C38.7416 26.1388 38.1249 29.4387 35.5557 32.3782C33.0181 35.2816 28.7144 37.6159 23.7488 37.6159V38.6159ZM37.6198 23.3633C36.9683 22.6274 36.2729 22.1801 35.5498 22.0336C34.8183 21.8854 34.1231 22.0582 33.5087 22.4408C32.3101 23.1871 31.376 24.7504 30.8167 26.5306C30.2514 28.33 30.0369 30.4485 30.3607 32.4106C30.6844 34.3728 31.5565 36.2249 33.2092 37.4067L33.7908 36.5933C32.4184 35.6119 31.6427 34.0378 31.3473 32.2478C31.0519 30.4577 31.2468 28.498 31.7708 26.8304C32.3007 25.1435 33.1357 23.851 34.0373 23.2897C34.473 23.0184 34.9107 22.9245 35.3512 23.0137C35.8001 23.1047 36.3158 23.399 36.8711 24.0262L37.6198 23.3633ZM33.2092 37.4067C34.5404 38.3586 35.8412 38.5131 37.0603 38.1145C38.2426 37.7279 39.2948 36.8386 40.2152 35.8151C41.1408 34.7858 41.9758 33.5714 42.7076 32.4754C43.4532 31.3591 44.0739 30.3951 44.6023 29.793L43.8507 29.1334C43.2659 29.7997 42.5942 30.8447 41.876 31.9201C41.1442 33.0159 40.3442 34.1761 39.4716 35.1465C38.5937 36.1227 37.6843 36.8583 36.7495 37.164C35.8514 37.4577 34.8797 37.3719 33.7908 36.5933L33.2092 37.4067ZM43.7591 29.6407C43.9224 30.0708 43.9883 30.6188 44.0095 31.2409C44.0317 31.8916 44.0059 32.4687 44.0166 33.1195C44.0264 33.7109 44.0679 34.3288 44.2659 34.8078C44.3692 35.0577 44.5255 35.2969 44.7659 35.4718C45.0107 35.6497 45.3024 35.7317 45.6227 35.7317V34.7317C45.4777 34.7317 45.4009 34.6971 45.354 34.663C45.3029 34.6258 45.2445 34.5576 45.1901 34.4258C45.0726 34.1415 45.0264 33.6992 45.0165 33.103C45.0076 32.5663 45.0301 31.8285 45.0089 31.2068C44.9867 30.5563 44.9174 29.874 44.694 29.2857L43.7591 29.6407ZM45.6227 35.7317C45.9838 35.7317 46.319 35.5929 46.6152 35.4106C46.9133 35.2271 47.2091 34.9764 47.4993 34.7C48.0575 34.1686 48.7254 33.4083 49.3656 32.7585C50.7311 31.3725 52.203 30.2316 53.9403 30.4404L54.0597 29.4475C51.797 29.1756 50.011 30.6785 48.6533 32.0566C47.9319 32.7889 47.3719 33.4406 46.8098 33.9758C46.5399 34.2327 46.3025 34.4289 46.091 34.559C45.8777 34.6903 45.7271 34.7317 45.6227 34.7317V35.7317Z" fill="#A9AEB8"/>
</svg>
