<svg
  width="72"
  height="54"
  viewBox="0 0 72 54"
  fill="none"
  xmlns="http://www.w3.org/2000/svg"
>
  <path
    d="M12.1562 21.9326V33H9.39453V27.0664C9.39453 26.2096 9.37402 25.6947 9.33301 25.5215C9.29199 25.3483 9.17806 25.2184 8.99121 25.1318C8.80892 25.0407 8.39876 24.9951 7.76074 24.9951H7.4873V23.7031C8.82259 23.416 9.83659 22.8258 10.5293 21.9326H12.1562ZM19.7441 25.6787V29.3701C19.7441 30.2087 19.6986 30.8193 19.6074 31.2021C19.5163 31.585 19.3271 31.9427 19.04 32.2754C18.7529 32.6081 18.4066 32.8473 18.001 32.9932C17.5954 33.139 17.1419 33.2119 16.6406 33.2119C15.9798 33.2119 15.4307 33.1367 14.9932 32.9863C14.5557 32.8314 14.207 32.5921 13.9473 32.2686C13.6875 31.945 13.5029 31.6055 13.3936 31.25C13.2842 30.89 13.2295 30.3203 13.2295 29.541V25.6787C13.2295 24.6624 13.3161 23.9014 13.4893 23.3955C13.667 22.8896 14.0156 22.484 14.5352 22.1787C15.0592 21.8734 15.6927 21.7207 16.4355 21.7207C17.0417 21.7207 17.584 21.8278 18.0625 22.042C18.541 22.2516 18.8988 22.5091 19.1357 22.8145C19.3727 23.1198 19.5322 23.4639 19.6143 23.8467C19.7008 24.2295 19.7441 24.8402 19.7441 25.6787ZM16.9824 24.749C16.9824 24.1611 16.9528 23.7943 16.8936 23.6484C16.8389 23.498 16.7067 23.4229 16.4971 23.4229C16.292 23.4229 16.1553 23.5026 16.0869 23.6621C16.0231 23.8171 15.9912 24.1794 15.9912 24.749V30.1494C15.9912 30.792 16.0208 31.1794 16.0801 31.3115C16.1439 31.4437 16.2783 31.5098 16.4834 31.5098C16.6885 31.5098 16.8229 31.4323 16.8867 31.2773C16.9505 31.1224 16.9824 30.7738 16.9824 30.2314V24.749ZM22.3418 30.833V31.8242C22.3418 32.3438 22.2803 32.7699 22.1572 33.1025C22.0342 33.4352 21.82 33.7178 21.5146 33.9502C21.2139 34.1826 20.8721 34.3376 20.4893 34.415V33.6221C20.7627 33.4671 20.9176 33.2598 20.9541 33H20.4893V30.833H22.3418ZM27.3457 21.9326V33H24.584V27.0664C24.584 26.2096 24.5635 25.6947 24.5225 25.5215C24.4814 25.3483 24.3675 25.2184 24.1807 25.1318C23.9984 25.0407 23.5882 24.9951 22.9502 24.9951H22.6768V23.7031C24.012 23.416 25.026 22.8258 25.7188 21.9326H27.3457ZM33.6074 26.7314C34.0267 26.8727 34.3389 27.1051 34.5439 27.4287C34.749 27.7477 34.8516 28.4997 34.8516 29.6846C34.8516 30.5641 34.7513 31.2477 34.5508 31.7354C34.3503 32.2184 34.0039 32.5876 33.5117 32.8428C33.0195 33.0934 32.3883 33.2188 31.6182 33.2188C30.7432 33.2188 30.055 33.0729 29.5537 32.7812C29.057 32.485 28.7288 32.125 28.5693 31.7012C28.4144 31.2728 28.3369 30.5322 28.3369 29.4795V28.6045H31.0986V30.4023C31.0986 30.8809 31.126 31.1862 31.1807 31.3184C31.2399 31.446 31.3675 31.5098 31.5635 31.5098C31.7777 31.5098 31.9189 31.4277 31.9873 31.2637C32.0557 31.0996 32.0898 30.6712 32.0898 29.9785V29.2129C32.0898 28.7891 32.042 28.4792 31.9463 28.2832C31.8506 28.0872 31.7093 27.9596 31.5225 27.9004C31.3356 27.8366 30.9733 27.8001 30.4355 27.791V26.1846C31.0918 26.1846 31.4974 26.1595 31.6523 26.1094C31.8073 26.0592 31.9189 25.9499 31.9873 25.7812C32.0557 25.6126 32.0898 25.3483 32.0898 24.9883V24.373C32.0898 23.9857 32.0488 23.7305 31.9668 23.6074C31.8893 23.4844 31.7663 23.4229 31.5977 23.4229C31.4062 23.4229 31.2741 23.4889 31.2012 23.6211C31.1328 23.7487 31.0986 24.0244 31.0986 24.4482V25.3574H28.3369V24.4141C28.3369 23.3568 28.5785 22.6436 29.0615 22.2744C29.5446 21.9007 30.3125 21.7139 31.3652 21.7139C32.6823 21.7139 33.5755 21.9714 34.0449 22.4863C34.5143 23.0013 34.749 23.7168 34.749 24.6328C34.749 25.2526 34.6647 25.7015 34.4961 25.9795C34.3275 26.2529 34.0312 26.5036 33.6074 26.7314ZM41.7969 31.1133V33H35.7197V31.4209C37.5199 28.4769 38.5885 26.6562 38.9258 25.959C39.2676 25.2572 39.4385 24.7103 39.4385 24.3184C39.4385 24.0176 39.3861 23.7943 39.2812 23.6484C39.181 23.498 39.026 23.4229 38.8164 23.4229C38.6068 23.4229 38.4495 23.5049 38.3447 23.6689C38.2445 23.833 38.1943 24.1589 38.1943 24.6465V25.6992H35.7197V25.2959C35.7197 24.6761 35.7516 24.1885 35.8154 23.833C35.8792 23.473 36.0365 23.1198 36.2871 22.7734C36.5378 22.4271 36.8636 22.165 37.2646 21.9873C37.6657 21.8096 38.1465 21.7207 38.707 21.7207C39.8053 21.7207 40.6348 21.9941 41.1953 22.541C41.7604 23.0833 42.043 23.7715 42.043 24.6055C42.043 25.2389 41.8835 25.9089 41.5645 26.6152C41.25 27.3216 40.318 28.821 38.7686 31.1133H41.7969ZM44.4766 30.833V31.8242C44.4766 32.3438 44.415 32.7699 44.292 33.1025C44.1689 33.4352 43.9548 33.7178 43.6494 33.9502C43.3486 34.1826 43.0068 34.3376 42.624 34.415V33.6221C42.8975 33.4671 43.0524 33.2598 43.0889 33H42.624V30.833H44.4766ZM51.7363 25.6787V29.3701C51.7363 30.2087 51.6908 30.8193 51.5996 31.2021C51.5085 31.585 51.3193 31.9427 51.0322 32.2754C50.7451 32.6081 50.3988 32.8473 49.9932 32.9932C49.5876 33.139 49.1341 33.2119 48.6328 33.2119C47.972 33.2119 47.4229 33.1367 46.9854 32.9863C46.5479 32.8314 46.1992 32.5921 45.9395 32.2686C45.6797 31.945 45.4951 31.6055 45.3857 31.25C45.2764 30.89 45.2217 30.3203 45.2217 29.541V25.6787C45.2217 24.6624 45.3083 23.9014 45.4814 23.3955C45.6592 22.8896 46.0078 22.484 46.5273 22.1787C47.0514 21.8734 47.6849 21.7207 48.4277 21.7207C49.0339 21.7207 49.5762 21.8278 50.0547 22.042C50.5332 22.2516 50.891 22.5091 51.1279 22.8145C51.3649 23.1198 51.5244 23.4639 51.6064 23.8467C51.693 24.2295 51.7363 24.8402 51.7363 25.6787ZM48.9746 24.749C48.9746 24.1611 48.945 23.7943 48.8857 23.6484C48.8311 23.498 48.6989 23.4229 48.4893 23.4229C48.2842 23.4229 48.1475 23.5026 48.0791 23.6621C48.0153 23.8171 47.9834 24.1794 47.9834 24.749V30.1494C47.9834 30.792 48.013 31.1794 48.0723 31.3115C48.1361 31.4437 48.2705 31.5098 48.4756 31.5098C48.6807 31.5098 48.8151 31.4323 48.8789 31.2773C48.9427 31.1224 48.9746 30.7738 48.9746 30.2314V24.749ZM58.6816 31.1133V33H52.6045V31.4209C54.4046 28.4769 55.4733 26.6562 55.8105 25.959C56.1523 25.2572 56.3232 24.7103 56.3232 24.3184C56.3232 24.0176 56.2708 23.7943 56.166 23.6484C56.0658 23.498 55.9108 23.4229 55.7012 23.4229C55.4915 23.4229 55.3343 23.5049 55.2295 23.6689C55.1292 23.833 55.0791 24.1589 55.0791 24.6465V25.6992H52.6045V25.2959C52.6045 24.6761 52.6364 24.1885 52.7002 23.833C52.764 23.473 52.9212 23.1198 53.1719 22.7734C53.4225 22.4271 53.7484 22.165 54.1494 21.9873C54.5505 21.8096 55.0312 21.7207 55.5918 21.7207C56.6901 21.7207 57.5195 21.9941 58.0801 22.541C58.6452 23.0833 58.9277 23.7715 58.9277 24.6055C58.9277 25.2389 58.7682 25.9089 58.4492 26.6152C58.1348 27.3216 57.2028 28.821 55.6533 31.1133H58.6816ZM64.0137 21.9326V33H61.252V27.0664C61.252 26.2096 61.2314 25.6947 61.1904 25.5215C61.1494 25.3483 61.0355 25.2184 60.8486 25.1318C60.6663 25.0407 60.2562 24.9951 59.6182 24.9951H59.3447V23.7031C60.68 23.416 61.694 22.8258 62.3867 21.9326H64.0137Z"
    fill="#A9AEB8"
  />
</svg>
