<svg width="72" height="54" viewBox="0 0 72 54" fill="none" xmlns="http://www.w3.org/2000/svg">
    <g clip-path="url(#clip0_10969_1568)">
        <circle cx="20" cy="27" r="8" fill="#DADEE6"/>
        <path fill-rule="evenodd" clip-rule="evenodd" d="M22.5754 24.8704C22.7851 25.0501 22.8093 25.3657 22.6296 25.5754L19.6296 29.0754C19.539 29.1811 19.4084 29.2443 19.2692 29.2496C19.13 29.255 18.9949 29.202 18.8964 29.1036L17.3964 27.6036C17.2012 27.4083 17.2012 27.0917 17.3964 26.8965C17.5917 26.7012 17.9083 26.7012 18.1036 26.8965L19.2218 28.0147L21.8704 24.9246C22.0501 24.715 22.3657 24.6907 22.5754 24.8704Z" fill="#A9AEB8"/>
    </g>
    <path d="M32 27.5H40V26.5H32V27.5Z" fill="#A9AEB8"/>
    <g clip-path="url(#clip1_10969_1568)">
        <circle cx="52" cy="27" r="8" fill="#A9AEB8"/>
        <path d="M49.8079 30.6667H54.3059V29.8054H51.1751V29.7644L52.6699 28.297C53.8502 27.1303 54.2011 26.5971 54.2011 25.8451V25.836C54.2011 24.7742 53.2988 23.9812 52.0364 23.9812C50.7513 23.9812 49.7532 24.8334 49.7532 26.0092V26.0365H50.7194V26.0092C50.7285 25.3438 51.2799 24.8243 52.0501 24.8243C52.7155 24.8243 53.1894 25.2709 53.194 25.8953V25.9044C53.194 26.4148 52.998 26.7611 52.123 27.6361L49.8079 29.9649V30.6667Z" fill="white"/>
    </g>
    <defs>
        <clipPath id="clip0_10969_1568">
            <rect width="16" height="16" fill="white" transform="translate(12 19)"/>
        </clipPath>
        <clipPath id="clip1_10969_1568">
            <rect width="16" height="16" fill="white" transform="translate(44 19)"/>
        </clipPath>
    </defs>
</svg>
