<svg width="72" height="54" viewBox="0 0 72 54" fill="none" xmlns="http://www.w3.org/2000/svg">
<path d="M47.2219 25.0094C47.4172 24.8141 47.7338 24.8141 47.929 25.0094L50.1091 27.1895L52.2267 25.0719C52.4219 24.8766 52.7385 24.8766 52.9338 25.0719L53.2873 25.4254C53.4826 25.6207 53.4826 25.9373 53.2873 26.1325L50.4589 28.961C50.2637 29.1562 49.9471 29.1562 49.7518 28.961L49.3983 28.6074C49.3807 28.5899 49.3648 28.5714 49.3504 28.5521L46.8684 26.0701C46.6731 25.8748 46.6731 25.5582 46.8684 25.363L47.2219 25.0094Z" fill="#654AEC"/>
<rect x="14.5" y="10.5" width="43" height="33" rx="3.5" fill="#EADEFF" stroke="#654AEC"/>
<path d="M15 14C15 12.3431 16.3431 11 18 11H54C55.6569 11 57 12.3431 57 14V19H15V14Z" fill="#D6C7FB"/>
<path d="M28.0001 19L28 43" stroke="#D6C7FB"/>
<path d="M44.0001 19L44 43" stroke="#D6C7FB"/>
<path d="M15 27H57" stroke="#D6C7FB"/>
<path d="M15 35H57" stroke="#D6C7FB"/>
</svg>
