<svg width="72" height="54" viewBox="0 0 72 54" fill="none" xmlns="http://www.w3.org/2000/svg">
<rect x="14.5" y="15.5" width="43" height="23" rx="5.5" fill="white"/>
<rect x="14.5" y="15.5" width="43" height="23" rx="5.5" stroke="#A9AEB8"/>
<path d="M25.9464 23.4062V22.2727H32.7006V23.4062H29.9776V31H28.6651V23.4062H25.9464ZM35.1051 31.1449C34.6903 31.1449 34.3153 31.0682 33.9801 30.9148C33.6449 30.7585 33.3793 30.5327 33.1832 30.2372C32.9901 29.9418 32.8935 29.5795 32.8935 29.1506C32.8935 28.7812 32.9645 28.4773 33.1065 28.2386C33.2486 28 33.4403 27.8111 33.6818 27.6719C33.9233 27.5327 34.1932 27.4276 34.4915 27.3565C34.7898 27.2855 35.0938 27.2315 35.4034 27.1946C35.7955 27.1491 36.1136 27.1122 36.358 27.0838C36.6023 27.0526 36.7798 27.0028 36.8906 26.9347C37.0014 26.8665 37.0568 26.7557 37.0568 26.6023V26.5724C37.0568 26.2003 36.9517 25.9119 36.7415 25.7074C36.5341 25.5028 36.2244 25.4006 35.8125 25.4006C35.3835 25.4006 35.0455 25.4957 34.7983 25.6861C34.554 25.8736 34.3849 26.0824 34.2912 26.3125L33.0938 26.0398C33.2358 25.642 33.4432 25.321 33.7159 25.0767C33.9915 24.8295 34.3082 24.6506 34.6662 24.5398C35.0241 24.4261 35.4006 24.3693 35.7955 24.3693C36.0568 24.3693 36.3338 24.4006 36.6264 24.4631C36.9219 24.5227 37.1974 24.6335 37.4531 24.7955C37.7116 24.9574 37.9233 25.1889 38.0881 25.4901C38.2528 25.7884 38.3352 26.1761 38.3352 26.6534V31H37.0909V30.1051H37.0398C36.9574 30.2699 36.8338 30.4318 36.669 30.5909C36.5043 30.75 36.2926 30.8821 36.0341 30.9872C35.7756 31.0923 35.4659 31.1449 35.1051 31.1449ZM35.3821 30.1222C35.7344 30.1222 36.0355 30.0526 36.2855 29.9134C36.5384 29.7741 36.7301 29.5923 36.8608 29.3679C36.9943 29.1406 37.0611 28.8977 37.0611 28.6392V27.7955C37.0156 27.8409 36.9276 27.8835 36.7969 27.9233C36.669 27.9602 36.5227 27.9929 36.358 28.0213C36.1932 28.0469 36.0327 28.071 35.8764 28.0938C35.7202 28.1136 35.5895 28.1307 35.4844 28.1449C35.2372 28.1761 35.0114 28.2287 34.8068 28.3026C34.6051 28.3764 34.4432 28.483 34.321 28.6222C34.2017 28.7585 34.142 28.9403 34.142 29.1676C34.142 29.483 34.2585 29.7216 34.4915 29.8835C34.7244 30.0426 35.0213 30.1222 35.3821 30.1222ZM42.7766 33.5909C42.2567 33.5909 41.8093 33.5227 41.4343 33.3864C41.0621 33.25 40.7582 33.0696 40.5224 32.8452C40.2866 32.6207 40.1104 32.375 39.994 32.108L41.0891 31.6562C41.1658 31.7812 41.2681 31.9134 41.396 32.0526C41.5266 32.1946 41.7028 32.3153 41.9244 32.4148C42.1488 32.5142 42.4371 32.5639 42.7894 32.5639C43.2724 32.5639 43.6715 32.446 43.9869 32.2102C44.3022 31.9773 44.4599 31.6051 44.4599 31.0938V29.8068H44.3789C44.3022 29.946 44.1914 30.1009 44.0465 30.2713C43.9045 30.4418 43.7085 30.5895 43.4585 30.7145C43.2085 30.8395 42.8832 30.902 42.4826 30.902C41.9656 30.902 41.4996 30.7812 41.0849 30.5398C40.6729 30.2955 40.3462 29.9361 40.1048 29.4616C39.8661 28.9844 39.7468 28.3977 39.7468 27.7017C39.7468 27.0057 39.8647 26.4091 40.1005 25.9119C40.3391 25.4148 40.6658 25.0341 41.0806 24.7699C41.4954 24.5028 41.9656 24.3693 42.4911 24.3693C42.8974 24.3693 43.2255 24.4375 43.4755 24.5739C43.7255 24.7074 43.9201 24.8636 44.0593 25.0426C44.2013 25.2216 44.3107 25.3793 44.3874 25.5156H44.4812V24.4545H45.7298V31.1449C45.7298 31.7074 45.5991 32.169 45.3377 32.5298C45.0763 32.8906 44.7227 33.1577 44.2766 33.331C43.8335 33.5043 43.3335 33.5909 42.7766 33.5909ZM42.7638 29.8452C43.1303 29.8452 43.44 29.7599 43.6928 29.5895C43.9485 29.4162 44.1417 29.169 44.2724 28.848C44.4059 28.5241 44.4727 28.1364 44.4727 27.6847C44.4727 27.2443 44.4073 26.8565 44.2766 26.5213C44.146 26.1861 43.9542 25.9247 43.7013 25.7372C43.4485 25.5469 43.136 25.4517 42.7638 25.4517C42.3803 25.4517 42.0607 25.5511 41.805 25.75C41.5494 25.946 41.3562 26.2131 41.2255 26.5511C41.0977 26.8892 41.0337 27.267 41.0337 27.6847C41.0337 28.1136 41.0991 28.4901 41.2298 28.8139C41.3604 29.1378 41.5536 29.3906 41.8093 29.5724C42.0678 29.7543 42.386 29.8452 42.7638 29.8452Z" fill="#A9AEB8"/>
</svg>
