<svg width="72" height="54" viewBox="0 0 72 54" fill="none" xmlns="http://www.w3.org/2000/svg">
<rect x="12.5" y="17.5" width="47" height="19" rx="3.5" fill="white" stroke="#A9AEB8"/>
<path d="M28 27L20 27" stroke="#A9AEB8"/>
<path fill-rule="evenodd" clip-rule="evenodd" d="M53.75 27C53.75 29.0711 52.0711 30.75 50 30.75C47.9289 30.75 46.25 29.0711 46.25 27C46.25 24.9289 47.9289 23.25 50 23.25C52.0711 23.25 53.75 24.9289 53.75 27ZM50 32C52.7614 32 55 29.7614 55 27C55 24.2386 52.7614 22 50 22C47.2386 22 45 24.2386 45 27C45 29.7614 47.2386 32 50 32ZM50.625 24.9167C50.625 24.5715 50.3452 24.2917 50 24.2917C49.6548 24.2917 49.375 24.5715 49.375 24.9167V27V27.2589L49.5581 27.4419L50.8081 28.6919C51.0521 28.936 51.4479 28.936 51.6919 28.6919C51.936 28.4479 51.936 28.0521 51.6919 27.8081L50.625 26.7411V24.9167Z" fill="#A9AEB8"/>
</svg>
