<svg width="72" height="54" viewBox="0 0 72 54" fill="none" xmlns="http://www.w3.org/2000/svg">
    <rect x="24.5" y="15.5" width="23" height="23" rx="11.5" fill="white" stroke="#A9AEB8"/>
    <g clip-path="url(#clip0_8480_1121)">
        <path fill-rule="evenodd" clip-rule="evenodd" d="M36.5496 20.2397C36.4077 20.0868 36.2086 20 36 20C35.7915 20 35.5923 20.0868 35.4504 20.2397L32.2004 23.7397C31.9186 24.0432 31.9361 24.5177 32.2397 24.7996C32.5432 25.0814 33.0177 25.0639 33.2996 24.7603L35.25 22.6599V28.25C35.25 28.6642 35.5858 29 36 29C36.4142 29 36.75 28.6642 36.75 28.25V22.6599L38.7004 24.7603C38.9823 25.0639 39.4568 25.0814 39.7603 24.7996C40.0639 24.5177 40.0815 24.0432 39.7996 23.7397L36.5496 20.2397ZM31.5 28.75C31.5 28.3358 31.1642 28 30.75 28C30.3358 28 30 28.3358 30 28.75V31.25C30 31.6642 30.3358 32 30.75 32H41.2491C41.6633 32 41.9991 31.6642 41.9991 31.25V28.75C41.9991 28.3358 41.6633 28 41.2491 28C40.8349 28 40.4991 28.3358 40.4991 28.75V30.5H31.5V28.75Z" fill="#A9AEB8"/>
    </g>
    <defs>
        <clipPath id="clip0_8480_1121">
            <rect width="12" height="12" fill="white" transform="translate(30 20)"/>
        </clipPath>
    </defs>
</svg>
