<svg width="16" height="16" viewBox="0 0 16 16" fill="none" xmlns="http://www.w3.org/2000/svg">
<path d="M8.06977 6.99999C8.02098 6.99223 7.97128 6.99223 7.92249 6.99999C7.40515 6.98128 6.91535 6.76217 6.5566 6.38895C6.19786 6.01574 5.99826 5.51767 6.00001 4.99999C6.00001 3.89147 6.89148 3 8.00001 3C8.53044 3 9.03914 3.21071 9.41422 3.58578C9.78929 3.96086 10 4.46956 10 4.99999C9.99225 6.08526 9.13954 6.96898 8.06977 6.99999Z" fill="#787E85" stroke="#787E85" stroke-linecap="round" stroke-linejoin="round"/>
<path d="M5.06616 12.3597C3.64461 11.6097 3.64461 10.3809 5.06616 9.63081C6.67927 8.78501 9.33081 8.78501 10.9338 9.63081C12.3554 10.3809 12.3554 11.6097 10.9338 12.3597C9.32073 13.2135 6.67927 13.2135 5.06616 12.3597Z" fill="#787E85" stroke="#787E85" stroke-linecap="round" stroke-linejoin="round"/>
</svg>