<svg width="72" height="54" viewBox="0 0 72 54" fill="none" xmlns="http://www.w3.org/2000/svg">
    <path d="M47.222 25.0093C47.4172 24.814 47.7338 24.814 47.9291 25.0093L50.1092 27.1894L52.2267 25.0718C52.422 24.8765 52.7386 24.8765 52.9339 25.0718L53.2874 25.4253C53.4827 25.6206 53.4827 25.9372 53.2874 26.1324L50.459 28.9609C50.2637 29.1561 49.9471 29.1561 49.7519 28.9609L49.3983 28.6073C49.3808 28.5898 49.3649 28.5713 49.3505 28.552L46.8684 26.0699C46.6732 25.8747 46.6732 25.5581 46.8684 25.3628L47.222 25.0093Z" fill="#A9AEB8"/>
    <rect x="14.5" y="10.5" width="43" height="33" rx="3.5" fill="white" stroke="#A9AEB8"/>
    <path d="M17 21H55V39C55 40.1046 54.1046 41 53 41H19C17.8954 41 17 40.1046 17 39V21Z" fill="#E5E6EB"/>
    <rect x="15" y="18" width="42" height="1" fill="#A9AEB8"/>
</svg>
