<svg width="20" height="20" viewBox="0 0 20 20" fill="none" xmlns="http://www.w3.org/2000/svg">
<path d="M18.3988 10.3575L13.4081 5.36625C13.1736 5.13187 12.8556 5.00021 12.5241 5.00021C12.1925 5.00021 11.8745 5.13187 11.64 5.36625L8.29125 8.715L5.625 1.25H4.375L1.25 10H2.5L3.12438 8.125H6.87437L7.37625 9.63L2.86625 14.14C2.75012 14.2561 2.658 14.3939 2.59515 14.5456C2.5323 14.6973 2.49995 14.8599 2.49995 15.0241C2.49995 15.1883 2.5323 15.3508 2.59515 15.5025C2.658 15.6542 2.75012 15.792 2.86625 15.9081L5.7075 18.75H11.7013L18.3988 12.0519C18.5101 11.9406 18.5984 11.8085 18.6587 11.6631C18.719 11.5177 18.75 11.3618 18.75 11.2044C18.75 11.047 18.719 10.8911 18.6587 10.7457C18.5984 10.6003 18.5101 10.4681 18.3988 10.3569V10.3575ZM3.54063 6.875L4.9975 2.5L6.4575 6.875H3.54063ZM11.1844 17.5H6.225L3.75 15.0238L7.695 11.0794L12.65 16.0337L11.1844 17.5ZM13.5344 15.15L8.57938 10.1956L12.5244 6.25L17.4788 11.2044L13.5344 15.15Z" fill="#1D2129"/>
</svg>
