<svg width="20" height="20" viewBox="0 0 20 20" fill="none" xmlns="http://www.w3.org/2000/svg">
<path d="M18.2803 4.22503C17.9319 3.87543 17.518 3.59804 17.0621 3.40877C16.6063 3.2195 16.1176 3.12207 15.6241 3.12207C15.1305 3.12207 14.6418 3.2195 14.186 3.40877C13.7302 3.59804 13.3162 3.87543 12.9678 4.22503L13.8553 5.11253C14.088 4.87984 14.3642 4.69526 14.6683 4.56934C14.9723 4.44341 15.2981 4.37859 15.6272 4.37859C15.9563 4.37859 16.2821 4.44341 16.5861 4.56934C16.8901 4.69526 17.1664 4.87984 17.3991 5.11253C17.6318 5.34521 17.8163 5.62145 17.9423 5.92547C18.0682 6.22949 18.133 6.55533 18.133 6.8844C18.133 7.21347 18.0682 7.53931 17.9423 7.84333C17.8163 8.14735 17.6318 8.42359 17.3991 8.65628L12.3991 13.6563C11.93 14.1262 11.2934 14.3905 10.6294 14.3911C9.9654 14.3917 9.32837 14.1285 8.85844 13.6594C8.38851 13.1903 8.12418 12.5537 8.12359 11.8897C8.123 11.2257 8.38621 10.5887 8.85532 10.1188L9.73657 9.23128L8.85532 8.34378L7.96782 9.23128C7.61822 9.57966 7.34083 9.99364 7.15156 10.4495C6.96229 10.9053 6.86486 11.394 6.86486 11.8875C6.86486 12.3811 6.96229 12.8698 7.15156 13.3256C7.34083 13.7814 7.61822 14.1954 7.96782 14.5438C8.675 15.2419 9.63036 15.6308 10.6241 15.625C11.1195 15.6271 11.6105 15.5309 12.0685 15.3421C12.5266 15.1533 12.9427 14.8756 13.2928 14.525L18.2928 9.52503C18.9934 8.82025 19.3856 7.86619 19.3833 6.87244C19.3809 5.87869 18.9842 4.9265 18.2803 4.22503Z" fill="#1D2129"/>
<path d="M2.61782 15.5125C2.38444 15.2802 2.19925 15.0041 2.07288 14.7C1.94652 14.396 1.88146 14.0699 1.88146 13.7407C1.88146 13.4114 1.94652 13.0853 2.07288 12.7813C2.19925 12.4772 2.38444 12.2011 2.61782 11.9688L7.61782 6.96878C7.85011 6.7354 8.12622 6.55021 8.4303 6.42384C8.73437 6.29748 9.06041 6.23243 9.38969 6.23243C9.71897 6.23243 10.045 6.29748 10.3491 6.42384C10.6532 6.55021 10.9293 6.7354 11.1616 6.96878C11.3935 7.2029 11.576 7.48119 11.6984 7.78716C11.8208 8.09313 11.8805 8.42055 11.8741 8.75003C11.876 9.08053 11.8123 9.40813 11.6868 9.71388C11.5613 10.0196 11.3764 10.2974 11.1428 10.5313L9.81782 11.875L10.7053 12.7625L12.0303 11.4375C12.7356 10.7322 13.1319 9.77561 13.1319 8.77815C13.1319 7.78069 12.7356 6.82409 12.0303 6.11878C11.325 5.41347 10.3684 5.01723 9.37094 5.01723C8.37348 5.01723 7.41688 5.41347 6.71157 6.11878L1.71157 11.1188C1.36103 11.4673 1.08284 11.8816 0.893018 12.338C0.703192 12.7944 0.605469 13.2839 0.605469 13.7782C0.605469 14.2725 0.703192 14.7619 0.893018 15.2183C1.08284 15.6747 1.36103 16.089 1.71157 16.4375C2.42333 17.1303 3.38088 17.5124 4.37407 17.5C5.376 17.501 6.33764 17.1055 7.04907 16.4L6.16157 15.5125C5.92927 15.7459 5.65316 15.9311 5.34909 16.0575C5.04501 16.1838 4.71897 16.2489 4.38969 16.2489C4.06041 16.2489 3.73437 16.1838 3.4303 16.0575C3.12622 15.9311 2.85011 15.7459 2.61782 15.5125Z" fill="#1D2129"/>
</svg>
