<svg width="20" height="20" viewBox="0 0 20 20" fill="none" xmlns="http://www.w3.org/2000/svg">
<path d="M10 13.75H18.75V15H10V13.75ZM10 5H18.75V6.25H10V5ZM5 7.5V2.5H3.75V3.125H2.5V4.375H3.75V7.5H2.5V8.75H6.25V7.5H5ZM6.25 17.5H2.5V15C2.5 14.6685 2.6317 14.3505 2.86612 14.1161C3.10054 13.8817 3.41848 13.75 3.75 13.75H5V12.5H2.5V11.25H5C5.33152 11.25 5.64946 11.3817 5.88388 11.6161C6.1183 11.8505 6.25 12.1685 6.25 12.5V13.75C6.25 14.0815 6.1183 14.3995 5.88388 14.6339C5.64946 14.8683 5.33152 15 5 15H3.75V16.25H6.25V17.5Z" fill="#1D2129"/>
</svg>
