<svg width="20" height="20" viewBox="0 0 20 20" fill="none" xmlns="http://www.w3.org/2000/svg">
<path d="M7.5 6.25H15.1156L12.8737 4.00875L13.75 3.125L17.5 6.875L13.75 10.625L12.8737 9.74062L15.1137 7.5H7.5C6.50544 7.5 5.55161 7.89509 4.84835 8.59835C4.14509 9.30161 3.75 10.2554 3.75 11.25C3.75 12.2446 4.14509 13.1984 4.84835 13.9017C5.55161 14.6049 6.50544 15 7.5 15H12.5V16.25H7.5C6.17392 16.25 4.90215 15.7232 3.96447 14.7855C3.02678 13.8479 2.5 12.5761 2.5 11.25C2.5 9.92392 3.02678 8.65215 3.96447 7.71447C4.90215 6.77678 6.17392 6.25 7.5 6.25Z" fill="#1D2129"/>
</svg>
