<svg width="20" height="20" viewBox="0 0 20 20" fill="none" xmlns="http://www.w3.org/2000/svg">
<path d="M17.5 9.37538H11.2225C10.945 9.30076 10.6662 9.23096 10.3863 9.16601C8.63125 8.75101 7.63875 8.44726 7.63875 7.02663C7.6245 6.78139 7.66081 6.53584 7.74542 6.30522C7.83004 6.0746 7.96115 5.86384 8.13062 5.68601C8.6615 5.24944 9.32644 5.00889 10.0137 5.00476C11.7825 4.96101 12.5981 5.56101 13.265 6.47351L14.2744 5.73601C13.8019 5.05748 13.1578 4.51654 12.4078 4.16845C11.6578 3.82036 10.8288 3.6776 10.0056 3.75476C8.99439 3.76121 8.01887 4.12947 7.25563 4.79288C6.96634 5.08632 6.74024 5.4359 6.59125 5.82008C6.44227 6.20426 6.37356 6.61488 6.38937 7.02663C6.36197 7.47718 6.4466 7.92751 6.63572 8.33737C6.82483 8.74723 7.11254 9.10385 7.47312 9.37538H2.5V10.6254H11.0325C12.2619 10.9816 12.9969 11.4454 13.0156 12.7241C13.0359 12.9973 12.9985 13.2717 12.9056 13.5294C12.8128 13.7871 12.6667 14.0223 12.4769 14.2198C11.8155 14.7411 10.9938 15.017 10.1519 15.0004C9.52345 14.9822 8.90738 14.8213 8.35029 14.5299C7.7932 14.2385 7.30966 13.8243 6.93625 13.3185L5.97812 14.121C6.46358 14.768 7.08994 15.2959 7.80972 15.6648C8.52951 16.0338 9.32384 16.234 10.1325 16.2504H10.195C11.3492 16.2636 12.4695 15.86 13.35 15.1135C13.6625 14.7984 13.9054 14.4213 14.0632 14.0065C14.2209 13.5917 14.2898 13.1485 14.2656 12.7054C14.289 11.9474 14.0332 11.2072 13.5469 10.6254H17.5V9.37538Z" fill="#1D2129"/>
</svg>
