<svg width="20" height="20" viewBox="0 0 20 20" fill="none" xmlns="http://www.w3.org/2000/svg">
<path d="M2.5 16.25H17.5V17.5H2.5V16.25ZM10 14.375C8.83968 14.375 7.72688 13.9141 6.90641 13.0936C6.08594 12.2731 5.625 11.1603 5.625 10V3.125H6.875V10C6.875 10.8288 7.20424 11.6237 7.79029 12.2097C8.37634 12.7958 9.1712 13.125 10 13.125C10.8288 13.125 11.6237 12.7958 12.2097 12.2097C12.7958 11.6237 13.125 10.8288 13.125 10V3.125H14.375V10C14.375 11.1603 13.9141 12.2731 13.0936 13.0936C12.2731 13.9141 11.1603 14.375 10 14.375Z" fill="#1D2129"/>
</svg>
