<svg width="20" height="20" viewBox="0 0 20 20" fill="none" xmlns="http://www.w3.org/2000/svg">
<path fill-rule="evenodd" clip-rule="evenodd" d="M1.71157 11.1188L5.3544 7.47594L6.23252 8.35407L2.61782 11.9688C2.38444 12.2011 2.19925 12.4772 2.07288 12.7813C1.94652 13.0853 1.88146 13.4114 1.88146 13.7407C1.88146 14.0699 1.94652 14.396 2.07288 14.7C2.19925 15.0041 2.38444 15.2802 2.61782 15.5125C2.85011 15.7459 3.12622 15.9311 3.4303 16.0575C3.73437 16.1838 4.06041 16.2489 4.38969 16.2489C4.71897 16.2489 5.04501 16.1838 5.34909 16.0575C5.65316 15.9311 5.92927 15.7459 6.16157 15.5125L7.04907 16.4C6.33764 17.1055 5.376 17.501 4.37407 17.5C3.38088 17.5124 2.42333 17.1303 1.71157 16.4375C1.36103 16.089 1.08284 15.6747 0.893018 15.2183C0.703192 14.7619 0.605469 14.2725 0.605469 13.7782C0.605469 13.2839 0.703192 12.7944 0.893018 12.338C1.08284 11.8816 1.36103 11.4673 1.71157 11.1188ZM11.8741 8.75003C11.8758 9.04226 11.8262 9.33223 11.7279 9.60682L12.6823 10.5612C12.9748 10.0181 13.1319 9.40622 13.1319 8.77815C13.1319 7.78069 12.7356 6.82409 12.0303 6.11878C11.325 5.41347 10.3684 5.01723 9.37094 5.01723C8.74287 5.01723 8.131 5.17433 7.58787 5.46677L8.51247 6.39138C8.79277 6.28635 9.08989 6.23243 9.38969 6.23243C9.71897 6.23243 10.045 6.29748 10.3491 6.42384C10.6532 6.55021 10.9293 6.7354 11.1616 6.96878C11.3935 7.2029 11.576 7.48119 11.6984 7.78716C11.8208 8.09313 11.8805 8.42055 11.8741 8.75003ZM8.12359 11.8897C8.12319 11.432 8.24812 10.9872 8.47943 10.601L7.57296 9.6945C7.40425 9.92852 7.26271 10.1818 7.15156 10.4495C6.96229 10.9053 6.86486 11.394 6.86486 11.8875C6.86486 12.3811 6.96229 12.8698 7.15156 13.3256C7.34083 13.7814 7.61822 14.1954 7.96782 14.5438C8.675 15.2419 9.63036 15.6308 10.6241 15.625C11.1195 15.6271 11.6105 15.5309 12.0685 15.3421C12.3313 15.2338 12.5803 15.0962 12.8109 14.9324L11.9137 14.0353C11.5288 14.2658 11.0856 14.3907 10.6294 14.3911C9.9654 14.3917 9.32837 14.1285 8.85844 13.6594C8.38851 13.1903 8.12418 12.5537 8.12359 11.8897ZM14.0882 11.9671L14.9695 12.8484L18.2928 9.52503C18.9934 8.82025 19.3856 7.86619 19.3833 6.87244C19.3809 5.87869 18.9842 4.9265 18.2803 4.22503C17.9319 3.87543 17.518 3.59804 17.0621 3.40877C16.6063 3.2195 16.1176 3.12207 15.6241 3.12207C15.1305 3.12207 14.6418 3.2195 14.186 3.40877C13.7302 3.59804 13.3162 3.87543 12.9678 4.22503L13.8553 5.11253C14.088 4.87984 14.3642 4.69526 14.6683 4.56934C14.9723 4.44341 15.2981 4.37859 15.6272 4.37859C15.9563 4.37859 16.2821 4.44341 16.5861 4.56934C16.8901 4.69526 17.1664 4.87984 17.3991 5.11253C17.6318 5.34521 17.8163 5.62145 17.9423 5.92547C18.0682 6.22949 18.133 6.55533 18.133 6.8844C18.133 7.21347 18.0682 7.53931 17.9423 7.84333C17.8163 8.14735 17.6318 8.42359 17.3991 8.65628L14.0882 11.9671ZM15.7754 15.0674L5.19673 4.48872L4.48963 5.19583L15.0683 15.7745L15.7754 15.0674Z" fill="#1D2129"/>
</svg>
