<svg width="20" height="20" viewBox="0 0 20 20" fill="none" xmlns="http://www.w3.org/2000/svg">
<path d="M4.375 7.5C5.41053 7.5 6.25 6.66053 6.25 5.625C6.25 4.58947 5.41053 3.75 4.375 3.75C3.33947 3.75 2.5 4.58947 2.5 5.625C2.5 6.66053 3.33947 7.5 4.375 7.5Z" fill="#1D2129"/>
<path d="M4.375 16.25C5.41053 16.25 6.25 15.4105 6.25 14.375C6.25 13.3395 5.41053 12.5 4.375 12.5C3.33947 12.5 2.5 13.3395 2.5 14.375C2.5 15.4105 3.33947 16.25 4.375 16.25Z" fill="#1D2129"/>
<path d="M10 13.75H18.75V15H10V13.75ZM10 5H18.75V6.25H10V5Z" fill="#1D2129"/>
</svg>
