<svg width="16" height="16" viewBox="0 0 16 16" fill="none" xmlns="http://www.w3.org/2000/svg">
<path fill-rule="evenodd" clip-rule="evenodd" d="M5.39724 12.8288H10.6058C11.4336 12.8288 12.2241 12.1638 12.3636 11.3406L12.9822 7.63885C13.0752 7.06219 12.7961 6.32277 12.3404 5.95538L9.11762 3.37902C8.48981 2.87677 7.50856 2.87212 6.88539 3.37437L3.66262 5.95538C3.20222 6.32277 2.91854 7.06219 3.02085 7.63885L3.63937 11.3453C3.77888 12.1777 4.55086 12.8288 5.39724 12.8288ZM8 8C7.72386 8 7.5 8.22386 7.5 8.5V10.5C7.5 10.7761 7.72386 11 8 11C8.27614 11 8.5 10.7761 8.5 10.5V8.5C8.5 8.22386 8.27614 8 8 8Z" fill="currentColor"/>
</svg>
