<svg width="144" height="144" viewBox="0 0 144 144" fill="none" xmlns="http://www.w3.org/2000/svg">
<rect width="144" height="144" rx="20.3294" fill="#654AEC"/>
<path fill-rule="evenodd" clip-rule="evenodd" d="M48.7058 55.7791C48.7058 55.3814 49.0282 55.0591 49.4258 55.0591H57.3035C57.7011 55.0591 58.0235 55.3814 58.0235 55.7791V88.2214C58.0235 88.6191 57.7011 88.9414 57.3035 88.9414H49.4258C49.0282 88.9414 48.7058 88.6191 48.7058 88.2214V55.7791ZM36 68.4849C36 68.0873 36.3224 67.7649 36.72 67.7649H44.5976C44.9953 67.7649 45.3176 68.0873 45.3176 68.4849V88.2214C45.3176 88.619 44.9953 88.9414 44.5976 88.9414H36.72C36.3224 88.9414 36 88.619 36 88.2214V68.4849ZM62.1318 55.0591C61.7342 55.0591 61.4118 55.3814 61.4118 55.7791V88.2214C61.4118 88.6191 61.7342 88.9414 62.1318 88.9414H70.0095C70.4071 88.9414 70.7295 88.6191 70.7295 88.2214V55.7791C70.7295 55.3814 70.4071 55.0591 70.0095 55.0591H62.1318Z" fill="white"/>
<rect x="36" y="55.0591" width="9.31765" height="9.31765" rx="0.72" fill="#FF58BE"/>
<path fill-rule="evenodd" clip-rule="evenodd" d="M98.6824 72.0003C98.6824 76.2106 95.2692 79.6238 91.0589 79.6238C86.8485 79.6238 83.4353 76.2106 83.4353 72.0003C83.4353 67.7899 86.8485 64.3767 91.0589 64.3767C95.2692 64.3767 98.6824 67.7899 98.6824 72.0003ZM98.6824 87.1333C96.3909 88.29 93.801 88.9414 91.0589 88.9414C81.7025 88.9414 74.1177 81.3566 74.1177 72.0003C74.1177 62.6439 81.7025 55.0591 91.0589 55.0591C100.415 55.0591 108 62.6439 108 72.0003C108 72.2003 107.997 72.3995 107.99 72.5978C107.996 72.6375 108 72.6784 108 72.72V88.2212C108 88.6188 107.678 88.9412 107.28 88.9412H99.4024C99.0047 88.9412 98.6824 88.6188 98.6824 88.2212V87.1333Z" fill="white"/>
</svg>
