<svg width="40" height="40" viewBox="0 0 40 40" fill="none" xmlns="http://www.w3.org/2000/svg">
<rect width="40" height="40" fill="#F2F2F2"/>
<g clip-path="url(#clip0_0_1)">
<rect width="1920" height="1080" transform="translate(-756 -574)" fill="white"/>
<g filter="url(#filter0_d_0_1)">
<rect x="-24" y="-24" width="374" height="108" rx="8" fill="white"/>
<rect width="40" height="40" rx="4" fill="#FFADDE"/>
<path fill-rule="evenodd" clip-rule="evenodd" d="M26 14H14V17H26V14ZM12.5 17V18.5V26C12.5 26.8284 13.1716 27.5 14 27.5H26C26.8284 27.5 27.5 26.8284 27.5 26V18.5V17V14C27.5 13.1716 26.8284 12.5 26 12.5H14C13.1716 12.5 12.5 13.1716 12.5 14V17ZM26 26L26 18.5H14V26L26 26ZM20 24.5H24.5V23H20V24.5Z" fill="#0B0C0F"/>
<rect x="-23.5" y="-23.5" width="373" height="107" rx="7.5" stroke="#F2F3F5"/>
</g>
</g>
<defs>
<filter id="filter0_d_0_1" x="-40" y="-36" width="406" height="140" filterUnits="userSpaceOnUse" color-interpolation-filters="sRGB">
<feFlood flood-opacity="0" result="BackgroundImageFix"/>
<feColorMatrix in="SourceAlpha" type="matrix" values="0 0 0 0 0 0 0 0 0 0 0 0 0 0 0 0 0 0 127 0" result="hardAlpha"/>
<feOffset dy="4"/>
<feGaussianBlur stdDeviation="8"/>
<feColorMatrix type="matrix" values="0 0 0 0 0 0 0 0 0 0 0 0 0 0 0 0 0 0 0.08 0"/>
<feBlend mode="normal" in2="BackgroundImageFix" result="effect1_dropShadow_0_1"/>
<feBlend mode="normal" in="SourceGraphic" in2="effect1_dropShadow_0_1" result="shape"/>
</filter>
<clipPath id="clip0_0_1">
<rect width="1920" height="1080" fill="white" transform="translate(-756 -574)"/>
</clipPath>
</defs>
</svg>
