<svg width="40" height="40" viewBox="0 0 40 40" fill="none" xmlns="http://www.w3.org/2000/svg">
<rect width="40" height="40" fill="#F2F2F2"/>
<g clip-path="url(#clip0_0_1)">
<rect width="1920" height="1080" transform="translate(-792 -710)" fill="white"/>
<g filter="url(#filter0_d_0_1)">
<rect x="-24" y="-24" width="380" height="108" rx="8" fill="white"/>
<rect width="40" height="40" rx="4" fill="#FFE092"/>
<g clip-path="url(#clip1_0_1)">
<rect x="12.75" y="12.75" width="14.5" height="14.5" rx="1.25" stroke="#1D2129" stroke-width="1.5"/>
<path d="M18.8539 16.6459C18.9005 16.6924 18.9374 16.7475 18.9626 16.8083C18.9878 16.869 19.0008 16.9341 19.0008 16.9999C19.0008 17.0657 18.9878 17.1308 18.9626 17.1916C18.9374 17.2523 18.9005 17.3075 18.8539 17.3539L16.2069 19.9999L18.8539 22.6459C18.9478 22.7398 19.0005 22.8671 19.0005 22.9999C19.0005 23.1327 18.9478 23.26 18.8539 23.3539C18.76 23.4478 18.6327 23.5005 18.4999 23.5005C18.3671 23.5005 18.2398 23.4478 18.1459 23.3539L15.1459 20.3539C15.0994 20.3075 15.0624 20.2523 15.0372 20.1916C15.012 20.1308 14.999 20.0657 14.999 19.9999C14.999 19.9341 15.012 19.869 15.0372 19.8083C15.0624 19.7475 15.0994 19.6924 15.1459 19.6459L18.1459 16.6459C18.1924 16.5994 18.2475 16.5624 18.3083 16.5372C18.369 16.512 18.4341 16.499 18.4999 16.499C18.5657 16.499 18.6308 16.512 18.6916 16.5372C18.7523 16.5624 18.8075 16.5994 18.8539 16.6459ZM21.1459 16.6459C21.0994 16.6924 21.0624 16.7475 21.0372 16.8083C21.012 16.869 20.999 16.9341 20.999 16.9999C20.999 17.0657 21.012 17.1308 21.0372 17.1916C21.0624 17.2523 21.0994 17.3075 21.1459 17.3539L23.7929 19.9999L21.1459 22.6459C21.052 22.7398 20.9993 22.8671 20.9993 22.9999C20.9993 23.1327 21.052 23.26 21.1459 23.3539C21.2398 23.4478 21.3671 23.5005 21.4999 23.5005C21.6327 23.5005 21.76 23.4478 21.8539 23.3539L24.8539 20.3539C24.9005 20.3075 24.9374 20.2523 24.9626 20.1916C24.9878 20.1308 25.0008 20.0657 25.0008 19.9999C25.0008 19.9341 24.9878 19.869 24.9626 19.8083C24.9374 19.7475 24.9005 19.6924 24.8539 19.6459L21.8539 16.6459C21.8075 16.5994 21.7523 16.5624 21.6916 16.5372C21.6308 16.512 21.5657 16.499 21.4999 16.499C21.4341 16.499 21.369 16.512 21.3083 16.5372C21.2475 16.5624 21.1924 16.5994 21.1459 16.6459Z" fill="black"/>
</g>
<rect x="-23.5" y="-23.5" width="379" height="107" rx="7.5" stroke="#F2F3F5"/>
</g>
</g>
<defs>
<filter id="filter0_d_0_1" x="-40" y="-36" width="412" height="140" filterUnits="userSpaceOnUse" color-interpolation-filters="sRGB">
<feFlood flood-opacity="0" result="BackgroundImageFix"/>
<feColorMatrix in="SourceAlpha" type="matrix" values="0 0 0 0 0 0 0 0 0 0 0 0 0 0 0 0 0 0 127 0" result="hardAlpha"/>
<feOffset dy="4"/>
<feGaussianBlur stdDeviation="8"/>
<feColorMatrix type="matrix" values="0 0 0 0 0 0 0 0 0 0 0 0 0 0 0 0 0 0 0.08 0"/>
<feBlend mode="normal" in2="BackgroundImageFix" result="effect1_dropShadow_0_1"/>
<feBlend mode="normal" in="SourceGraphic" in2="effect1_dropShadow_0_1" result="shape"/>
</filter>
<clipPath id="clip0_0_1">
<rect width="1920" height="1080" fill="white" transform="translate(-792 -710)"/>
</clipPath>
<clipPath id="clip1_0_1">
<rect width="16" height="16" fill="white" transform="translate(12 12)"/>
</clipPath>
</defs>
</svg>
