<svg width="40" height="40" viewBox="0 0 40 40" fill="none" xmlns="http://www.w3.org/2000/svg">
<rect width="40" height="40" fill="#F2F2F2"/>
<g clip-path="url(#clip0_0_1)">
<rect width="1920" height="1080" transform="translate(-344 -574)" fill="white"/>
<g filter="url(#filter0_d_0_1)">
<rect x="-24" y="-24" width="380" height="108" rx="8" fill="white"/>
<rect width="40" height="40" rx="4" fill="#83FFB4"/>
<path fill-rule="evenodd" clip-rule="evenodd" d="M21.5 14H18.5V17H21.5V14ZM23 14V17H26V14H23ZM21.5 18.5H18.5V21.5H21.5V18.5ZM23 21.5V18.5H26V21.5H23ZM21.5 23H18.5V26H21.5V23ZM23 26V23H26V26H23ZM23 27.5H21.5H18.5H17H14C13.1716 27.5 12.5 26.8284 12.5 26V18.5V17V14C12.5 13.1716 13.1716 12.5 14 12.5H26C26.8284 12.5 27.5 13.1716 27.5 14V17V18.5V21.5V23V26C27.5 26.8284 26.8284 27.5 26 27.5H23ZM14 14H17V17H14V14ZM14 18.5H17V21.5H14V18.5ZM14 23H17V26H14V23Z" fill="#0B0C0F"/>
<rect x="-23.5" y="-23.5" width="379" height="107" rx="7.5" stroke="#F2F3F5"/>
</g>
</g>
<defs>
<filter id="filter0_d_0_1" x="-40" y="-36" width="412" height="140" filterUnits="userSpaceOnUse" color-interpolation-filters="sRGB">
<feFlood flood-opacity="0" result="BackgroundImageFix"/>
<feColorMatrix in="SourceAlpha" type="matrix" values="0 0 0 0 0 0 0 0 0 0 0 0 0 0 0 0 0 0 127 0" result="hardAlpha"/>
<feOffset dy="4"/>
<feGaussianBlur stdDeviation="8"/>
<feColorMatrix type="matrix" values="0 0 0 0 0 0 0 0 0 0 0 0 0 0 0 0 0 0 0.08 0"/>
<feBlend mode="normal" in2="BackgroundImageFix" result="effect1_dropShadow_0_1"/>
<feBlend mode="normal" in="SourceGraphic" in2="effect1_dropShadow_0_1" result="shape"/>
</filter>
<clipPath id="clip0_0_1">
<rect width="1920" height="1080" fill="white" transform="translate(-344 -574)"/>
</clipPath>
</defs>
</svg>
