<svg width="14" height="14" viewBox="0 0 14 14" fill="none" xmlns="http://www.w3.org/2000/svg">
    <rect width="14" height="14" rx="2" fill="#FFF8CD"/>
    <g clip-path="url(#clip0_7646_123478)">
        <path d="M10.7315 3.76847C11.121 4.15759 11.3711 4.66437 11.443 5.21017C11.515 5.75596 11.4048 6.31024 11.1295 6.78699C10.8542 7.26374 10.4293 7.6363 9.92062 7.84685C9.41196 8.0574 8.84803 8.09417 8.31633 7.95145L5.42824 10.8395C5.39926 10.8686 5.36482 10.8917 5.32691 10.9075C5.28899 10.9233 5.24834 10.9314 5.20727 10.9315H3.88145C3.84034 10.9315 3.79963 10.9235 3.76165 10.9078C3.72366 10.892 3.68915 10.869 3.66008 10.8399C3.63102 10.8109 3.60797 10.7764 3.59226 10.7384C3.57656 10.7004 3.5685 10.6597 3.56855 10.6186V9.29274C3.5685 9.25164 3.57656 9.21093 3.59226 9.17294C3.60797 9.13496 3.63102 9.10044 3.66008 9.07138C3.68915 9.04231 3.72366 9.01927 3.76165 9.00356C3.79963 8.98785 3.84034 8.9798 3.88145 8.97985L4.45288 8.98029L4.45244 8.40886C4.45238 8.36775 4.46044 8.32704 4.47615 8.28906C4.49185 8.25107 4.5149 8.21656 4.54397 8.18749C4.57303 8.15843 4.60754 8.13538 4.64553 8.11968C4.68352 8.10397 4.72423 8.09591 4.76533 8.09596L5.33676 8.09641L5.33632 7.52498C5.33627 7.48387 5.34433 7.44316 5.36003 7.40517C5.37574 7.36719 5.39878 7.33267 5.42785 7.30361C5.45691 7.27454 5.49143 7.2515 5.52941 7.23579C5.5674 7.22009 5.60811 7.21203 5.64921 7.21208L6.22065 7.21252L6.2202 6.64109C6.22025 6.60003 6.2284 6.55937 6.24417 6.52146C6.25995 6.48354 6.28304 6.44911 6.31213 6.42012L6.54857 6.18368C6.40584 5.65199 6.44261 5.08805 6.65316 4.57939C6.86371 4.07073 7.23627 3.6458 7.71302 3.37052C8.18978 3.09525 8.74406 2.98504 9.28985 3.057C9.83564 3.12895 10.3424 3.37905 10.7315 3.76847V3.76847ZM10.2896 6.86206C10.5268 6.62471 10.6959 6.32807 10.7794 6.00307C10.8628 5.67808 10.8575 5.33665 10.764 5.01439C10.6706 4.69214 10.4923 4.40087 10.2479 4.17098C10.0035 3.94109 9.7019 3.78099 9.37453 3.7074C9.04716 3.6338 8.70605 3.6494 8.38676 3.75257C8.06748 3.85574 7.78173 4.0427 7.55933 4.29394C7.33692 4.54518 7.18602 4.8515 7.12234 5.18094C7.05867 5.51038 7.08457 5.85087 7.19734 6.16689C7.21706 6.2225 7.22065 6.28256 7.20766 6.34013C7.19468 6.39769 7.16566 6.4504 7.12397 6.49216L6.84555 6.77058L6.84599 7.52498C6.84604 7.56608 6.83799 7.60679 6.82228 7.64478C6.80657 7.68276 6.78353 7.71728 6.75446 7.74634C6.7254 7.77541 6.69088 7.79845 6.6529 7.81416C6.61491 7.82986 6.5742 7.83792 6.5331 7.83787L5.96167 7.83743L5.96211 8.40886C5.96216 8.44996 5.9541 8.49067 5.9384 8.52866C5.92269 8.56665 5.89965 8.60116 5.87058 8.63022C5.84151 8.65929 5.807 8.68234 5.76902 8.69804C5.73103 8.71375 5.69032 8.72181 5.64921 8.72175L5.07778 8.72131L5.07823 9.29274C5.07828 9.33385 5.07022 9.37456 5.05451 9.41254C5.03881 9.45053 5.01576 9.48504 4.9867 9.51411C4.95763 9.54317 4.92312 9.56622 4.88513 9.58192C4.84715 9.59763 4.80644 9.60569 4.76533 9.60564L4.1939 9.60519V10.3061L5.07778 10.3061L8.00786 7.37604C8.04962 7.33435 8.10233 7.30534 8.15989 7.29235C8.21745 7.27937 8.27751 7.28295 8.33313 7.30268C8.6675 7.42199 9.02888 7.44393 9.37522 7.36593C9.72157 7.28793 10.0387 7.1132 10.2896 6.86206V6.86206Z" fill="#FFB800" stroke="#FFB800" stroke-width="0.2"/>
        <path d="M8.47422 6.04192C8.35701 5.92471 8.29117 5.76574 8.29117 5.59998C8.29117 5.43422 8.35701 5.27524 8.47422 5.15803C8.59143 5.04082 8.75041 4.97498 8.91617 4.97498C9.08193 4.97498 9.2409 5.04082 9.35811 5.15803C9.47532 5.27524 9.54117 5.43422 9.54117 5.59998C9.54117 5.76574 9.47532 5.92471 9.35811 6.04192C9.2409 6.15913 9.08193 6.22498 8.91617 6.22498C8.7504 6.22498 8.59143 6.15913 8.47422 6.04192Z" fill="#FFB800"/>
    </g>
    <defs>
        <clipPath id="clip0_7646_123478">
            <rect width="10" height="10" fill="white" transform="translate(2 2)"/>
        </clipPath>
    </defs>
</svg>
