<svg width="14" height="14" viewBox="0 0 14 14" fill="none" xmlns="http://www.w3.org/2000/svg">
    <rect width="14" height="14" rx="2" fill="#DAE9FF"/>
    <path fill-rule="evenodd" clip-rule="evenodd" d="M7.625 4.5H6.375V5.75H7.625V4.5ZM8.25 4.5V5.75H9.5V4.5H8.25ZM7.625 6.375H6.375V7.625H7.625V6.375ZM8.25 7.625V6.375H9.5V7.625H8.25ZM7.625 8.25H6.375V9.5H7.625V8.25ZM8.25 9.5V8.25H9.5V9.5H8.25ZM8.25 10.125H7.625H6.375H5.75H4.5C4.15482 10.125 3.875 9.84518 3.875 9.5V6.375V5.75V4.5C3.875 4.15482 4.15482 3.875 4.5 3.875H9.5C9.84518 3.875 10.125 4.15482 10.125 4.5V5.75V6.375V7.625V8.25V9.5C10.125 9.84518 9.84518 10.125 9.5 10.125H8.25ZM4.5 4.5H5.75V5.75H4.5V4.5ZM4.5 6.375H5.75V7.625H4.5V6.375ZM4.5 8.25H5.75V9.5H4.5V8.25Z" fill="#2162E4"/>
</svg>
