<svg width="16" height="16" viewBox="0 0 16 16" fill="none" xmlns="http://www.w3.org/2000/svg">
<path fill-rule="evenodd" clip-rule="evenodd" d="M7.33342 7.33333C8.80617 7.33333 10.0001 6.13943 10.0001 4.66667C10.0001 3.19391 8.80617 2 7.33342 2C5.86066 2 4.66675 3.19391 4.66675 4.66667C4.66675 6.13943 5.86066 7.33333 7.33342 7.33333ZM9.11122 4.66645C9.11122 5.64829 8.31528 6.44423 7.33344 6.44423C6.3516 6.44423 5.55566 5.64829 5.55566 4.66645C5.55566 3.68461 6.3516 2.88867 7.33344 2.88867C8.31528 2.88867 9.11122 3.68461 9.11122 4.66645ZM8.05538 12.6671C8.01896 12.4502 8 12.2273 8 12C8 11.9243 8.0021 11.8491 8.00625 11.7744H2.88892C2.89069 11.5558 3.0258 10.898 3.62847 10.2953C4.20803 9.71577 5.2978 9.11133 7.33336 9.11133C8.00733 9.11133 8.57772 9.17765 9.06026 9.28742C9.3047 9.02264 9.58446 8.79096 9.89205 8.59986C9.20928 8.36706 8.36758 8.22266 7.33333 8.22266C2.88889 8.22266 2 10.8893 2 11.7782C2 12.6671 2.88889 12.6671 2.88889 12.6671H8.05538ZM14.5 12C14.5 12.2761 14.2761 12.5 14 12.5H12.5V14C12.5 14.2761 12.2761 14.5 12 14.5C11.7239 14.5 11.5 14.2761 11.5 14V12.5H10C9.72386 12.5 9.5 12.2761 9.5 12C9.5 11.7239 9.72386 11.5 10 11.5H11.5V10C11.5 9.72386 11.7239 9.5 12 9.5C12.2761 9.5 12.5 9.72386 12.5 10V11.5H14C14.2761 11.5 14.5 11.7239 14.5 12Z" fill="#1D2129"/>
<path d="M8.05538 12.6671V12.9171H8.35085L8.30193 12.6257L8.05538 12.6671ZM8.00625 11.7744L8.25587 11.7883L8.27053 11.5244H8.00625V11.7744ZM2.88892 11.7744L2.63892 11.7724L2.63688 12.0244H2.88892V11.7744ZM3.62847 10.2953L3.45169 10.1186H3.45169L3.62847 10.2953ZM9.06026 9.28742L9.00481 9.53119L9.14584 9.56327L9.24395 9.457L9.06026 9.28742ZM9.89205 8.59986L10.024 8.81222L10.4724 8.53362L9.97273 8.36324L9.89205 8.59986ZM2.88889 12.6671V12.4171H2.88889L2.88889 12.6671ZM12.5 12.5V12.25H12.25V12.5H12.5ZM11.5 12.5H11.75V12.25H11.5V12.5ZM11.5 11.5V11.75H11.75V11.5H11.5ZM12.5 11.5H12.25V11.75H12.5V11.5ZM9.75008 4.66667C9.75008 6.00136 8.6681 7.08333 7.33342 7.08333V7.58333C8.94425 7.58333 10.2501 6.2775 10.2501 4.66667H9.75008ZM7.33342 2.25C8.6681 2.25 9.75008 3.33198 9.75008 4.66667H10.2501C10.2501 3.05584 8.94425 1.75 7.33342 1.75V2.25ZM4.91675 4.66667C4.91675 3.33198 5.99873 2.25 7.33342 2.25V1.75C5.72258 1.75 4.41675 3.05584 4.41675 4.66667H4.91675ZM7.33342 7.08333C5.99873 7.08333 4.91675 6.00136 4.91675 4.66667H4.41675C4.41675 6.2775 5.72258 7.58333 7.33342 7.58333V7.08333ZM7.33344 6.69423C8.45335 6.69423 9.36122 5.78636 9.36122 4.66645H8.86122C8.86122 5.51022 8.17721 6.19423 7.33344 6.19423V6.69423ZM5.30566 4.66645C5.30566 5.78636 6.21353 6.69423 7.33344 6.69423V6.19423C6.48967 6.19423 5.80566 5.51022 5.80566 4.66645H5.30566ZM7.33344 2.63867C6.21353 2.63867 5.30566 3.54654 5.30566 4.66645H5.80566C5.80566 3.82268 6.48967 3.13867 7.33344 3.13867V2.63867ZM9.36122 4.66645C9.36122 3.54654 8.45335 2.63867 7.33344 2.63867V3.13867C8.17721 3.13867 8.86122 3.82268 8.86122 4.66645H9.36122ZM7.75 12C7.75 12.2412 7.77012 12.4779 7.80883 12.7085L8.30193 12.6257C8.26779 12.4224 8.25 12.2134 8.25 12H7.75ZM7.75664 11.7606C7.75223 11.8398 7.75 11.9197 7.75 12H8.25C8.25 11.9289 8.25197 11.8584 8.25587 11.7883L7.75664 11.7606ZM2.88892 12.0244H8.00625V11.5244H2.88892V12.0244ZM3.45169 10.1186C2.80056 10.7697 2.64121 11.4911 2.63892 11.7724L3.13891 11.7765C3.14018 11.6204 3.25105 11.0263 3.80525 10.4721L3.45169 10.1186ZM7.33336 8.86133C5.24492 8.86133 4.08684 9.4834 3.45169 10.1186L3.80525 10.4721C4.32921 9.94814 5.35069 9.36133 7.33336 9.36133V8.86133ZM9.11572 9.04364C8.61285 8.92925 8.02367 8.86133 7.33336 8.86133V9.36133C7.99098 9.36133 8.54259 9.42604 9.00481 9.53119L9.11572 9.04364ZM9.76012 8.38751C9.43332 8.59054 9.13618 8.83663 8.87657 9.11784L9.24395 9.457C9.47322 9.20865 9.73559 8.99139 10.024 8.81222L9.76012 8.38751ZM7.33333 8.47266C8.34437 8.47266 9.1583 8.61381 9.81137 8.83649L9.97273 8.36324C9.26026 8.12031 8.39079 7.97266 7.33333 7.97266V8.47266ZM2.25 11.7782C2.25 11.398 2.44736 10.5733 3.17678 9.84388C3.89887 9.12179 5.16383 8.47266 7.33333 8.47266V7.97266C5.05839 7.97266 3.65669 8.65686 2.82322 9.49032C1.99709 10.3165 1.75 11.2696 1.75 11.7782H2.25ZM2.88889 12.6671C2.88889 12.4171 2.88901 12.4171 2.88912 12.4171C2.88916 12.4171 2.88927 12.4171 2.88934 12.4171C2.88948 12.4171 2.8896 12.4171 2.88971 12.4171C2.88993 12.4171 2.89011 12.4171 2.89023 12.4171C2.89047 12.4171 2.89052 12.4171 2.89037 12.4171C2.89007 12.4171 2.88901 12.4171 2.88723 12.417C2.88367 12.4169 2.87729 12.4166 2.86851 12.416C2.85085 12.4147 2.82399 12.4121 2.7911 12.4066C2.72414 12.3955 2.63868 12.3736 2.55625 12.3324C2.47479 12.2917 2.40095 12.2345 2.3469 12.1534C2.2939 12.0739 2.25 11.9567 2.25 11.7782H1.75C1.75 12.0442 1.81721 12.2603 1.93088 12.4308C2.0435 12.5997 2.19187 12.7092 2.33264 12.7796C2.47243 12.8495 2.60919 12.8832 2.7089 12.8998C2.75935 12.9082 2.80193 12.9125 2.83288 12.9147C2.8484 12.9158 2.86112 12.9164 2.87058 12.9167C2.87531 12.9169 2.87924 12.917 2.88231 12.917C2.88384 12.9171 2.88516 12.9171 2.88626 12.9171C2.88681 12.9171 2.8873 12.9171 2.88774 12.9171C2.88796 12.9171 2.88817 12.9171 2.88836 12.9171C2.88845 12.9171 2.88859 12.9171 2.88863 12.9171C2.88876 12.9171 2.88889 12.9171 2.88889 12.6671ZM8.05538 12.4171H2.88889V12.9171H8.05538V12.4171ZM14 12.75C14.4142 12.75 14.75 12.4142 14.75 12H14.25C14.25 12.1381 14.1381 12.25 14 12.25V12.75ZM12.5 12.75H14V12.25H12.5V12.75ZM12.25 12.5V14H12.75V12.5H12.25ZM12.25 14C12.25 14.1381 12.1381 14.25 12 14.25V14.75C12.4142 14.75 12.75 14.4142 12.75 14H12.25ZM12 14.25C11.8619 14.25 11.75 14.1381 11.75 14H11.25C11.25 14.4142 11.5858 14.75 12 14.75V14.25ZM11.75 14V12.5H11.25V14H11.75ZM10 12.75H11.5V12.25H10V12.75ZM9.25 12C9.25 12.4142 9.58579 12.75 10 12.75V12.25C9.86193 12.25 9.75 12.1381 9.75 12H9.25ZM10 11.25C9.58579 11.25 9.25 11.5858 9.25 12H9.75C9.75 11.8619 9.86193 11.75 10 11.75V11.25ZM11.5 11.25H10V11.75H11.5V11.25ZM11.75 11.5V10H11.25V11.5H11.75ZM11.75 10C11.75 9.86193 11.8619 9.75 12 9.75V9.25C11.5858 9.25 11.25 9.58579 11.25 10H11.75ZM12 9.75C12.1381 9.75 12.25 9.86193 12.25 10H12.75C12.75 9.58579 12.4142 9.25 12 9.25V9.75ZM12.25 10V11.5H12.75V10H12.25ZM14 11.25H12.5V11.75H14V11.25ZM14.75 12C14.75 11.5858 14.4142 11.25 14 11.25V11.75C14.1381 11.75 14.25 11.8619 14.25 12H14.75Z" fill="#1D2129"/>
</svg>
