<svg width="16" height="16" viewBox="0 0 16 16" fill="none" xmlns="http://www.w3.org/2000/svg">
<path fill-rule="evenodd" clip-rule="evenodd" d="M8 12C9.80208 12 11.4825 11.576 12.7465 10.8386C13.1768 10.5877 13.5799 10.2857 13.9228 9.93702C13.9736 10.1203 14 10.3083 14 10.5C14 12.433 11.3137 14 8 14C4.68629 14 2 12.433 2 10.5C2 10.3083 2.02641 10.1203 2.07721 9.93701C2.42015 10.2857 2.82323 10.5877 3.25349 10.8386C4.51754 11.576 6.19792 12 8 12Z" fill="#1D2129"/>
<path d="M14 5C14 6.65685 11.3137 8 8 8C4.68629 8 2 6.65685 2 5C2 3.34315 4.68629 2 8 2C11.3137 2 14 3.34315 14 5Z" fill="#1D2129"/>
<path fill-rule="evenodd" clip-rule="evenodd" d="M8 9C9.80208 9 11.4825 8.57602 12.7465 7.83865C13.1768 7.58767 13.5799 7.28575 13.9228 6.93702C13.9736 7.1203 14 7.30835 14 7.5C14 9.433 11.3137 11 8 11C4.68629 11 2 9.433 2 7.5C2 7.30835 2.02641 7.1203 2.07721 6.93702C2.42015 7.28575 2.82323 7.58767 3.25349 7.83865C4.51754 8.57602 6.19792 9 8 9ZM2.5774 6C3.54037 7.18247 5.60652 8 8 8C10.3935 8 12.4596 7.18248 13.4226 6C12.4596 4.81753 10.3935 4 8 4C5.60652 4 3.54037 4.81753 2.5774 6Z" fill="#1D2129"/>
</svg>
