<svg width="16" height="16" viewBox="0 0 16 16" fill="none" xmlns="http://www.w3.org/2000/svg">
<path fill-rule="evenodd" clip-rule="evenodd" d="M4.87669 13.7945H11.1269C12.1203 13.7945 13.069 12.9965 13.2364 12.0088L13.9786 7.56662C14.0902 6.87463 13.7554 5.98732 13.2085 5.54646L9.34114 2.45483C8.58777 1.85212 7.41027 1.84654 6.66247 2.44925L2.79514 5.54646C2.24267 5.98732 1.90225 6.87463 2.02503 7.56662L2.76724 12.0143C2.93466 13.0133 3.86103 13.7945 4.87669 13.7945ZM8 8C7.66863 8 7.4 8.26863 7.4 8.6V11C7.4 11.3314 7.66863 11.6 8 11.6C8.33137 11.6 8.6 11.3314 8.6 11V8.6C8.6 8.26863 8.33137 8 8 8Z" fill="#0B0C0F"/>
</svg>
