<svg width="12" height="13" viewBox="0 0 12 13" fill="none" xmlns="http://www.w3.org/2000/svg">
<path d="M10.1233 2.74672C10.12 2.74034 10.1145 2.73533 10.1079 2.73261C9.33928 2.37996 8.52817 2.12849 7.69486 1.9845C7.68729 1.9831 7.67947 1.98411 7.67251 1.98741C7.66555 1.9907 7.65981 1.9961 7.65609 2.00285C7.54565 2.20331 7.44538 2.40922 7.35569 2.61979C6.45744 2.48343 5.54374 2.48343 4.64549 2.61979C4.5552 2.40868 4.45333 2.20273 4.34035 2.00285C4.33647 1.99625 4.3307 1.99097 4.32378 1.9877C4.31686 1.98443 4.30912 1.98331 4.30156 1.9845C3.46817 2.12819 2.65701 2.37968 1.88849 2.73263C1.88191 2.73542 1.87636 2.74018 1.87261 2.74626C0.335731 5.04138 -0.0852775 7.28007 0.121255 9.49104C0.121836 9.49646 0.123501 9.5017 0.12615 9.50646C0.1288 9.51123 0.13238 9.51541 0.136678 9.51876C1.03159 10.1814 2.03255 10.6871 3.09686 11.0145C3.10435 11.0168 3.11236 11.0167 3.11979 11.0142C3.12723 11.0118 3.13374 11.0071 3.13845 11.0009C3.36704 10.6898 3.56959 10.3605 3.74404 10.0162C3.74643 10.0114 3.7478 10.0063 3.74805 10.001C3.7483 9.99567 3.74743 9.99038 3.74549 9.98545C3.74355 9.98052 3.74058 9.97606 3.73679 9.97236C3.733 9.96866 3.72847 9.9658 3.72349 9.96398C3.40409 9.84177 3.09487 9.69445 2.79873 9.5234C2.79336 9.52023 2.78884 9.51579 2.78558 9.51047C2.78232 9.50515 2.78043 9.49911 2.78006 9.49288C2.77969 9.48665 2.78086 9.48043 2.78347 9.47476C2.78607 9.46909 2.79004 9.46415 2.79501 9.46037C2.85732 9.41383 2.91855 9.36585 2.97865 9.31648C2.98393 9.31214 2.9903 9.30936 2.99707 9.30844C3.00384 9.30753 3.01073 9.30853 3.01696 9.31132C4.95706 10.1967 7.05749 10.1967 8.97462 9.31132C8.98087 9.30835 8.98783 9.30721 8.9947 9.30805C9.00156 9.30888 9.00805 9.31164 9.01341 9.31602C9.07358 9.36565 9.13497 9.41378 9.19753 9.46037C9.20252 9.46411 9.20652 9.46902 9.20917 9.47466C9.21181 9.48031 9.21303 9.48653 9.21271 9.49276C9.21239 9.49898 9.21053 9.50504 9.20732 9.51038C9.2041 9.51573 9.19961 9.5202 9.19426 9.5234C8.8988 9.69589 8.5893 9.84312 8.26906 9.96352C8.26408 9.96541 8.25957 9.96833 8.2558 9.97209C8.25203 9.97585 8.2491 9.98036 8.2472 9.98533C8.2453 9.9903 8.24446 9.99561 8.24476 10.0009C8.24505 10.0062 8.24646 10.0114 8.2489 10.0162C8.42626 10.3586 8.62851 10.6875 8.85402 11.0003C8.85859 11.0067 8.86507 11.0116 8.87254 11.0141C8.88 11.0166 8.88807 11.0168 8.89561 11.0144C9.96183 10.6882 10.9645 10.1824 11.8606 9.51876C11.8649 9.51557 11.8686 9.5115 11.8712 9.50679C11.8739 9.50209 11.8755 9.49688 11.876 9.4915C12.1233 6.93539 11.462 4.71505 10.1233 2.74672ZM4.03378 8.14479C3.44966 8.14479 2.96837 7.60876 2.96837 6.95045C2.96837 6.29215 3.44033 5.75608 4.03378 5.75608C4.63186 5.75608 5.10849 6.2968 5.09916 6.95041C5.09916 7.60876 4.62718 8.14479 4.03378 8.14479ZM7.97289 8.14479C7.3888 8.14479 6.90751 7.60876 6.90751 6.95045C6.90751 6.29215 7.37946 5.75608 7.97289 5.75608C8.57101 5.75608 9.04763 6.2968 9.03829 6.95041C9.03829 7.60876 8.57101 8.14479 7.97289 8.14479Z" fill="white"/>
</svg>
