<svg width="486" height="276" viewBox="0 0 486 276" preserveAspectRatio="xMidYMid slice" fill="none" xmlns="http://www.w3.org/2000/svg">
    <rect width="486" height="275" transform="translate(0 0.5)" fill="url(#paint0_linear_6194_1585)"/>
    <path d="M243.384 116.05C243.366 115.955 243.329 115.865 243.276 115.784C243.223 115.703 243.155 115.633 243.075 115.579C242.995 115.524 242.905 115.486 242.81 115.466C242.715 115.447 242.618 115.446 242.523 115.464C242.428 115.482 242.337 115.519 242.256 115.572C242.175 115.625 242.105 115.693 242.051 115.773C241.997 115.853 241.958 115.943 241.939 116.038C241.919 116.133 241.918 116.23 241.936 116.325C242.226 117.773 242.284 118.106 242.921 118.106C243.041 118.107 243.16 118.077 243.266 118.02C243.372 117.963 243.462 117.88 243.528 117.78C243.594 117.679 243.634 117.564 243.645 117.444C243.655 117.324 243.635 117.203 243.587 117.093C243.543 116.861 243.413 116.181 243.384 116.05ZM247.814 125.635C248.755 125.91 249.653 125.461 249.624 125.229C249.595 124.998 249.624 125.113 248.35 124.636C247.496 124.317 246.555 123.188 246.222 123.362C245.889 123.535 246.395 124.462 246.511 124.636C246.821 125.106 247.28 125.457 247.814 125.635ZM274.294 79.8807C272.397 87.829 271.007 94.5756 270.776 95.922C270.622 96.5078 270.592 97.1193 270.689 97.7172C271.456 99.3532 281.374 102.582 282.633 101.945C283.893 101.308 287.165 93.9386 290.972 86.3378C293.305 86.4123 295.639 86.2425 297.936 85.8311C300.355 85.3873 302.709 84.6432 304.943 83.616C309.837 81.3575 315.193 71.6864 315.917 66.8219C316.46 61.5405 315.342 56.2213 312.718 51.6058C300.571 30.5408 264.941 41.8768 267.837 65.2727C268.664 70.6262 270.891 75.6658 274.294 79.8807ZM283.125 97.1237C283.125 97.3553 282.865 97.3263 281.678 97.1237C279.249 96.8185 276.898 96.0675 274.743 94.9086C273.729 94.3584 273.454 94.2426 273.556 93.9965C273.657 93.7504 273.874 93.8372 275.438 94.2715C275.582 94.2715 280.071 95.7193 281.359 96.1681C283.024 96.921 283.125 96.921 283.125 97.1237ZM282.865 73.5685C284.411 73.6486 285.951 73.3295 287.338 72.6419C288.627 73.2664 290.022 73.6445 291.45 73.7567C289.018 78.2882 284.081 87.525 282.488 92.4474L276.35 90.7535C277.798 87.192 280.997 78.8528 282.836 73.5685H282.865ZM282.358 72.3668C281.277 72.2035 280.28 71.6903 279.519 70.9057C278.758 70.1212 278.275 69.1087 278.145 68.0235C277.74 65.128 279.593 61.885 282.387 62.6523C284.139 63.13 284.356 64.5199 284.052 66.2717C283.791 67.5457 282.85 70.7453 282.329 72.3089L282.358 72.3668ZM286.296 68.8922C286.451 67.9448 286.806 67.0415 287.338 66.2428C287.592 65.8073 287.962 65.4517 288.407 65.2163C288.853 64.9808 289.355 64.875 289.857 64.9108C290.929 65.2293 291.392 67.2562 290.509 68.5302C289.66 69.6566 288.604 70.61 287.396 71.3389C286.981 71.0951 286.65 70.7299 286.448 70.2926C286.246 69.8552 286.183 69.3665 286.267 68.8922H286.296ZM272.991 50.491C279.477 42.6876 291.682 39.5893 300.499 42.8034C305.288 44.4475 309.317 47.7765 311.835 52.1704C314.331 56.5623 315.398 61.6221 314.889 66.6481C314.223 71.1507 309.098 80.5033 304.596 82.5736C300.479 84.4514 295.987 85.3626 291.464 85.2375C290.972 85.2375 290.451 85.2375 290.263 85.5849C289.409 87.3223 287.845 90.6811 286.31 93.8372C285.251 93.3255 284.152 92.8995 283.024 92.5632C284.703 87.7566 290.002 78.3171 292.521 73.7422C294.704 73.9292 296.898 73.5502 298.892 72.6419C299.43 72.3584 299.877 71.9271 300.179 71.3987C300.481 70.8704 300.626 70.2668 300.597 69.6588C300.568 69.0508 300.367 68.4637 300.016 67.9663C299.665 67.469 299.179 67.082 298.616 66.8508C296.372 65.7505 294.36 68.3854 293.187 70.6005C292.869 71.1796 292.507 71.8601 292.101 72.6274C290.93 72.5505 289.776 72.3117 288.67 71.918C289.771 71.1442 290.748 70.2069 291.566 69.1383C292.024 68.4461 292.256 67.6287 292.231 66.7988C292.205 65.969 291.922 65.1677 291.421 64.5054C291.028 64.0487 290.481 63.7511 289.884 63.6684C289.287 63.5858 288.681 63.7238 288.178 64.0566C287.164 64.6796 286.352 65.582 285.838 66.6555C285.324 67.729 285.131 68.9279 285.282 70.1083C285.44 70.7746 285.799 71.3762 286.31 71.8311C285.361 72.2244 284.341 72.4214 283.314 72.4102C283.893 70.7019 284.834 67.6181 285.08 66.3586C285.234 65.6405 285.268 64.9017 285.181 64.1724C285.069 63.5464 284.779 62.966 284.345 62.5011C283.91 62.0362 283.351 61.7066 282.734 61.552C279.216 60.553 276.625 64.4475 277.132 68.0814C277.275 69.3837 277.834 70.6051 278.725 71.5648C279.617 72.5245 280.795 73.1712 282.083 73.4092C280.23 78.6212 277.334 87.0327 275.886 90.6232L272.701 89.798C274.743 79.5478 274.989 79.7939 274.699 79.6636C271.41 75.4694 269.305 70.4699 268.604 65.1859C268.263 62.5658 268.477 59.9032 269.233 57.3714C269.989 54.8396 271.269 52.4953 272.991 50.491ZM293.086 72.7143C294.099 70.8756 296.126 66.8508 298.095 67.8353C298.489 67.994 298.832 68.2572 299.087 68.5965C299.342 68.9359 299.5 69.3385 299.543 69.7608C299.514 72.3089 295.547 72.7577 293.028 72.7143H293.086ZM92.5065 199.099C94.2513 198.073 96.3118 197.723 98.2976 198.114C100.479 198.154 102.562 199.026 104.121 200.552C105.68 202.078 106.595 204.143 106.68 206.323C105.368 205.562 103.835 205.276 102.337 205.513C98.703 205.831 93.9543 207.8 94.5913 211.304C95.1125 214.199 98.9346 213.808 101.83 213.026C104.726 212.245 107.028 210.826 107.621 208.032C111.139 210.594 111.965 215.082 112.109 219.469C112.109 219.53 112.134 219.589 112.177 219.633C112.221 219.676 112.28 219.701 112.341 219.701C112.402 219.701 112.461 219.676 112.505 219.633C112.548 219.589 112.573 219.53 112.573 219.469C112.674 214.561 111.791 209.755 107.78 206.96C107.822 205.703 107.608 204.451 107.151 203.279C106.694 202.107 106.004 201.041 105.123 200.143C104.242 199.246 103.188 198.537 102.024 198.059C100.861 197.58 99.613 197.343 98.3555 197.362C96.3457 197.068 94.2966 197.488 92.5644 198.549C92.0287 198.809 92.2749 199.2 92.5065 199.099ZM105.71 209.479C104.074 211.622 99.4413 212.737 97.2986 212.375C96.5024 212.245 95.8509 211.912 95.6772 211.086C95.156 208.191 100.151 206.613 103.133 206.512C104.348 206.418 105.559 206.729 106.579 207.395C106.469 208.152 106.17 208.869 105.71 209.479ZM85.8757 182.175C87.4248 180.263 86.3825 176.934 82.0536 176.919C80.3742 176.919 79.5635 178.627 79.6793 180.263C79.9399 184.158 84.3266 184.042 85.8757 182.175ZM80.6927 180.191C80.6927 179.236 81.1415 177.99 82.1405 178.005C84.4714 178.005 85.5428 179.091 85.5428 180.292C85.4848 183.029 80.5045 184.448 80.6927 180.191ZM368.099 168.325C355.373 163.243 349.466 187.841 339.071 208.978C339.006 209.867 339.035 210.76 339.158 211.642C339.158 213.857 339.404 228.523 340.693 230.188C341.04 230.854 342.503 230.188 343.183 229.768C348.962 226.19 354.408 222.101 359.456 217.549C359.499 217.5 359.531 217.442 359.551 217.38C359.571 217.318 359.578 217.252 359.572 217.187C362.265 213.35 372.356 193.371 374.802 183.352C376.511 176.258 374.817 170.974 368.099 168.325ZM372.645 186.711C365.832 185.838 359.245 183.687 353.231 180.37C356.618 173.956 360.802 166.645 367.708 169.396C375.396 172.451 375.237 178.778 372.645 186.668V186.711ZM348.554 224.353C348.11 223.981 347.624 223.66 347.107 223.398C345.15 222.403 342.89 222.186 340.78 222.79C340.635 221.067 339.81 209.861 339.81 209.76C350.654 213.727 347.309 212.004 358.052 217.346C356.922 218.417 352.68 221.385 348.554 224.324V224.353ZM356.025 182.455C357.437 183.226 358.886 183.927 360.368 184.554C357.05 189.767 354.117 195.215 351.595 200.856C349.162 205.938 349.249 205.909 346.774 211.454C345.326 210.99 343.878 210.556 342.43 210.122C343.994 207.009 355.113 184.25 356.025 182.426V182.455ZM347.338 211.598C352.043 203.158 356.836 192.662 360.947 184.742C362.395 185.35 363.843 185.843 365.29 186.277C364.523 187.725 362.279 191.576 361.686 192.691C361.092 193.805 355.142 205.532 354.722 206.43C354.056 207.878 352.232 211.917 351.667 213.205C350.19 212.554 348.771 212.062 347.28 211.569L347.338 211.598ZM352.188 213.394C353.071 211.787 356.705 205.04 357.154 204.171C357.834 202.825 365.421 187.319 365.841 186.422C367.173 186.798 368.577 187.117 369.475 187.29C366.825 194.529 359.195 208.471 356.445 215.348C353.94 214.175 353.375 213.886 352.13 213.365L352.188 213.394ZM353.071 180.79L355.663 182.238C350.44 191.131 345.891 200.404 342.054 209.977L339.882 209.311C348.294 191.388 348.685 189.042 353.013 180.761L353.071 180.79ZM359.036 216.608L356.85 215.565C359.21 210.932 366.593 199.046 369.967 187.392C370.778 187.537 371.574 187.667 372.341 187.768C368.621 197.695 364.154 207.326 358.978 216.579L359.036 216.608ZM273.678 194.004C274.255 193.526 274.667 192.879 274.857 192.154C275.046 191.43 275.004 190.664 274.734 189.964C274.612 188.956 274.149 188.019 273.423 187.308C272.697 186.597 271.75 186.155 270.739 186.054C269.728 185.953 268.712 186.199 267.86 186.752C267.007 187.305 266.368 188.131 266.048 189.096C264.195 187.894 262.182 186.62 260.257 185.404C261.704 183.478 265.961 184.333 266.395 185.911C266.405 185.972 266.438 186.027 266.489 186.064C266.539 186.101 266.602 186.116 266.663 186.106C266.725 186.097 266.78 186.063 266.816 186.013C266.853 185.962 266.868 185.9 266.859 185.838C266.641 183.319 261.4 181.842 259.287 184.81C257.419 183.667 255.103 182.277 253.163 181.22C254.828 179.772 258.548 180.583 258.954 182.089C258.973 182.14 259.01 182.183 259.057 182.21C259.105 182.237 259.161 182.246 259.215 182.236C259.269 182.225 259.317 182.196 259.352 182.153C259.386 182.11 259.404 182.057 259.403 182.002C259.214 179.656 254.364 178.078 252.164 180.655C251.242 180.139 250.272 179.712 249.268 179.381C249.085 179.305 248.883 179.284 248.688 179.32C248.493 179.356 248.312 179.448 248.168 179.584C244.505 184.144 232.156 195.987 226.451 197.363C226.308 197.384 226.173 197.443 226.059 197.534C225.946 197.624 225.859 197.743 225.806 197.878C225.753 198.013 225.737 198.16 225.758 198.303C225.78 198.446 225.839 198.581 225.93 198.695C227.183 199.966 228.617 201.044 230.187 201.894C228.739 203.342 227.61 204.645 226.77 205.586C226.336 206.049 226.104 214.91 226.48 216.864C226.536 217.055 226.66 217.22 226.828 217.327C228.652 218.572 252.149 228.736 254.553 227.375C256.16 226.463 275.342 206.498 275.646 205.89C276.11 204.934 275.951 198.564 275.922 196.016C275.806 195.249 274.372 194.424 273.678 194.004ZM227.349 213.129V209.9C233.357 212.796 247.111 218.703 252.323 220.353C253.655 220.787 253.771 220.73 254.466 220.353C258.447 217.805 272.505 201.966 275.082 199.549V202.603C267.264 210.436 253.988 224.161 253.742 223.379C252.308 223.292 228.594 213.708 227.349 213.129ZM273.316 189.125C273.836 190.002 274.116 191.001 274.126 192.02C274.121 192.345 274.042 192.664 273.894 192.952C273.745 193.241 273.533 193.492 273.272 193.685C272.056 192.874 269.754 191.369 267.032 189.603C268.523 186.664 271.839 186.62 273.258 189.125H273.316ZM226.987 198.39C233.154 196.566 244.867 185.274 248.805 180.38C249.753 180.644 250.666 181.018 251.527 181.495C250.079 184.188 251.628 187.141 252.178 186.721C252.482 186.49 251.932 186.403 251.845 184.984C251.808 183.948 252.043 182.92 252.526 182.002C254.524 183.044 256.869 184.405 258.852 185.549C257.636 188.256 259.099 190.934 259.605 190.544C260.112 190.153 259.374 190.24 259.287 188.821C259.251 187.89 259.43 186.964 259.808 186.113C261.849 187.315 263.934 188.56 265.845 189.733C265.551 190.454 265.434 191.236 265.504 192.012C265.575 192.788 265.831 193.535 266.25 194.192C266.27 194.217 266.293 194.237 266.32 194.253C266.347 194.269 266.377 194.279 266.408 194.283C266.439 194.287 266.47 194.285 266.5 194.276C266.531 194.268 266.559 194.254 266.583 194.235C266.608 194.216 266.629 194.193 266.644 194.166C266.66 194.139 266.67 194.109 266.674 194.078C266.678 194.047 266.676 194.016 266.668 193.985C266.66 193.955 266.646 193.927 266.627 193.902C266.367 193.327 266.238 192.701 266.251 192.07C266.263 191.439 266.417 190.818 266.699 190.254C270.073 192.31 272.794 194.033 273.634 194.597C273.475 194.742 258.375 208.177 253.235 212.173C249.862 211.29 232.156 202.502 226.987 198.39ZM227.537 206.455C234.096 209.35 248.993 216.068 252.424 216.719C253.018 216.835 253.25 216.878 254.379 215.981C259.2 212.115 274.879 195.712 275.024 195.886C275.031 195.929 275.031 195.973 275.024 196.016V198.912C271.795 201.503 253.843 220.353 253.554 219.456C252.106 219.456 228.58 209.857 227.378 209.321C227.349 208.713 227.479 207.092 227.537 206.455ZM253.901 226.405C252.453 227.23 230.404 218.268 227.45 216.444C227.339 215.522 227.286 214.593 227.291 213.664C233.632 216.792 252.077 224.581 253.771 224.508C256.246 224.378 273.75 204.674 274.995 203.298C275.009 204.038 274.936 204.777 274.778 205.499C274.532 205.977 254.857 225.869 253.901 226.405ZM149.953 192.794C150.055 194.343 150.127 195.69 150.127 196.949C150.127 197.141 150.203 197.325 150.339 197.461C150.475 197.597 150.659 197.673 150.851 197.673C151.043 197.673 151.227 197.597 151.363 197.461C151.499 197.325 151.575 197.141 151.575 196.949C151.575 195.603 151.502 194.271 151.401 192.693C151.388 192.501 151.299 192.322 151.153 192.196C151.008 192.069 150.819 192.006 150.627 192.02C150.435 192.033 150.256 192.122 150.13 192.267C150.003 192.413 149.94 192.602 149.953 192.794ZM434.55 163.766C434.455 163.772 434.363 163.796 434.278 163.838C434.193 163.88 434.117 163.938 434.055 164.01C433.993 164.081 433.946 164.164 433.917 164.254C433.887 164.344 433.876 164.439 433.884 164.534C433.971 165.866 434.058 167.299 434.058 168.689C434.058 168.881 434.134 169.065 434.27 169.201C434.405 169.336 434.59 169.413 434.782 169.413C434.974 169.413 435.158 169.336 435.293 169.201C435.429 169.065 435.505 168.881 435.505 168.689C435.505 167.241 435.419 165.793 435.317 164.432C435.312 164.338 435.287 164.245 435.246 164.16C435.204 164.075 435.145 164 435.074 163.937C435.002 163.875 434.919 163.828 434.829 163.799C434.739 163.77 434.644 163.758 434.55 163.766ZM146.204 189.189C146.396 189.189 146.58 189.113 146.716 188.977C146.851 188.841 146.928 188.657 146.928 188.465C146.928 188.273 146.851 188.089 146.716 187.953C146.58 187.818 146.396 187.741 146.204 187.741C144.452 187.741 142.99 187.872 141.542 187.843C141.348 187.843 141.163 187.918 141.025 188.054C140.887 188.189 140.807 188.373 140.803 188.567C140.803 188.759 140.88 188.943 141.016 189.078C141.151 189.214 141.335 189.29 141.527 189.29C143.019 189.319 144.655 189.262 146.204 189.189ZM430.062 159.481C428.324 159.481 426.862 159.582 425.4 159.597C425.208 159.597 425.024 159.673 424.888 159.809C424.752 159.945 424.676 160.129 424.676 160.321C424.676 160.513 424.752 160.697 424.888 160.832C425.024 160.968 425.208 161.044 425.4 161.044C426.964 161.044 428.585 161.044 430.149 160.929C430.341 160.917 430.52 160.83 430.648 160.686C430.775 160.542 430.841 160.353 430.829 160.161C430.818 159.969 430.73 159.79 430.586 159.662C430.443 159.535 430.254 159.469 430.062 159.481ZM149.562 180.242C149.649 181.574 149.736 183.007 149.736 184.397C149.74 184.588 149.817 184.77 149.952 184.905C150.087 185.04 150.269 185.117 150.46 185.121C150.652 185.121 150.836 185.045 150.972 184.909C151.108 184.773 151.184 184.589 151.184 184.397C151.184 182.949 151.097 181.501 151.01 180.141C150.997 179.949 150.908 179.77 150.762 179.644C150.617 179.517 150.428 179.454 150.236 179.467C150.044 179.481 149.865 179.57 149.739 179.715C149.612 179.86 149.549 180.05 149.562 180.242ZM435.115 156.137C435.115 154.689 435.028 153.241 434.926 151.88C434.913 151.688 434.824 151.509 434.678 151.383C434.533 151.257 434.344 151.193 434.152 151.207C433.96 151.22 433.781 151.31 433.655 151.455C433.528 151.6 433.465 151.789 433.479 151.981C433.565 153.313 433.652 154.747 433.652 156.137C433.652 156.329 433.729 156.513 433.864 156.648C434 156.784 434.184 156.86 434.376 156.86C434.569 156.86 434.755 156.785 434.893 156.649C435.031 156.514 435.111 156.33 435.115 156.137ZM160.247 189.001C160.342 188.997 160.436 188.975 160.522 188.935C160.608 188.895 160.686 188.838 160.751 188.769C160.815 188.699 160.865 188.617 160.898 188.527C160.931 188.438 160.946 188.343 160.942 188.248C160.927 188.059 160.842 187.882 160.702 187.753C160.562 187.624 160.379 187.553 160.189 187.553C158.437 187.626 156.975 187.683 155.513 187.654C155.321 187.654 155.137 187.731 155.001 187.867C154.865 188.002 154.789 188.186 154.789 188.378C154.789 188.57 154.865 188.754 155.001 188.89C155.137 189.026 155.321 189.102 155.513 189.102C157.062 189.131 158.683 189.073 160.247 189.001ZM444.105 159.293C442.657 159.365 441.05 159.409 439.443 159.409C439.348 159.405 439.252 159.42 439.163 159.454C439.074 159.488 438.992 159.54 438.923 159.606C438.854 159.672 438.799 159.752 438.762 159.84C438.724 159.928 438.705 160.022 438.705 160.118C438.705 160.311 438.781 160.497 438.916 160.635C439.051 160.773 439.236 160.852 439.429 160.856C441.079 160.856 442.411 160.856 444.163 160.74C444.258 160.737 444.352 160.714 444.438 160.674C444.524 160.635 444.602 160.578 444.667 160.508C444.731 160.438 444.781 160.356 444.814 160.267C444.847 160.178 444.862 160.083 444.858 159.988C444.84 159.799 444.754 159.624 444.615 159.496C444.476 159.368 444.294 159.295 444.105 159.293ZM47.9773 146.104C48.1655 146.248 88.9926 140.197 90.7444 139.125C90.8414 139.055 90.9188 138.96 90.9695 138.851C91.0201 138.742 91.0423 138.623 91.0339 138.503C91.0339 136.635 88.5872 119.103 87.4145 114.73C87.2697 114.195 87.125 113.659 86.792 113.471C84.5769 112.139 45.545 119.494 43.2141 120.999C43.151 121.037 43.0964 121.087 43.054 121.147C43.0116 121.207 42.9823 121.275 42.968 121.347C42.4758 123.098 46.7177 145.235 47.9773 146.104ZM43.8512 121.694C46.6309 120.435 82.0578 113.949 86.1115 114.455C87.096 116.989 89.7309 135.549 89.9047 138.271C87.8923 138.865 48.5274 145.626 48.3827 145.655C48.2379 145.684 48.2234 145.857 47.9194 144.945C46.6453 141.123 43.7788 124.966 43.8512 121.694Z" fill="black"/>
    <path d="M93.9294 140.414C94.0082 140.267 94.0434 140.102 94.0308 139.936C94.0308 137.634 90.7298 112.081 89.5571 110.04C89.4652 109.889 89.3351 109.766 89.18 109.682C89.0248 109.598 88.8503 109.556 88.674 109.562C83.824 108.968 42.91 116.96 40.2172 118.828C39.8408 119.088 39.8987 119.74 39.9421 120.435C40.1737 124.242 44.2854 149.289 45.7332 149.144C45.8924 149.144 45.8345 149.028 45.4581 149.795C43.1996 154.443 38.9142 169.326 39.0011 172.323C39.0011 173.582 39.2906 175.218 40.5357 175.131C49.4684 174.031 93.2634 167.082 105.859 164.49C106.351 164.389 106.67 163.94 106.655 163.202C106.507 161.972 106.134 160.779 105.555 159.684C103.789 156.368 96.463 143.237 93.9294 140.414ZM45.82 148.695C44.6908 147.247 40.5357 122.302 40.8542 119.537C44.0393 117.887 84.4031 110.083 88.6306 110.72C89.7888 113.905 92.7857 136.91 92.9739 139.675C87.8488 141.442 52.364 147.175 45.82 148.695ZM46.4571 149.129C47.6732 148.825 89.0939 141.891 92.887 140.892C94.9573 142.817 104.31 159.452 104.918 160.871C96.6078 162.319 47.3112 170.556 40.0579 171.657C40.1593 167.27 44.6618 151.938 46.4571 149.129Z" fill="black"/>
    <path d="M51.9008 164.143C53.1603 163.955 79.8861 160.741 89.5427 158.12C89.6023 158.105 89.6532 158.066 89.6845 158.013C89.7157 157.96 89.7246 157.897 89.7092 157.838C89.6939 157.778 89.6555 157.727 89.6026 157.696C89.5496 157.665 89.4864 157.656 89.4269 157.671C87.5303 158.062 64.395 161.146 51.8718 163.694C51.8372 163.688 51.8016 163.689 51.7678 163.699C51.734 163.709 51.7028 163.726 51.6766 163.749C51.6503 163.773 51.6298 163.802 51.6164 163.834C51.6031 163.867 51.5974 163.902 51.5996 163.937C51.6019 163.972 51.6121 164.006 51.6295 164.037C51.6469 164.067 51.671 164.093 51.7 164.113C51.7291 164.133 51.7622 164.146 51.797 164.151C51.8318 164.156 51.8672 164.153 51.9008 164.143ZM95.5047 59.6861C95.1468 59.435 94.7238 59.2931 94.2869 59.2777C93.8501 59.2623 93.4181 59.374 93.0434 59.5992C92.7706 59.7209 92.5244 59.8951 92.3189 60.112C92.1134 60.3288 91.9527 60.584 91.8458 60.8629C91.7389 61.1419 91.688 61.4392 91.696 61.7378C91.704 62.0364 91.7708 62.3305 91.8925 62.6034C92.0142 62.8762 92.1884 63.1224 92.4052 63.3279C92.622 63.5334 92.8772 63.6941 93.1562 63.801C93.4351 63.9079 93.7324 63.9588 94.031 63.9508C94.3296 63.9428 94.6238 63.876 94.8966 63.7543C95.3324 63.659 95.729 63.4335 96.0338 63.1077C96.3385 62.7818 96.537 62.3711 96.603 61.9298C96.6689 61.4886 96.5992 61.0377 96.403 60.637C96.2069 60.2363 95.8936 59.9047 95.5047 59.6861ZM94.5491 62.5816C93.5357 62.9002 92.9276 62.5817 92.6815 62.0894C92.2182 61.0615 92.7973 59.4834 94.303 59.9467C95.3599 60.3376 96.2141 62.1184 94.5491 62.654V62.5816ZM201.124 53.4362C201.544 54.2904 203.498 53.9719 204.352 53.6968C204.801 53.552 205.091 53.3928 205.134 52.9584C205.264 51.8726 205.409 42.4621 204.917 41.55C204.866 41.4544 204.788 41.3759 204.693 41.3244C204.597 41.2729 204.489 41.2506 204.381 41.2605C202.836 41.2562 201.3 41.4806 199.821 41.9264C199.227 42.2884 200.603 52.4807 201.124 53.4362ZM200.125 42.2739C201.462 42.0826 202.815 42.0196 204.164 42.0857C204.251 43.1571 204.019 52.4373 204.005 52.582C203.393 52.8012 202.74 52.8804 202.094 52.8137C201.992 52.4807 201.819 51.5831 201.601 50.4538C200.964 47.7555 200.471 45.025 200.125 42.2739ZM94.1003 47.4669C94.2392 47.5381 94.3931 47.5752 94.5491 47.5752C94.7052 47.5752 94.859 47.5381 94.9979 47.4669C95.5573 47.1219 96.0009 46.6178 96.272 46.0192C96.3088 45.9234 96.3202 45.8197 96.3049 45.7182C96.2897 45.6167 96.2484 45.5208 96.1851 45.4401C95.4902 44.6148 87.9039 35.8269 86.9773 36.377C85.8397 37.1135 84.7603 37.9363 83.7488 38.8382C83.708 38.8747 83.6753 38.9193 83.6529 38.9692C83.6305 39.0191 83.6187 39.0731 83.6185 39.1278C83.5895 39.8806 92.0155 46.6272 94.1003 47.4669ZM87.151 36.7535C88.2079 37.5208 91.7694 41.922 95.0703 45.8165C94.9283 46.0401 94.7525 46.2403 94.5491 46.4101C91.0786 44.1889 87.7651 41.7315 84.6319 39.0554C85.4174 38.2307 86.2591 37.4616 87.151 36.7535ZM141.895 64.8157C142.214 59.1983 145.486 56.5923 148.903 55.9264C147.933 59.4879 148.092 64.1208 151.61 64.7143C153.289 64.9894 154.115 64.1207 155.331 63.1073C160.528 58.764 156.33 54.4207 150.466 54.7247C152.652 48.731 157.705 43.852 164.408 43.6927C164.47 43.6927 164.529 43.6683 164.572 43.6249C164.616 43.5814 164.64 43.5225 164.64 43.4611C164.64 43.3996 164.616 43.3407 164.572 43.2973C164.529 43.2538 164.47 43.2294 164.408 43.2294C157.169 43.0847 151.48 48.2966 149.236 54.8116C145.37 55.4776 141.534 58.3731 141.432 64.7288C141.426 64.7592 141.427 64.7905 141.433 64.8208C141.44 64.8511 141.452 64.8798 141.469 64.9053C141.487 64.9309 141.509 64.9527 141.535 64.9696C141.561 64.9865 141.59 64.9982 141.62 65.0039C141.651 65.0096 141.682 65.0092 141.712 65.0029C141.743 64.9965 141.771 64.9842 141.797 64.9667C141.822 64.9493 141.844 64.9269 141.861 64.901C141.878 64.8751 141.89 64.8461 141.895 64.8157ZM150.133 55.7526C152.29 55.6079 155.505 56.2738 156.388 58.2283C156.894 59.3431 156.388 60.7185 154.592 62.2242C154.105 62.7124 153.549 63.127 152.942 63.4548C150.77 64.3813 148.367 61.703 150.133 55.7526ZM178.274 108.511C176.875 108.136 175.416 108.045 173.981 108.243C172.547 108.44 171.166 108.923 169.921 109.662C168.676 110.402 167.591 111.383 166.731 112.547C165.87 113.712 165.252 115.037 164.911 116.444C164.268 119.368 164.813 122.428 166.425 124.95C168.038 127.473 170.587 129.251 173.511 129.894C176.435 130.537 179.494 129.993 182.017 128.38C184.539 126.767 186.317 124.218 186.961 121.294C187.235 119.884 187.228 118.433 186.94 117.026C186.651 115.618 186.087 114.282 185.279 113.094C184.472 111.905 183.437 110.888 182.235 110.102C181.032 109.315 179.686 108.774 178.274 108.511ZM182.747 120.31C182.167 122.627 180.776 124.659 178.827 126.04C176.878 127.421 174.499 128.059 172.121 127.838C169.938 126.985 168.125 125.39 167.002 123.332C165.88 121.274 165.518 118.887 165.982 116.589C166.524 114.216 167.902 112.117 169.864 110.676C171.826 109.236 174.24 108.549 176.667 108.742C178.872 109.653 180.684 111.313 181.786 113.429C182.888 115.545 183.208 117.981 182.69 120.31H182.747Z" fill="black"/>
    <path d="M197.558 112.637C196.298 112.202 194.947 112.097 193.635 112.333C193.091 111.085 192.421 109.897 191.637 108.786C192.578 107.931 195.155 105.557 194.532 104.442C192.317 101.792 189.686 99.5185 186.743 97.7101C185.514 97.0216 184.161 96.5837 182.762 96.4215C181.835 96.5518 179.635 100.157 179.142 100.968C178.824 100.968 177.695 100.606 177.608 100.562C177.608 99.5198 177.304 95.7556 176.363 95.3212C175.31 94.9338 174.218 94.6667 173.105 94.525C172.077 94.3657 162.826 96.0596 162.146 97.3047C161.697 98.1444 162.739 101.315 163.043 102.198C162.262 102.628 161.513 103.112 160.799 103.646C159.351 104.674 159.742 104.63 159.482 104.515C159.167 104.364 158.829 104.266 158.483 104.225C157.326 103.547 155.97 103.291 154.646 103.501C153.314 103.935 150.173 111.087 149.666 112.926C149.5 113.39 149.455 113.888 149.535 114.374C149.883 115.329 152.199 116.097 153.169 116.401C152.902 118.264 152.902 120.155 153.169 122.018C151.895 122.366 149.246 123.147 149.391 124.45C149.535 125.753 152.923 134.353 154.328 135.034C155.097 135.464 155.948 135.729 156.825 135.811C157.703 135.893 158.588 135.791 159.424 135.511C159.894 135.276 160.349 135.01 160.785 134.715C161.364 135.149 161.972 135.54 162.594 135.917C162.146 137.031 161.147 139.522 161.465 140.651C161.624 141.244 162.102 141.433 162.768 141.679C164.607 142.345 174.509 144.719 176.015 144.459C176.58 144.372 176.884 143.778 177.058 143.213C177.379 141.928 177.568 140.614 177.622 139.29C178.366 139.217 179.105 139.105 179.837 138.957C180.284 139.744 180.857 140.453 181.531 141.056C182.27 141.577 182.892 141.317 183.732 140.781C184.137 141.302 184.745 142.026 185.397 142.099C187.033 142.287 193.794 135.917 194.489 134.614C195.068 133.528 192.954 131.588 192.013 130.734C193.031 129.202 193.83 127.535 194.387 125.782C195.432 125.94 196.488 125.998 197.544 125.956C198.021 125.956 198.571 125.782 198.774 125.333C199.657 123.321 199.397 115.691 198.774 113.751C198.687 113.187 198.036 112.81 197.558 112.637ZM197.905 113.969C198.398 115.851 198.557 122.959 197.833 124.798C196.581 124.921 195.318 124.863 194.083 124.624C193.951 124.602 193.816 124.629 193.703 124.702C193.591 124.774 193.51 124.886 193.475 125.015C192.899 126.972 192.004 128.821 190.826 130.488C190.742 130.598 190.704 130.737 190.72 130.874C190.737 131.012 190.805 131.138 190.913 131.226C191.928 132.031 192.792 133.012 193.461 134.121C192.737 135.309 187.076 140.492 185.513 140.926C185.281 140.926 184.644 140.057 184.485 139.826C183.95 139.022 183.466 138.186 183.037 137.321C182.974 137.195 182.867 137.097 182.735 137.046C182.604 136.995 182.459 136.995 182.327 137.046C178.129 138.624 176.536 137.697 176.536 138.74C176.538 140.301 176.284 141.851 175.784 143.329C172.381 142.959 169.031 142.212 165.794 141.1C165.95 139.554 166.382 138.049 167.068 136.655C167.502 135.685 165.765 135.96 162.522 132.659C162.418 132.563 162.281 132.509 162.138 132.509C161.996 132.509 161.859 132.563 161.755 132.659C160.307 133.846 158.425 135.005 158.048 134.816C157.31 134.454 153.908 126.738 153.705 125.174C154.735 124.457 155.904 123.963 157.136 123.726C157.268 123.689 157.381 123.606 157.456 123.491C157.53 123.377 157.561 123.239 157.542 123.104C157.187 121.054 157.187 118.958 157.542 116.907C157.564 116.781 157.537 116.651 157.467 116.544C157.398 116.436 157.29 116.359 157.165 116.328C156.074 116.042 155.023 115.619 154.038 115.069C153.72 114.837 153.748 114.852 153.777 114.606C154.715 111.226 156.217 108.029 158.222 105.152C159.004 104.934 161.118 106.484 161.842 107.034C161.917 107.107 162.018 107.148 162.124 107.148C162.229 107.148 162.331 107.107 162.406 107.034C163.071 106.344 163.788 105.705 164.549 105.123C166.749 103.458 167.343 103.675 167.155 103.096C166.489 101.643 166.115 100.074 166.055 98.4774C166.279 98.2908 166.534 98.1439 166.807 98.043C168.159 97.5086 169.548 97.0731 170.962 96.7401C172.677 96.2621 174.44 95.9757 176.218 95.8859C176.522 96.0162 176.797 97.3336 176.869 97.739C177.405 100.635 177.043 101.228 177.463 101.272C181.589 101.677 182.429 102.821 182.718 102.314C183.521 100.91 184.457 99.5866 185.513 98.3615C185.817 98.0575 185.802 97.9127 186.714 98.4339C189.439 100.215 191.879 102.396 193.953 104.905C194.17 105.282 192.288 107.28 190.913 108.452C190.435 108.872 191.115 109.061 192.36 111.435C193.606 113.809 193.316 114.475 193.982 114.33C195.266 114.023 196.587 113.901 197.905 113.969ZM374.841 112.993C371.806 111.753 368.624 110.911 365.373 110.488C362.999 110.112 360.204 109.735 357.844 109.431C360.117 106.217 366.85 98.0809 367.979 96.0975C368.297 95.5618 367.689 94.809 367.24 94.3602C364.721 91.6673 359.857 90.6539 356.122 90.0748C353.979 89.7273 345.032 88.627 343.512 89.3509C341.687 90.2196 328.194 110.488 327.789 113.572C327.789 114.093 327.963 114.296 328.469 114.484C330.597 115.266 340.196 116.482 342.339 116.989C339.443 122.056 326.573 139.183 325.313 141.601C325.009 142.209 325.197 142.571 325.559 142.687C326.862 143.204 328.203 143.62 329.57 143.932C330.091 144.091 331.234 143.382 332.899 142.368C340.37 137.88 372.423 116.714 374.885 113.977C374.953 113.913 375.006 113.835 375.041 113.748C375.076 113.662 375.092 113.569 375.088 113.475C375.084 113.382 375.06 113.29 375.017 113.207C374.975 113.124 374.915 113.051 374.841 112.993ZM343.729 130.366C331.423 138.488 327.268 140.863 327.123 140.964C329.106 137.938 341.427 121.057 343.54 117.018C343.577 116.94 343.596 116.854 343.596 116.768C343.595 116.682 343.576 116.597 343.538 116.519C343.501 116.441 343.447 116.373 343.379 116.319C343.312 116.265 343.234 116.227 343.15 116.207C341.702 115.686 331.162 114.557 328.672 113.673C328.99 110.981 342.136 90.6249 343.729 89.8142C345.321 89.0034 360.769 90.8421 363.664 92.9124C362.144 95.8803 353.747 106.275 352.386 108.693C352.111 109.185 352.024 109.663 352.56 109.793C353.096 109.924 366.705 111.516 369.673 112.486C366.053 115.512 347.782 127.644 343.729 130.308V130.366ZM250.854 113.85C250.854 113.98 250.941 114.139 251.158 114.979C251.215 115.161 251.341 115.314 251.508 115.406C251.675 115.498 251.872 115.521 252.056 115.471C252.24 115.417 252.396 115.293 252.488 115.124C252.58 114.956 252.602 114.758 252.548 114.573C252.403 114.009 252.273 113.531 252.186 113.299C252.102 113.14 251.961 113.019 251.792 112.958C251.623 112.897 251.437 112.901 251.27 112.97C251.104 113.038 250.969 113.167 250.892 113.329C250.816 113.492 250.802 113.677 250.854 113.85Z" fill="black"/>
    <defs>
        <linearGradient id="paint0_linear_6194_1585" x1="243" y1="0" x2="243" y2="275" gradientUnits="userSpaceOnUse">
            <stop stop-color="#C4A8FF"/>
            <stop offset="1" stop-color="white" stop-opacity="0"/>
        </linearGradient>
    </defs>
</svg>
