<svg width="16" height="16" viewBox="0 0 16 16" fill="none" xmlns="http://www.w3.org/2000/svg">
    <g id="Save">
        <path id="Vector" d="M3.5 2.75C3.30109 2.75 3.11032 2.82902 2.96967 2.96967C2.82902 3.11032 2.75 3.30109 2.75 3.5V12.5C2.75 12.6989 2.82902 12.8897 2.96967 13.0303C3.11032 13.171 3.30109 13.25 3.5 13.25H12.5C12.6989 13.25 12.8897 13.171 13.0303 13.0303C13.171 12.8897 13.25 12.6989 13.25 12.5V3.5C13.25 3.30109 13.171 3.11032 13.0303 2.96967C12.8897 2.82902 12.6989 2.75 12.5 2.75H9.125C8.92609 2.75 8.73532 2.82902 8.59467 2.96967C8.45402 3.11032 8.375 3.30109 8.375 3.5V8.96975L10.3595 6.9845C10.4299 6.91408 10.5254 6.87453 10.625 6.87453C10.7246 6.87453 10.8201 6.91408 10.8905 6.9845C10.9609 7.05491 11.0005 7.15042 11.0005 7.25C11.0005 7.34958 10.9609 7.44509 10.8905 7.5155L8.2655 10.1405C8.23067 10.1754 8.18928 10.2031 8.14372 10.222C8.09817 10.2409 8.04933 10.2507 8 10.2507C7.95067 10.2507 7.90183 10.2409 7.85627 10.222C7.81072 10.2031 7.76933 10.1754 7.7345 10.1405L5.1095 7.5155C5.07463 7.48063 5.04698 7.43924 5.02811 7.39369C5.00924 7.34813 4.99953 7.29931 4.99953 7.25C4.99953 7.20069 5.00924 7.15187 5.02811 7.10631C5.04698 7.06076 5.07463 7.01937 5.1095 6.9845C5.14437 6.94963 5.18576 6.92198 5.23131 6.90311C5.27687 6.88424 5.32569 6.87453 5.375 6.87453C5.42431 6.87453 5.47313 6.88424 5.51869 6.90311C5.56424 6.92198 5.60563 6.94963 5.6405 6.9845L7.625 8.96975V3.5C7.625 3.10218 7.78304 2.72064 8.06434 2.43934C8.34564 2.15804 8.72718 2 9.125 2H12.5C12.8978 2 13.2794 2.15804 13.5607 2.43934C13.842 2.72064 14 3.10218 14 3.5V12.5C14 12.8978 13.842 13.2794 13.5607 13.5607C13.2794 13.842 12.8978 14 12.5 14H3.5C3.10218 14 2.72064 13.842 2.43934 13.5607C2.15804 13.2794 2 12.8978 2 12.5V3.5C2 3.10218 2.15804 2.72064 2.43934 2.43934C2.72064 2.15804 3.10218 2 3.5 2H5.375C5.47446 2 5.56984 2.03951 5.64016 2.10983C5.71049 2.18016 5.75 2.27554 5.75 2.375C5.75 2.47446 5.71049 2.56984 5.64016 2.64017C5.56984 2.71049 5.47446 2.75 5.375 2.75H3.5Z" fill="currentColor" stroke="currentColor" stroke-width="0.5"/>
    </g>
</svg>
