<svg width="12" height="12" viewBox="0 0 12 12" fill="none" xmlns="http://www.w3.org/2000/svg">
<g id="Save">
<path id="Vector" d="M2.625 2.0625C2.47582 2.0625 2.33274 2.12176 2.22725 2.22725C2.12176 2.33274 2.0625 2.47582 2.0625 2.625V9.375C2.0625 9.52418 2.12176 9.66726 2.22725 9.77275C2.33274 9.87824 2.47582 9.9375 2.625 9.9375H9.375C9.52418 9.9375 9.66726 9.87824 9.77275 9.77275C9.87824 9.66726 9.9375 9.52418 9.9375 9.375V2.625C9.9375 2.47582 9.87824 2.33274 9.77275 2.22725C9.66726 2.12176 9.52418 2.0625 9.375 2.0625H6.84375C6.69457 2.0625 6.55149 2.12176 6.446 2.22725C6.34051 2.33274 6.28125 2.47582 6.28125 2.625V6.72731L7.76962 5.23837C7.82244 5.18556 7.89406 5.15589 7.96875 5.15589C8.04344 5.15589 8.11506 5.18556 8.16788 5.23837C8.22069 5.29119 8.25036 5.36281 8.25036 5.4375C8.25036 5.51219 8.22069 5.58381 8.16788 5.63663L6.19913 7.60538C6.173 7.63157 6.14196 7.65235 6.10779 7.66653C6.07362 7.6807 6.03699 7.688 6 7.688C5.96301 7.688 5.92638 7.6807 5.89221 7.66653C5.85804 7.65235 5.827 7.63157 5.80087 7.60538L3.83212 5.63663C3.80598 5.61048 3.78523 5.57943 3.77108 5.54527C3.75693 5.5111 3.74964 5.47448 3.74964 5.4375C3.74964 5.40052 3.75693 5.3639 3.77108 5.32973C3.78523 5.29557 3.80598 5.26452 3.83212 5.23837C3.85827 5.21223 3.88932 5.19148 3.92348 5.17733C3.95765 5.16318 3.99427 5.15589 4.03125 5.15589C4.06823 5.15589 4.10485 5.16318 4.13902 5.17733C4.17318 5.19148 4.20423 5.21223 4.23038 5.23837L5.71875 6.72731V2.625C5.71875 2.32663 5.83728 2.04048 6.04825 1.8295C6.25923 1.61853 6.54538 1.5 6.84375 1.5H9.375C9.67337 1.5 9.95952 1.61853 10.1705 1.8295C10.3815 2.04048 10.5 2.32663 10.5 2.625V9.375C10.5 9.67337 10.3815 9.95952 10.1705 10.1705C9.95952 10.3815 9.67337 10.5 9.375 10.5H2.625C2.32663 10.5 2.04048 10.3815 1.8295 10.1705C1.61853 9.95952 1.5 9.67337 1.5 9.375V2.625C1.5 2.32663 1.61853 2.04048 1.8295 1.8295C2.04048 1.61853 2.32663 1.5 2.625 1.5H4.03125C4.10584 1.5 4.17738 1.52963 4.23012 1.58238C4.28287 1.63512 4.3125 1.70666 4.3125 1.78125C4.3125 1.85584 4.28287 1.92738 4.23012 1.98012C4.17738 2.03287 4.10584 2.0625 4.03125 2.0625H2.625Z" fill="#1D2129" stroke="#1D2129" stroke-width="0.375"/>
</g>
</svg>
