<svg width="40" height="40" viewBox="0 0 40 40" fill="none" xmlns="http://www.w3.org/2000/svg">
<path fill-rule="evenodd" clip-rule="evenodd" d="M18.3335 3.33332C18.3335 2.41285 19.0797 1.66666 20.0002 1.66666C20.9206 1.66666 21.6668 2.41285 21.6668 3.33332V9.99999C21.6668 10.9205 20.9206 11.6667 20.0002 11.6667C19.0797 11.6667 18.3335 10.9205 18.3335 9.99999V3.33332ZM2.15515 5.48816C2.80602 4.83728 3.8613 4.83728 4.51217 5.48816L9.51217 10.4882C10.163 11.139 10.163 12.1943 9.51217 12.8452C8.8613 13.4961 7.80602 13.4961 7.15515 12.8452L2.15515 7.84518C1.50427 7.1943 1.50427 6.13903 2.15515 5.48816ZM35.4882 5.48816C36.139 4.83728 37.1943 4.83728 37.8452 5.48816C38.4961 6.13903 38.4961 7.1943 37.8452 7.84518L32.8452 12.8452C32.1943 13.4961 31.139 13.4961 30.4882 12.8452C29.8373 12.1943 29.8373 11.139 30.4882 10.4882L35.4882 5.48816ZM26.9194 26.4142C27.7005 27.1953 28.9668 27.1953 29.7479 26.4142C30.5289 25.6332 30.5289 24.3668 29.7479 23.5858L21.4145 15.2525C20.6335 14.4714 19.3672 14.4714 18.5861 15.2525L10.2528 23.5858C9.47173 24.3668 9.47173 25.6332 10.2528 26.4142C11.0338 27.1953 12.3002 27.1953 13.0812 26.4142L18.0003 21.4951V36.6667C18.0003 37.7712 18.8958 38.6667 20.0003 38.6667C21.1049 38.6667 22.0003 37.7712 22.0003 36.6667V21.4951L26.9194 26.4142Z" fill="url(#paint0_linear_14189_22127)"/>
<defs>
<linearGradient id="paint0_linear_14189_22127" x1="20.0002" y1="1.66666" x2="20.0002" y2="38.6667" gradientUnits="userSpaceOnUse">
<stop stop-color="#654AEC" stop-opacity="0.24"/>
<stop offset="1" stop-color="#654AEC" stop-opacity="0"/>
</linearGradient>
</defs>
</svg>
