<svg width="118" height="24" viewBox="0 0 118 24" fill="none" xmlns="http://www.w3.org/2000/svg">
    <rect width="118" height="24" rx="4" fill="#F2F3F5"/>
    <path d="M14.076 11.536V8.392h2.232c.648 0 1.12.136 1.416.408.304.264.456.652.456 1.164 0 .512-.152.904-.456 1.176-.296.272-.768.404-1.416.396h-2.232zm-1.14-4.104V16h1.14v-3.504h2.616c.864.008 1.516-.212 1.956-.66.448-.448.672-1.072.672-1.872s-.224-1.42-.672-1.86c-.44-.448-1.092-.672-1.956-.672h-3.756zm8.357 5.472c0-.376.048-.708.144-.996a2.23 2.23 0 0 1 .42-.744c.176-.2.38-.352.612-.456a1.881 1.881 0 0 1 1.5 0c.24.104.448.256.624.456s.312.448.408.744c.104.288.156.62.156.996s-.052.712-.156 1.008a2.096 2.096 0 0 1-.408.732c-.176.192-.384.34-.624.444a1.881 1.881 0 0 1-1.5 0 1.85 1.85 0 0 1-.612-.444 2.252 2.252 0 0 1-.42-.732 3.262 3.262 0 0 1-.144-1.008zm-1.08 0c0 .456.064.88.192 1.272s.32.736.576 1.032c.256.288.572.516.948.684.376.16.808.24 1.296.24.496 0 .928-.08 1.296-.24a2.75 2.75 0 0 0 .948-.684c.256-.296.448-.64.576-1.032.128-.392.192-.816.192-1.272 0-.456-.064-.88-.192-1.272-.128-.4-.32-.744-.576-1.032a2.679 2.679 0 0 0-.948-.696c-.368-.168-.8-.252-1.296-.252-.488 0-.92.084-1.296.252-.376.168-.692.4-.948.696a2.829 2.829 0 0 0-.576 1.032 4.075 4.075 0 0 0-.192 1.272zM33.583 16l1.98-6.204h-1.055l-1.392 5.076h-.024l-1.296-5.076H30.68l-1.248 5.076h-.024l-1.404-5.076h-1.128L28.868 16h1.104l1.248-4.932h.024L32.504 16h1.08zm7.259-3.696h-3.564c.016-.24.068-.464.156-.672a1.79 1.79 0 0 1 .36-.564c.152-.16.332-.284.54-.372.216-.096.456-.144.72-.144.256 0 .488.048.696.144.216.088.4.212.552.372.16.152.284.336.372.552.096.216.152.444.168.684zm.984 1.728h-1.008c-.088.408-.272.712-.552.912-.272.2-.624.3-1.056.3-.336 0-.628-.056-.876-.168a1.752 1.752 0 0 1-.612-.444 1.818 1.818 0 0 1-.348-.648 2.515 2.515 0 0 1-.096-.78h4.644a4.76 4.76 0 0 0-.108-1.188 3.28 3.28 0 0 0-.456-1.152 2.587 2.587 0 0 0-.876-.864c-.36-.232-.816-.348-1.368-.348-.424 0-.816.08-1.176.24-.352.16-.66.384-.924.672a3.154 3.154 0 0 0-.6 1.02 3.733 3.733 0 0 0-.216 1.296c.016.472.084.908.204 1.308.128.4.316.744.564 1.032.248.288.552.512.912.672.368.16.8.24 1.296.24.704 0 1.288-.176 1.752-.528.464-.352.764-.876.9-1.572zm1.117-4.236V16h1.02v-2.76c0-.4.04-.752.12-1.056.08-.312.208-.576.384-.792.176-.216.408-.38.696-.492.288-.112.636-.168 1.044-.168v-1.08c-.552-.016-1.008.096-1.368.336-.36.24-.664.612-.912 1.116h-.024V9.796h-.96zm8.13 2.508h-3.565c.016-.24.068-.464.156-.672a1.79 1.79 0 0 1 .36-.564c.152-.16.332-.284.54-.372.216-.096.456-.144.72-.144.256 0 .488.048.696.144.216.088.4.212.552.372.16.152.284.336.372.552.096.216.152.444.168.684zm.983 1.728h-1.008c-.088.408-.272.712-.552.912-.272.2-.624.3-1.056.3-.336 0-.628-.056-.876-.168a1.752 1.752 0 0 1-.612-.444 1.818 1.818 0 0 1-.348-.648 2.515 2.515 0 0 1-.096-.78h4.644a4.76 4.76 0 0 0-.108-1.188 3.28 3.28 0 0 0-.456-1.152 2.587 2.587 0 0 0-.876-.864c-.36-.232-.816-.348-1.368-.348-.424 0-.816.08-1.176.24-.352.16-.66.384-.924.672a3.154 3.154 0 0 0-.6 1.02 3.733 3.733 0 0 0-.216 1.296c.016.472.084.908.204 1.308.128.4.316.744.564 1.032.248.288.552.512.912.672.368.16.8.24 1.296.24.704 0 1.288-.176 1.752-.528.464-.352.764-.876.9-1.572zm1.897-1.08c0-.304.032-.6.096-.888a2.35 2.35 0 0 1 .312-.768c.144-.224.336-.404.576-.54.24-.136.532-.204.876-.204.352 0 .652.068.9.204.248.128.448.3.6.516.16.216.276.468.348.756a3.504 3.504 0 0 1 0 1.728 2.21 2.21 0 0 1-.324.756 1.781 1.781 0 0 1-.588.528c-.24.136-.532.204-.876.204-.328 0-.616-.064-.864-.192-.24-.128-.44-.3-.6-.516a2.474 2.474 0 0 1-.348-.732 3.408 3.408 0 0 1-.108-.852zm4.8 3.048V7.432h-1.02v3.192h-.024a1.53 1.53 0 0 0-.42-.456 1.975 1.975 0 0 0-.516-.3 2.425 2.425 0 0 0-.552-.168 3.021 3.021 0 0 0-.516-.048c-.472 0-.888.088-1.248.264a2.53 2.53 0 0 0-.888.696 3.011 3.011 0 0 0-.528 1.02 4.523 4.523 0 0 0-.168 1.248c0 .44.06.856.18 1.248s.296.736.528 1.032c.24.296.536.532.888.708.36.176.78.264 1.26.264.432 0 .828-.076 1.188-.228.36-.152.624-.4.792-.744h.024V16h1.02zM63.7 7.432V16h1.02v-.828h.024c.112.184.248.34.407.468.168.12.344.216.528.288.184.072.368.124.553.156.192.032.364.048.516.048.472 0 .883-.084 1.236-.252a2.45 2.45 0 0 0 .888-.684c.24-.296.416-.64.528-1.032.12-.392.18-.808.18-1.248 0-.44-.06-.856-.18-1.248s-.3-.736-.54-1.032a2.453 2.453 0 0 0-.888-.72c-.353-.176-.769-.264-1.249-.264-.431 0-.828.08-1.188.24-.36.152-.624.4-.791.744h-.024V7.432h-1.02zm4.8 5.412c0 .304-.032.6-.096.888a2.35 2.35 0 0 1-.313.768 1.624 1.624 0 0 1-.576.54c-.231.136-.523.204-.876.204-.352 0-.651-.064-.9-.192a1.866 1.866 0 0 1-.612-.528 2.256 2.256 0 0 1-.336-.744 3.647 3.647 0 0 1-.108-.888c0-.288.032-.572.096-.852.072-.28.184-.528.337-.744.151-.224.348-.404.588-.54s.531-.204.876-.204c.328 0 .612.064.852.192.248.128.448.3.6.516.16.216.275.464.347.744.08.272.12.552.12.84zm4.713 3.984c-.12.304-.24.56-.36.768-.112.208-.24.376-.384.504a1.146 1.146 0 0 1-.468.288 1.647 1.647 0 0 1-.588.096c-.12 0-.24-.008-.36-.024a1.7 1.7 0 0 1-.348-.084v-.936c.088.04.188.072.3.096.12.032.22.048.3.048.208 0 .38-.052.516-.156a.867.867 0 0 0 .324-.42l.42-1.044-2.46-6.168h1.152l1.812 5.076h.024l1.74-5.076h1.08l-2.7 7.032z" fill="#A9AEB8"/>
    <path fill-rule="evenodd" clip-rule="evenodd" d="M85.412 6h3.235v12h-3.235V6zM81 10.5h3.235V18H81v-7.5zM93.059 6h-3.236v12h3.236V6z" fill="#654AEC"/>
    <path fill="#FF58BE" d="M81 6h3.235v3.3H81z"/>
    <path fill-rule="evenodd" clip-rule="evenodd" d="M102.765 12c0 1.491-1.185 2.7-2.647 2.7-1.462 0-2.647-1.209-2.647-2.7s1.185-2.7 2.647-2.7c1.462 0 2.647 1.209 2.647 2.7zm0 5.36c-.796.41-1.695.64-2.647.64-3.249 0-5.883-2.686-5.883-6s2.634-6 5.883-6C103.366 6 106 8.686 106 12v6h-3.235v-.64z" fill="#654AEC"/>
</svg>
