<svg width="49" height="49" viewBox="0 0 49 49" fill="none" xmlns="http://www.w3.org/2000/svg">
    <path d="M28 34H14C12.8954 34 12 33.1046 12 32V12C12 10.8954 12.8954 10 14 10H22H26H34C35.1046 10 36 10.8954 36 12V26" stroke="#A9AEB8" stroke-width="1.5" stroke-linecap="round"/>
    <path d="M33 12H25.6667H22.3333H15C14.4477 12 14 12.4477 14 13V31C14 31.5523 14.4477 32 15 32H27.3333H33C33.5523 32 34 31.5523 34 31V25.3333V13C34 12.4477 33.5523 12 33 12Z" fill="#F2F3F5"/>
    <path d="M35.9759 35.3987L34.0592 40.3089L30.9961 29.464L41.1443 34.3638L35.9759 35.3987Z" fill="white" stroke="#A9AEB8" stroke-width="1.5" stroke-linecap="round" stroke-linejoin="round"/>
</svg>
