<svg width="24" height="24" viewBox="0 0 24 24" fill="none" xmlns="http://www.w3.org/2000/svg">
    <path fill-rule="evenodd" clip-rule="evenodd" d="M6.07654 7H13.9244L14 8.99433H13.5583C13.3194 7.7423 12.8583 7.54862 11.0748 7.49838L10.6773 7.48784V15.8306C10.6773 16.3679 10.8101 16.4951 11.8817 16.5786V17H8.11735V16.5786C9.1834 16.4951 9.3162 16.3679 9.3162 15.8306V7.48784L8.92519 7.49838C7.14075 7.54862 6.6815 7.7423 6.44173 8.99352H6L6.07654 7ZM13.0478 11.5556H17.9527L18 12.8536H17.7239C17.5746 12.0387 17.2865 11.9126 16.1718 11.8799L15.9233 11.8731V16.2389C15.9233 16.5886 16.0063 16.6714 16.6761 16.7257V17H14.3233V16.7257C14.9896 16.6714 15.0726 16.5886 15.0726 16.2389V11.8731L14.8282 11.8799C13.713 11.9126 13.4259 12.0387 13.2761 12.8531H13L13.0478 11.5556Z" fill="#1D2129"/>
    <path d="M13.9244 7L14.0243 6.99621L14.0207 6.9H13.9244V7ZM6.07654 7V6.9H5.98031L5.97662 6.99616L6.07654 7ZM14 8.99433V9.09433H14.1039L14.0999 8.99054L14 8.99433ZM13.5583 8.99433L13.46 9.01307L13.4755 9.09433H13.5583V8.99433ZM11.0748 7.49838L11.0776 7.39842L11.0775 7.39841L11.0748 7.49838ZM10.6773 7.48784L10.68 7.38788L10.5773 7.38516V7.48784H10.6773ZM11.8817 16.5786H11.9817V16.4861L11.8895 16.4789L11.8817 16.5786ZM11.8817 17V17.1H11.9817V17H11.8817ZM8.11735 17H8.01735V17.1H8.11735V17ZM8.11735 16.5786L8.10954 16.4789L8.01735 16.4861V16.5786H8.11735ZM9.3162 7.48784H9.4162V7.38511L9.3135 7.38788L9.3162 7.48784ZM8.92519 7.49838L8.92249 7.39842L8.92237 7.39842L8.92519 7.49838ZM6.44173 8.99352V9.09352H6.52439L6.53994 9.01234L6.44173 8.99352ZM6 8.99352L5.90007 8.98968L5.89609 9.09352H6V8.99352ZM17.9527 11.5556L18.0527 11.5519L18.0492 11.4556H17.9527V11.5556ZM13.0478 11.5556V11.4556H12.9515L12.9479 11.5519L13.0478 11.5556ZM18 12.8536V12.9536H18.1037L18.0999 12.85L18 12.8536ZM17.7239 12.8536L17.6256 12.8716L17.6406 12.9536H17.7239V12.8536ZM16.1718 11.8799L16.1747 11.78L16.1745 11.78L16.1718 11.8799ZM15.9233 11.8731L15.9261 11.7731L15.8233 11.7703V11.8731H15.9233ZM16.6761 16.7257H16.7761V16.6335L16.6842 16.626L16.6761 16.7257ZM16.6761 17V17.1H16.7761V17H16.6761ZM14.3233 17H14.2233V17.1H14.3233V17ZM14.3233 16.7257L14.3152 16.6261L14.2233 16.6335V16.7257H14.3233ZM15.0726 11.8731H15.1726V11.7702L15.0698 11.7731L15.0726 11.8731ZM14.8282 11.8799L14.8254 11.78L14.8253 11.78L14.8282 11.8799ZM13.2761 12.8531V12.9531H13.3594L13.3744 12.8712L13.2761 12.8531ZM13 12.8531L12.9001 12.8494L12.8962 12.9531H13V12.8531ZM13.9244 6.9H6.07654V7.1H13.9244V6.9ZM14.0999 8.99054L14.0243 6.99621L13.8245 7.00379L13.9001 8.99812L14.0999 8.99054ZM13.5583 9.09433H14V8.89433H13.5583V9.09433ZM11.072 7.59834C11.517 7.61088 11.8753 7.63229 12.1668 7.67614C12.4584 7.72 12.6771 7.78548 12.846 7.88242C13.175 8.07116 13.3421 8.39501 13.46 9.01307L13.6565 8.97559C13.5356 8.34162 13.3528 7.94261 12.9456 7.70895C12.7464 7.59469 12.5005 7.52408 12.1966 7.47836C11.8925 7.43264 11.5243 7.411 11.0776 7.39842L11.072 7.59834ZM10.6747 7.58781L11.0722 7.59834L11.0775 7.39841L10.68 7.38788L10.6747 7.58781ZM10.7773 15.8306V7.48784H10.5773V15.8306H10.7773ZM11.8895 16.4789C11.6226 16.4581 11.418 16.4349 11.2608 16.404C11.1026 16.3729 11.0002 16.3355 10.9325 16.2911C10.8123 16.2125 10.7773 16.0968 10.7773 15.8306H10.5773C10.5773 16.1017 10.6088 16.3183 10.8229 16.4585C10.9223 16.5235 11.0541 16.5672 11.2222 16.6002C11.3912 16.6334 11.6051 16.6574 11.874 16.6783L11.8895 16.4789ZM11.9817 17V16.5786H11.7817V17H11.9817ZM8.11735 17.1H11.8817V16.9H8.11735V17.1ZM8.01735 16.5786V17H8.21735V16.5786H8.01735ZM9.2162 15.8306C9.2162 16.0968 9.18124 16.2126 9.06162 16.2912C8.99423 16.3355 8.89241 16.3729 8.73504 16.404C8.57855 16.4349 8.37505 16.4581 8.10954 16.4789L8.12515 16.6783C8.39267 16.6574 8.60554 16.6334 8.77378 16.6002C8.94114 16.5671 9.0724 16.5235 9.17147 16.4584C9.38475 16.3182 9.4162 16.1017 9.4162 15.8306H9.2162ZM9.2162 7.48784V15.8306H9.4162V7.48784H9.2162ZM8.92788 7.59834L9.31889 7.58781L9.3135 7.38788L8.92249 7.39842L8.92788 7.59834ZM6.53994 9.01234C6.65832 8.39461 6.82527 8.07096 7.15398 7.88232C7.32281 7.78543 7.54135 7.71997 7.83293 7.67613C8.12442 7.63229 8.48272 7.61088 8.928 7.59834L8.92237 7.39842C8.47543 7.411 8.10717 7.43264 7.80318 7.47835C7.49929 7.52405 7.25345 7.59464 7.05443 7.70885C6.64746 7.94241 6.46491 8.34121 6.34352 8.9747L6.53994 9.01234ZM6 9.09352H6.44173V8.89352H6V9.09352ZM5.97662 6.99616L5.90007 8.98968L6.09993 8.99735L6.17647 7.00384L5.97662 6.99616ZM17.9527 11.4556H13.0478V11.6556H17.9527V11.4556ZM18.0999 12.85L18.0527 11.5519L17.8528 11.5592L17.9001 12.8573L18.0999 12.85ZM17.7239 12.9536H18V12.7536H17.7239V12.9536ZM16.1688 11.9799C16.4466 11.988 16.6685 12.0019 16.8481 12.0301C17.0277 12.0582 17.1589 12.0997 17.2586 12.1593C17.4499 12.2736 17.5522 12.471 17.6256 12.8716L17.8223 12.8356C17.7464 12.4213 17.6299 12.1482 17.3612 11.9876C17.2308 11.9097 17.0716 11.8626 16.879 11.8325C16.6864 11.8023 16.4542 11.7882 16.1747 11.78L16.1688 11.9799ZM15.9206 11.973L16.169 11.9799L16.1745 11.78L15.9261 11.7731L15.9206 11.973ZM16.0233 16.2389V11.8731H15.8233V16.2389H16.0233ZM16.6842 16.626C16.5178 16.6126 16.3919 16.5976 16.296 16.5779C16.1993 16.5581 16.1411 16.5351 16.1049 16.5104C16.0463 16.4705 16.0233 16.4124 16.0233 16.2389H15.8233C15.8233 16.4151 15.8419 16.5732 15.9922 16.6757C16.0605 16.7222 16.1487 16.7519 16.2559 16.7739C16.3639 16.796 16.4995 16.8117 16.668 16.8254L16.6842 16.626ZM16.7761 17V16.7257H16.5761V17H16.7761ZM14.3233 17.1H16.6761V16.9H14.3233V17.1ZM14.2233 16.7257V17H14.4233V16.7257H14.2233ZM14.9726 16.2389C14.9726 16.4124 14.9497 16.4706 14.8914 16.5105C14.8553 16.5352 14.7976 16.5582 14.7014 16.578C14.606 16.5976 14.4807 16.6126 14.3152 16.6261L14.3315 16.8254C14.4991 16.8117 14.6341 16.796 14.7416 16.7739C14.8484 16.7519 14.9363 16.7221 15.0043 16.6756C15.1541 16.5731 15.1726 16.4151 15.1726 16.2389H14.9726ZM14.9726 11.8731V16.2389H15.1726V11.8731H14.9726ZM14.831 11.9799L15.0754 11.973L15.0698 11.7731L14.8254 11.78L14.831 11.9799ZM13.3744 12.8712C13.4481 12.4708 13.5503 12.2735 13.7414 12.1592C13.841 12.0997 13.9721 12.0582 14.1518 12.0301C14.3313 12.0019 14.5532 11.988 14.8312 11.9799L14.8253 11.78C14.5456 11.7882 14.3134 11.8023 14.1208 11.8325C13.9282 11.8626 13.7691 11.9097 13.6388 11.9875C13.3702 12.1481 13.2539 12.421 13.1777 12.835L13.3744 12.8712ZM13 12.9531H13.2761V12.7531H13V12.9531ZM12.9479 11.5519L12.9001 12.8494L13.0999 12.8568L13.1478 11.5592L12.9479 11.5519Z" fill="#1D2129"/>
</svg>
