<svg width="14" height="14" viewBox="0 0 14 14" fill="none" xmlns="http://www.w3.org/2000/svg">
<rect width="14" height="14" rx="2" fill="#FFEFB7"/>
<path d="M4.53117 7.43C4.53117 7.07 4.57784 6.71667 4.67117 6.37C4.76451 6.01667 4.91117 5.7 5.11117 5.42C5.31117 5.14 5.56784 4.91667 5.88117 4.75C6.19451 4.57667 6.56784 4.49 7.00117 4.49C7.43451 4.49 7.80784 4.57667 8.12117 4.75C8.43451 4.91667 8.69117 5.14 8.89117 5.42C9.09117 5.7 9.23784 6.01667 9.33117 6.37C9.42451 6.71667 9.47117 7.07 9.47117 7.43C9.47117 7.79 9.42451 8.14667 9.33117 8.5C9.23784 8.84667 9.09117 9.16 8.89117 9.44C8.69117 9.72 8.43451 9.94667 8.12117 10.12C7.80784 10.2867 7.43451 10.37 7.00117 10.37C6.56784 10.37 6.19451 10.2867 5.88117 10.12C5.56784 9.94667 5.31117 9.72 5.11117 9.44C4.91117 9.16 4.76451 8.84667 4.67117 8.5C4.57784 8.14667 4.53117 7.79 4.53117 7.43ZM3.58117 7.43C3.58117 7.91667 3.65117 8.38667 3.79117 8.84C3.93784 9.28667 4.15451 9.68333 4.44117 10.03C4.72784 10.3767 5.08451 10.6533 5.51117 10.86C5.93784 11.06 6.43451 11.16 7.00117 11.16C7.56784 11.16 8.06451 11.06 8.49117 10.86C8.91784 10.6533 9.27451 10.3767 9.56117 10.03C9.84784 9.68333 10.0612 9.28667 10.2012 8.84C10.3478 8.38667 10.4212 7.91667 10.4212 7.43C10.4212 6.94333 10.3478 6.47667 10.2012 6.03C10.0612 5.57667 9.84784 5.17667 9.56117 4.83C9.27451 4.48333 8.91784 4.20667 8.49117 4C8.06451 3.79333 7.56784 3.69 7.00117 3.69C6.43451 3.69 5.93784 3.79333 5.51117 4C5.08451 4.20667 4.72784 4.48333 4.44117 4.83C4.15451 5.17667 3.93784 5.57667 3.79117 6.03C3.65117 6.47667 3.58117 6.94333 3.58117 7.43Z" fill="#FFAB00"/>
</svg>
