<svg width="14" height="14" viewBox="0 0 14 14" fill="none" xmlns="http://www.w3.org/2000/svg">
<rect width="14" height="14" rx="2" fill="#EDF4FF"/>
<path d="M9.1916 6.01H10.1416C10.0883 5.63 9.97494 5.29667 9.8016 5.01C9.62827 4.71667 9.4116 4.47333 9.1516 4.28C8.8916 4.08667 8.59493 3.94 8.2616 3.84C7.92827 3.74 7.57493 3.69 7.2016 3.69C6.65494 3.69 6.16827 3.79 5.7416 3.99C5.3216 4.18333 4.96827 4.45 4.6816 4.79C4.4016 5.13 4.18827 5.53 4.0416 5.99C3.89493 6.44333 3.8216 6.93 3.8216 7.45C3.8216 7.97 3.88827 8.45667 4.0216 8.91C4.1616 9.36333 4.36827 9.75667 4.6416 10.09C4.91493 10.4233 5.25827 10.6867 5.6716 10.88C6.08494 11.0667 6.56827 11.16 7.1216 11.16C8.03494 11.16 8.75494 10.91 9.2816 10.41C9.80827 9.91 10.1183 9.21 10.2116 8.31H9.2616C9.2416 8.60333 9.1816 8.87667 9.0816 9.13C8.9816 9.38333 8.8416 9.60333 8.6616 9.79C8.48827 9.97 8.27827 10.1133 8.0316 10.22C7.7916 10.32 7.51494 10.37 7.2016 10.37C6.77493 10.37 6.40827 10.29 6.1016 10.13C5.79494 9.97 5.5416 9.75667 5.3416 9.49C5.14827 9.21667 5.00493 8.9 4.9116 8.54C4.81827 8.17333 4.7716 7.78667 4.7716 7.38C4.7716 7.00667 4.81827 6.64667 4.9116 6.3C5.00493 5.95333 5.14827 5.64667 5.3416 5.38C5.5416 5.10667 5.7916 4.89 6.0916 4.73C6.39827 4.57 6.76494 4.49 7.1916 4.49C7.6916 4.49 8.1216 4.61667 8.4816 4.87C8.84827 5.12333 9.08494 5.50333 9.1916 6.01Z" fill="#1E6FFF"/>
</svg>
