<svg width="14" height="14" viewBox="0 0 14 14" fill="none" xmlns="http://www.w3.org/2000/svg">
<rect width="14" height="14" rx="2" fill="#FFE4E4"/>
<path d="M8.66781 5.95H9.56781C9.55448 5.55667 9.47781 5.22 9.33781 4.94C9.20448 4.65333 9.01781 4.41667 8.77781 4.23C8.54448 4.04333 8.27115 3.90667 7.95781 3.82C7.64448 3.73333 7.30448 3.69 6.93781 3.69C6.61115 3.69 6.29115 3.73333 5.97781 3.82C5.67115 3.9 5.39448 4.02667 5.14781 4.2C4.90781 4.36667 4.71448 4.58333 4.56781 4.85C4.42115 5.11 4.34781 5.42 4.34781 5.78C4.34781 6.10667 4.41115 6.38 4.53781 6.6C4.67115 6.81333 4.84448 6.99 5.05781 7.13C5.27781 7.26333 5.52448 7.37333 5.79781 7.46C6.07115 7.54 6.34781 7.61333 6.62781 7.68C6.91448 7.74 7.19448 7.8 7.46781 7.86C7.74115 7.92 7.98448 8 8.19781 8.1C8.41781 8.19333 8.59115 8.31667 8.71781 8.47C8.85115 8.62333 8.91781 8.82333 8.91781 9.07C8.91781 9.33 8.86448 9.54333 8.75781 9.71C8.65115 9.87667 8.51115 10.01 8.33781 10.11C8.16448 10.2033 7.96781 10.27 7.74781 10.31C7.53448 10.35 7.32115 10.37 7.10781 10.37C6.84115 10.37 6.58115 10.3367 6.32781 10.27C6.07448 10.2033 5.85115 10.1 5.65781 9.96C5.47115 9.82 5.31781 9.64333 5.19781 9.43C5.08448 9.21 5.02781 8.95 5.02781 8.65H4.12781C4.12781 9.08333 4.20448 9.46 4.35781 9.78C4.51781 10.0933 4.73115 10.3533 4.99781 10.56C5.27115 10.76 5.58448 10.91 5.93781 11.01C6.29781 11.11 6.67781 11.16 7.07781 11.16C7.40448 11.16 7.73115 11.12 8.05781 11.04C8.39115 10.9667 8.69115 10.8467 8.95781 10.68C9.22448 10.5067 9.44115 10.2867 9.60781 10.02C9.78115 9.74667 9.86781 9.42 9.86781 9.04C9.86781 8.68667 9.80115 8.39333 9.66781 8.16C9.54115 7.92667 9.36781 7.73333 9.14781 7.58C8.93448 7.42667 8.69115 7.30667 8.41781 7.22C8.14448 7.12667 7.86448 7.04667 7.57781 6.98C7.29781 6.91333 7.02115 6.85333 6.74781 6.8C6.47448 6.74 6.22781 6.66667 6.00781 6.58C5.79448 6.49333 5.62115 6.38333 5.48781 6.25C5.36115 6.11 5.29781 5.93 5.29781 5.71C5.29781 5.47667 5.34115 5.28333 5.42781 5.13C5.52115 4.97 5.64115 4.84333 5.78781 4.75C5.94115 4.65667 6.11448 4.59 6.30781 4.55C6.50115 4.51 6.69781 4.49 6.89781 4.49C7.39115 4.49 7.79448 4.60667 8.10781 4.84C8.42781 5.06667 8.61448 5.43667 8.66781 5.95Z" fill="#FF4747"/>
</svg>
