<svg width="14" height="14" viewBox="0 0 14 14" fill="none" xmlns="http://www.w3.org/2000/svg">
<rect width="14" height="14" rx="2" fill="#FBF2FE"/>
<path d="M9.8716 8.42V3.86H8.9216V8.42C8.9216 9.06 8.7616 9.54667 8.4416 9.88C8.12827 10.2067 7.66827 10.37 7.0616 10.37C6.4216 10.37 5.9316 10.2067 5.5916 9.88C5.2516 9.54667 5.0816 9.06 5.0816 8.42V3.86H4.1316V8.42C4.1316 9.37333 4.38827 10.07 4.9016 10.51C5.4216 10.9433 6.1416 11.16 7.0616 11.16C7.9616 11.16 8.65494 10.9333 9.1416 10.48C9.62827 10.02 9.8716 9.33333 9.8716 8.42Z" fill="#A55BF5"/>
</svg>
