<svg width="16" height="16" viewBox="0 0 16 16" fill="none" xmlns="http://www.w3.org/2000/svg">
<path d="M3.11111 7H6.88889C6.91836 7 6.94662 6.98683 6.96746 6.96339C6.98829 6.93995 7 6.90815 7 6.875V4.125C7 4.09185 6.98829 4.06005 6.96746 4.03661C6.94662 4.01317 6.91836 4 6.88889 4H3.11111C3.08164 4 3.05338 4.01317 3.03254 4.03661C3.01171 4.06005 3 4.09185 3 4.125V6.875C3 6.90815 3.01171 6.93995 3.03254 6.96339C3.05338 6.98683 3.08164 7 3.11111 7Z" stroke="currentColor"/>
<path d="M9.11111 7H12.8889C12.9184 7 12.9466 6.98683 12.9675 6.96339C12.9883 6.93995 13 6.90815 13 6.875V4.125C13 4.09185 12.9883 4.06005 12.9675 4.03661C12.9466 4.01317 12.9184 4 12.8889 4H9.11111C9.08164 4 9.05338 4.01317 9.03254 4.03661C9.01171 4.06005 9 4.09185 9 4.125V6.875C9 6.90815 9.01171 6.93995 9.03254 6.96339C9.05338 6.98683 9.08164 7 9.11111 7Z" stroke="currentColor"/>
<path d="M3.11111 12H6.88889C6.91836 12 6.94662 11.9868 6.96746 11.9634C6.98829 11.9399 7 11.9082 7 11.875V9.125C7 9.09185 6.98829 9.06005 6.96746 9.03661C6.94662 9.01317 6.91836 9 6.88889 9H3.11111C3.08164 9 3.05338 9.01317 3.03254 9.03661C3.01171 9.06005 3 9.09185 3 9.125V11.875C3 11.9082 3.01171 11.9399 3.03254 11.9634C3.05338 11.9868 3.08164 12 3.11111 12Z" stroke="currentColor"/>
</svg>
