<svg width="17" height="16" viewBox="0 0 17 16" fill="none" xmlns="http://www.w3.org/2000/svg">
<path d="M5.50005 13V3M11.5 13V3M14.5 3.625C14.5 3.45924 14.4298 3.30027 14.3048 3.18306C14.1798 3.06585 14.0102 3 13.8334 3H3.16671C2.9899 3 2.82033 3.06585 2.69531 3.18306C2.57028 3.30027 2.50005 3.45924 2.50005 3.625V12.375C2.50005 12.5408 2.57028 12.6997 2.69531 12.8169C2.82033 12.9342 2.9899 13 3.16671 13H13.8334C14.0102 13 14.1798 12.9342 14.3048 12.8169C14.4298 12.6997 14.5 12.5408 14.5 12.375V3.625Z" stroke="currentColor"/>
</svg>
