<svg width="16" height="16" viewBox="0 0 16 16" fill="none" xmlns="http://www.w3.org/2000/svg">
<path fill-rule="evenodd" clip-rule="evenodd" d="M4 12.5C4 12.7761 3.77614 13 3.5 13C3.22386 13 3 12.7761 3 12.5L3 10.5C3 10.2239 3.22386 10 3.5 10L12.5 10C12.7761 10 13 10.2239 13 10.5L13 12.5C13 12.7761 12.7761 13 12.5 13C12.2239 13 12 12.7761 12 12.5L12 11L4 11L4 12.5ZM3 5.5C3 5.77614 3.22386 6 3.5 6L12.4993 6L12.5 6C12.7761 6 13 5.77614 13 5.5L13 3.5C13 3.22386 12.7761 3 12.5 3C12.2239 3 12 3.22386 12 3.5L12 5L4 5L4 3.5C4 3.22386 3.77614 3 3.5 3C3.22386 3 3 3.22386 3 3.5L3 5.5ZM5 8C5 8.27614 5.22386 8.5 5.5 8.5L10.5 8.5C10.7761 8.5 11 8.27614 11 8C11 7.72386 10.7761 7.5 10.5 7.5L5.5 7.5C5.22386 7.5 5 7.72386 5 8Z" fill="#1D2129"/>
</svg>
