<svg width="16" height="16" viewBox="0 0 16 16" fill="none" xmlns="http://www.w3.org/2000/svg">
<path fill-rule="evenodd" clip-rule="evenodd" d="M3.5 4C3.22386 4 3 3.77614 3 3.5C3 3.22386 3.22386 3 3.5 3H5.5C5.77614 3 6 3.22386 6 3.5V12.5C6 12.7761 5.77614 13 5.5 13H3.5C3.22386 13 3 12.7761 3 12.5C3 12.2239 3.22386 12 3.5 12H5V4L3.5 4ZM10.5 3C10.2239 3 10 3.22386 10 3.5V12.5C10 12.7761 10.2239 13 10.5 13H12.5C12.7761 13 13 12.7761 13 12.5C13 12.2239 12.7761 12 12.5 12H11V4L12.5 4C12.7761 4 13 3.77614 13 3.5C13 3.22386 12.7761 3 12.5 3H10.5ZM8 5C7.72386 5 7.5 5.22386 7.5 5.5V10.5C7.5 10.7761 7.72386 11 8 11C8.27614 11 8.5 10.7761 8.5 10.5V5.5C8.5 5.22386 8.27614 5 8 5Z" fill="#1D2129"/>
</svg>
