<svg width="14" height="14" viewBox="0 0 14 14" fill="none" xmlns="http://www.w3.org/2000/svg">
<rect width="14" height="14" rx="2" fill="#E5E6EB"/>
<path d="M6.40168 9.89V11H7.51168V9.89H6.40168ZM4.77168 6.09H5.62168C5.62168 5.85667 5.64835 5.64 5.70168 5.44C5.75501 5.24 5.83835 5.06667 5.95168 4.92C6.07168 4.77333 6.21835 4.65667 6.39168 4.57C6.56501 4.48333 6.77168 4.44 7.01168 4.44C7.37168 4.44 7.65501 4.54333 7.86168 4.75C8.07501 4.95667 8.19501 5.24333 8.22168 5.61C8.23501 5.85667 8.20501 6.06667 8.13168 6.24C8.05835 6.41333 7.95835 6.57333 7.83168 6.72C7.71168 6.86 7.57835 6.99667 7.43168 7.13C7.29168 7.25667 7.15501 7.39667 7.02168 7.55C6.89501 7.70333 6.78501 7.88 6.69168 8.08C6.60501 8.27333 6.55501 8.51 6.54168 8.79V9.26H7.39168V8.87C7.39168 8.69667 7.41501 8.54333 7.46168 8.41C7.51501 8.27 7.58168 8.14333 7.66168 8.03C7.74835 7.91 7.84168 7.8 7.94168 7.7C8.04835 7.59333 8.15501 7.49 8.26168 7.39C8.36835 7.28333 8.47168 7.17333 8.57168 7.06C8.67835 6.94667 8.77168 6.82333 8.85168 6.69C8.93168 6.55667 8.99501 6.41 9.04168 6.25C9.09501 6.08333 9.12168 5.89667 9.12168 5.69C9.12168 5.37 9.06835 5.08667 8.96168 4.84C8.86168 4.59333 8.71835 4.38667 8.53168 4.22C8.34501 4.04667 8.12168 3.91667 7.86168 3.83C7.60835 3.73667 7.32501 3.69 7.01168 3.69C6.66501 3.69 6.35168 3.75 6.07168 3.87C5.79168 3.99 5.55501 4.16 5.36168 4.38C5.16835 4.59333 5.01835 4.84667 4.91168 5.14C4.81168 5.43333 4.76501 5.75 4.77168 6.09Z" fill="#787E85"/>
</svg>
