<svg width="51" height="24" viewBox="0 0 51 24" fill="none" xmlns="http://www.w3.org/2000/svg">
<path fill-rule="evenodd" clip-rule="evenodd" d="M9 0H15.6V24H9V0ZM0 9H6.6V24H0V9ZM24.6 0H18V24H24.6V0Z" fill="white"/>
<rect width="6.6" height="6.6" fill="#FF58BE"/>
<path fill-rule="evenodd" clip-rule="evenodd" d="M44.4 12.0046C44.3975 14.9848 41.9808 17.4 39 17.4C36.0177 17.4 33.6 14.9823 33.6 12C33.6 9.01766 36.0177 6.6 39 6.6C41.9823 6.6 44.4 9.01766 44.4 12C44.4 12.0015 44.4 12.0031 44.4 12.0046ZM44.4 22.7192C42.7769 23.5385 40.9423 24 39 24C32.3726 24 27 18.6274 27 12C27 5.37258 32.3726 0 39 0C45.6274 0 51 5.37258 51 12C51 12.0023 51 12.0046 51 12.0068V24H44.4V22.7192Z" fill="white"/>
</svg>
