<svg width="38" height="38" viewBox="0 0 38 38" fill="none" xmlns="http://www.w3.org/2000/svg">
<path fill-rule="evenodd" clip-rule="evenodd" d="M18.991 20.71V17.362H27.415C27.541 17.929 27.64 18.46 27.64 19.207C27.64 24.346 24.193 28 19 28C14.032 28 10 23.968 10 19C10 14.032 14.032 10 19 10C21.43 10 23.464 10.891 25.021 12.349L22.465 14.833C21.817 14.221 20.683 13.501 19 13.501C16.021 13.501 13.591 15.976 13.591 19.009C13.591 22.042 16.021 24.517 19 24.517C22.447 24.517 23.716 22.132 23.95 20.719H18.991V20.71Z" fill="black" fill-opacity="0.4"/>
</svg>
